<?xml version="1.0" encoding="UTF-8"?>
<svg width="1280px" height="1280px" viewBox="0 0 1280 1280" version="1.1" xmlns="http://www.w3.org/2000/svg" xmlns:xlink="http://www.w3.org/1999/xlink">
    <!-- Generator: Sketch 52.5 (67469) - http://www.bohemiancoding.com/sketch -->
    <title>logo-type-light</title>
    <desc>Created with Sketch.</desc>
    <defs>
        <path d="M0.359033478,50.8094438 C0.274802583,49.6587656 0.232644928,48.5053925 0.232644928,47.351634 C0.232644928,21.2000487 21.4273427,-5.68434189e-14 47.5723275,-5.68434189e-14 L418.409657,-5.68434189e-14 C419.562358,-5.68434189e-14 420.714674,0.0421122523 421.864301,0.126252545 C447.939576,2.03468118 467.531066,24.7252917 465.623119,50.8071497 L435.957698,456.336921 C434.655651,474.136067 423.459127,489.691062 406.996392,496.571997 L251.286406,561.654157 C239.587396,566.543996 226.416284,566.535204 214.723809,561.62975 L58.9265417,496.266648 C42.4947395,489.372858 31.3248798,473.833842 30.0236888,456.058273 L0.359033478,50.8094438 Z M155.044914,240.175878 L213.90436,139.645222 C206.279301,137.04641 199.354371,132.934333 193.487371,127.666883 L134.666517,228.131623 C142.281847,230.754762 149.193976,234.888874 155.044914,240.175878 Z M272.370505,441.165404 L331.513884,340.149798 C323.888825,337.550985 316.963895,333.438908 311.096895,328.171459 L251.914918,429.252988 C259.549723,431.827452 266.487459,435.917494 272.370505,441.165404 Z M292.618627,272.271895 L173.381373,272.271895 C174.1576,276.096841 174.565079,280.055725 174.565079,284.109804 C174.565079,288.163883 174.1576,292.122767 173.381373,295.947712 L292.618627,295.947712 C291.8424,292.122767 291.434921,288.163883 291.434921,284.109804 C291.434921,280.055725 291.8424,276.096841 292.618627,272.271895 Z M233,130.956863 C259.144985,130.956863 280.339683,109.756814 280.339683,83.6052288 C280.339683,57.4536434 259.144985,36.2535948 233,36.2535948 C206.855015,36.2535948 185.660317,57.4536434 185.660317,83.6052288 C185.660317,109.756814 206.855015,130.956863 233,130.956863 Z M233,107.281046 C219.927508,107.281046 209.330159,96.6810214 209.330159,83.6052288 C209.330159,70.5294361 219.927508,59.9294118 233,59.9294118 C246.072492,59.9294118 256.669841,70.5294361 256.669841,83.6052288 C256.669841,96.6810214 246.072492,107.281046 233,107.281046 Z M115.390476,331.461438 C141.535461,331.461438 162.730159,310.261389 162.730159,284.109804 C162.730159,257.958219 141.535461,236.75817 115.390476,236.75817 C89.2454915,236.75817 68.0507937,257.958219 68.0507937,284.109804 C68.0507937,310.261389 89.2454915,331.461438 115.390476,331.461438 Z M115.390476,307.785621 C102.317984,307.785621 91.7206349,297.185597 91.7206349,284.109804 C91.7206349,271.034011 102.317984,260.433987 115.390476,260.433987 C128.462969,260.433987 139.060317,271.034011 139.060317,284.109804 C139.060317,297.185597 128.462969,307.785621 115.390476,307.785621 Z M350.609524,331.461438 C376.754509,331.461438 397.949206,310.261389 397.949206,284.109804 C397.949206,257.958219 376.754509,236.75817 350.609524,236.75817 C324.464539,236.75817 303.269841,257.958219 303.269841,284.109804 C303.269841,310.261389 324.464539,331.461438 350.609524,331.461438 Z M350.609524,307.785621 C337.537031,307.785621 326.939683,297.185597 326.939683,284.109804 C326.939683,271.034011 337.537031,260.433987 350.609524,260.433987 C363.682016,260.433987 374.279365,271.034011 374.279365,284.109804 C374.279365,297.185597 363.682016,307.785621 350.609524,307.785621 Z M233,532.705882 C259.144985,532.705882 280.339683,511.505834 280.339683,485.354248 C280.339683,459.202663 259.144985,438.002614 233,438.002614 C206.855015,438.002614 185.660317,459.202663 185.660317,485.354248 C185.660317,511.505834 206.855015,532.705882 233,532.705882 Z M233,509.030065 C219.927508,509.030065 209.330159,498.430041 209.330159,485.354248 C209.330159,472.278456 219.927508,461.678431 233,461.678431 C246.072492,461.678431 256.669841,472.278456 256.669841,485.354248 C256.669841,498.430041 246.072492,509.030065 233,509.030065 Z" id="path-1"></path>
    </defs>
    <g id="logo-type-light" stroke="none" stroke-width="1" fill="none" fill-rule="evenodd">
        <text id="CONNECTIVE" font-family="Futura-Bold, Futura" font-size="64" font-weight="bold" fill="#424242">
            <tspan x="418.848" y="1021">CONNECTIVE</tspan>
        </text>
        <g id="Shape" transform="translate(407.000000, 261.000000)">
            <mask id="mask-2" fill="white">
                <use xlink:href="#path-1"></use>
            </mask>
            <use id="Mask" fill="#4A90E2" fill-rule="nonzero" xlink:href="#path-1"></use>
            <path d="M408.600421,272.271895 L517.038095,272.271895 L517.038095,295.947712 L408.600421,295.947712 C409.376648,292.122767 409.784127,288.163883 409.784127,284.109804 C409.784127,280.055725 409.376648,276.096841 408.600421,272.271895 Z M386.120055,331.461438 L517.038095,331.461438 L517.038095,355.137255 L336.453993,355.137255 L343.623882,342.891241 C345.914947,343.160751 348.246054,343.299346 350.609524,343.299346 C363.933571,343.299346 376.22909,338.894585 386.120055,331.461438 Z M315.661149,390.65098 L517.038095,390.65098 L517.038095,414.326797 L301.799253,414.326797 L315.661149,390.65098 Z M281.006409,449.840523 L517.038095,449.840523 L517.038095,473.51634 L290.990897,473.51634 C289.258543,464.979971 285.689544,457.110712 280.714438,450.339209 L281.006409,449.840523 Z M287.250768,509.030065 L517.038095,509.030065 L517.038095,532.705882 L268.510531,532.705882 C276.6327,526.602001 283.133426,518.456014 287.250758,509.030067 L287.250768,509.030065 Z M184.622914,213.082353 L517.038095,213.082353 L517.038095,236.75817 L386.120055,236.75817 C376.22909,229.325023 363.933571,224.920261 350.609524,224.920261 C337.285477,224.920261 324.989957,229.325023 315.098993,236.75817 L170.761018,236.75817 L184.622914,213.082353 Z M219.277654,153.89281 L517.038095,153.89281 L517.038095,177.568627 L205.415758,177.568627 L219.277654,153.89281 Z M291.13612,94.703268 L517.038095,94.703268 L517.038095,118.379085 L280.890706,118.379085 C285.916321,111.466229 289.482405,103.423305 291.13612,94.703268 Z M267.504155,35.5137255 L517.038095,35.5137255 L517.038095,59.1895425 L286.921499,59.1895425 C282.617123,49.6936776 275.879317,41.5363135 267.504155,35.5137255 Z" fill="#72B3FF" fill-rule="nonzero" mask="url(#mask-2)"></path>
        </g>
        <path d="M435,1056 L466.893057,1056 L466.893057,1087.72174 L496.290136,1087.72174 L496.290136,1056 L528.183193,1056 L528.183193,1152 L496.290136,1152 L496.290136,1120 L467.170388,1120 L467.170388,1152 L435,1152 M570.337494,1088 L542.188404,1088 L542.188404,1056 L630.518306,1056 L630.518306,1088 L602.230551,1088 L602.230551,1152 L570.337494,1152 M644.523518,1056 L677.941895,1056 L698.464384,1089.8087 L718.986872,1056 L752.40525,1056 L752.40525,1152 L720.512193,1152 L720.512193,1104.41739 L698.187053,1138.92174 L675.861913,1104.41739 L675.861913,1152 L644.523518,1152 M768.213113,1056 L800.10617,1056 L800.10617,1120.27826 L845.311111,1120.27826 L845.311111,1152 L768.213113,1152" id="Shape" fill="#424242" fill-rule="nonzero"></path>
    </g>
</svg>