<?xml version="1.0" encoding="UTF-8"?>
<svg width="3000px" height="1500px" viewBox="0 0 3000 1500" version="1.1" xmlns="http://www.w3.org/2000/svg" xmlns:xlink="http://www.w3.org/1999/xlink">
    <!-- Generator: Sketch 52.5 (67469) - http://www.bohemiancoding.com/sketch -->
    <title>repo-banner</title>
    <desc>Created with Sketch.</desc>
    <defs>
        <path d="M0.359033478,50.8094438 C0.274802583,49.6587656 0.232644928,48.5053925 0.232644928,47.351634 C0.232644928,21.2000487 21.4273427,-5.68434189e-14 47.5723275,-5.68434189e-14 L418.409657,-5.68434189e-14 C419.562358,-5.68434189e-14 420.714674,0.0421122523 421.864301,0.126252545 C447.939576,2.03468118 467.531066,24.7252917 465.623119,50.8071497 L435.957698,456.336921 C434.655651,474.136067 423.459127,489.691062 406.996392,496.571997 L251.286406,561.654157 C239.587396,566.543996 226.416284,566.535204 214.723809,561.62975 L58.9265417,496.266648 C42.4947395,489.372858 31.3248798,473.833842 30.0236888,456.058273 L0.359033478,50.8094438 Z M155.044914,240.175878 L213.90436,139.645222 C206.279301,137.04641 199.354371,132.934333 193.487371,127.666883 L134.666517,228.131623 C142.281847,230.754762 149.193976,234.888874 155.044914,240.175878 Z M272.370505,441.165404 L331.513884,340.149798 C323.888825,337.550985 316.963895,333.438908 311.096895,328.171459 L251.914918,429.252988 C259.549723,431.827452 266.487459,435.917494 272.370505,441.165404 Z M292.618627,272.271895 L173.381373,272.271895 C174.1576,276.096841 174.565079,280.055725 174.565079,284.109804 C174.565079,288.163883 174.1576,292.122767 173.381373,295.947712 L292.618627,295.947712 C291.8424,292.122767 291.434921,288.163883 291.434921,284.109804 C291.434921,280.055725 291.8424,276.096841 292.618627,272.271895 Z M233,130.956863 C259.144985,130.956863 280.339683,109.756814 280.339683,83.6052288 C280.339683,57.4536434 259.144985,36.2535948 233,36.2535948 C206.855015,36.2535948 185.660317,57.4536434 185.660317,83.6052288 C185.660317,109.756814 206.855015,130.956863 233,130.956863 Z M233,107.281046 C219.927508,107.281046 209.330159,96.6810214 209.330159,83.6052288 C209.330159,70.5294361 219.927508,59.9294118 233,59.9294118 C246.072492,59.9294118 256.669841,70.5294361 256.669841,83.6052288 C256.669841,96.6810214 246.072492,107.281046 233,107.281046 Z M115.390476,331.461438 C141.535461,331.461438 162.730159,310.261389 162.730159,284.109804 C162.730159,257.958219 141.535461,236.75817 115.390476,236.75817 C89.2454915,236.75817 68.0507937,257.958219 68.0507937,284.109804 C68.0507937,310.261389 89.2454915,331.461438 115.390476,331.461438 Z M115.390476,307.785621 C102.317984,307.785621 91.7206349,297.185597 91.7206349,284.109804 C91.7206349,271.034011 102.317984,260.433987 115.390476,260.433987 C128.462969,260.433987 139.060317,271.034011 139.060317,284.109804 C139.060317,297.185597 128.462969,307.785621 115.390476,307.785621 Z M350.609524,331.461438 C376.754509,331.461438 397.949206,310.261389 397.949206,284.109804 C397.949206,257.958219 376.754509,236.75817 350.609524,236.75817 C324.464539,236.75817 303.269841,257.958219 303.269841,284.109804 C303.269841,310.261389 324.464539,331.461438 350.609524,331.461438 Z M350.609524,307.785621 C337.537031,307.785621 326.939683,297.185597 326.939683,284.109804 C326.939683,271.034011 337.537031,260.433987 350.609524,260.433987 C363.682016,260.433987 374.279365,271.034011 374.279365,284.109804 C374.279365,297.185597 363.682016,307.785621 350.609524,307.785621 Z M233,532.705882 C259.144985,532.705882 280.339683,511.505834 280.339683,485.354248 C280.339683,459.202663 259.144985,438.002614 233,438.002614 C206.855015,438.002614 185.660317,459.202663 185.660317,485.354248 C185.660317,511.505834 206.855015,532.705882 233,532.705882 Z M233,509.030065 C219.927508,509.030065 209.330159,498.430041 209.330159,485.354248 C209.330159,472.278456 219.927508,461.678431 233,461.678431 C246.072492,461.678431 256.669841,472.278456 256.669841,485.354248 C256.669841,498.430041 246.072492,509.030065 233,509.030065 Z" id="path-1"></path>
    </defs>
    <g id="repo-banner" stroke="none" stroke-width="1" fill="none" fill-rule="evenodd">
        <g id="Group-2" transform="translate(0.000000, 195.000000)">
            <g id="Group" transform="translate(860.000000, 0.000000)">
                <text id="CONNECTIVE" font-family="Futura-Bold, Futura" font-size="64" font-weight="bold" fill="#424242">
                    <tspan x="418.848" y="760">CONNECTIVE</tspan>
                </text>
                <g id="Shape" transform="translate(407.000000, 0.000000)">
                    <mask id="mask-2" fill="white">
                        <use xlink:href="#path-1"></use>
                    </mask>
                    <use id="Mask" fill="#4A90E2" fill-rule="nonzero" xlink:href="#path-1"></use>
                    <path d="M408.600421,272.271895 L517.038095,272.271895 L517.038095,295.947712 L408.600421,295.947712 C409.376648,292.122767 409.784127,288.163883 409.784127,284.109804 C409.784127,280.055725 409.376648,276.096841 408.600421,272.271895 Z M386.120055,331.461438 L517.038095,331.461438 L517.038095,355.137255 L336.453993,355.137255 L343.623882,342.891241 C345.914947,343.160751 348.246054,343.299346 350.609524,343.299346 C363.933571,343.299346 376.22909,338.894585 386.120055,331.461438 Z M315.661149,390.65098 L517.038095,390.65098 L517.038095,414.326797 L301.799253,414.326797 L315.661149,390.65098 Z M281.006409,449.840523 L517.038095,449.840523 L517.038095,473.51634 L290.990897,473.51634 C289.258543,464.979971 285.689544,457.110712 280.714438,450.339209 L281.006409,449.840523 Z M287.250768,509.030065 L517.038095,509.030065 L517.038095,532.705882 L268.510531,532.705882 C276.6327,526.602001 283.133426,518.456014 287.250758,509.030067 L287.250768,509.030065 Z M184.622914,213.082353 L517.038095,213.082353 L517.038095,236.75817 L386.120055,236.75817 C376.22909,229.325023 363.933571,224.920261 350.609524,224.920261 C337.285477,224.920261 324.989957,229.325023 315.098993,236.75817 L170.761018,236.75817 L184.622914,213.082353 Z M219.277654,153.89281 L517.038095,153.89281 L517.038095,177.568627 L205.415758,177.568627 L219.277654,153.89281 Z M291.13612,94.703268 L517.038095,94.703268 L517.038095,118.379085 L280.890706,118.379085 C285.916321,111.466229 289.482405,103.423305 291.13612,94.703268 Z M267.504155,35.5137255 L517.038095,35.5137255 L517.038095,59.1895425 L286.921499,59.1895425 C282.617123,49.6936776 275.879317,41.5363135 267.504155,35.5137255 Z" fill="#72B3FF" fill-rule="nonzero" mask="url(#mask-2)"></path>
                </g>
                <path d="M435,795 L466.893057,795 L466.893057,826.721739 L496.290136,826.721739 L496.290136,795 L528.183193,795 L528.183193,891 L496.290136,891 L496.290136,859 L467.170388,859 L467.170388,891 L435,891 M570.337494,827 L542.188404,827 L542.188404,795 L630.518306,795 L630.518306,827 L602.230551,827 L602.230551,891 L570.337494,891 M644.523518,795 L677.941895,795 L698.464384,828.808696 L718.986872,795 L752.40525,795 L752.40525,891 L720.512193,891 L720.512193,843.417391 L698.187053,877.921739 L675.861913,843.417391 L675.861913,891 L644.523518,891 M768.213113,795 L800.10617,795 L800.10617,859.278261 L845.311111,859.278261 L845.311111,891 L768.213113,891" id="Shape" fill="#424242" fill-rule="nonzero"></path>
            </g>
            <text id="Explicitly-Reactive" font-family="Futura-Medium, Futura" font-size="64" font-weight="400" fill="#BDBDBD">
                <tspan x="1012.6875" y="1085">Explicitly Reactive User Interfaces</tspan>
            </text>
        </g>
        <g id="field" opacity="0.25" fill="#9E9E9E" fill-rule="nonzero">
            <polygon id="Triangle" transform="translate(8.000000, 750.000000) rotate(90.000000) translate(-8.000000, -750.000000) " points="8 742.125 17 757.875 -1 757.875"></polygon>
            <polygon id="Triangle-Copy-10" transform="translate(7.875000, 600.000000) rotate(90.000000) translate(-7.875000, -600.000000) " points="7.875 592.125 16.875 607.875 -1.125 607.875"></polygon>
            <polygon id="Triangle-Copy-30" transform="translate(607.845033, 600.686351) rotate(95.000000) translate(-607.845033, -600.686351) " points="607.845033 592.811351 616.845033 608.561351 598.845033 608.561351"></polygon>
            <polygon id="Triangle-Copy-35" transform="translate(757.816301, 600.959721) rotate(97.000000) translate(-757.816301, -600.959721) " points="757.816301 593.084721 766.816301 608.834721 748.816301 608.834721"></polygon>
            <polygon id="Triangle-Copy-40" transform="translate(907.798361, 601.095988) rotate(98.000000) translate(-907.798361, -601.095988) " points="907.798361 593.220988 916.798361 608.970988 898.798361 608.970988"></polygon>
            <polygon id="Triangle-Copy-45" transform="translate(1057.606666, 602.038200) rotate(105.000000) translate(-1057.606666, -602.038200) " points="1057.60667 594.1632 1066.60667 609.9132 1048.60667 609.9132"></polygon>
            <polygon id="Triangle-Copy-50" transform="translate(1207.351946, 602.822148) rotate(111.000000) translate(-1207.351946, -602.822148) " points="1207.35195 594.947148 1216.35195 610.697148 1198.35195 610.697148"></polygon>
            <polygon id="Triangle-Copy-67" transform="translate(1356.032600, 605.061952) rotate(130.000000) translate(-1356.032600, -605.061952) " points="1356.0326 597.186952 1365.0326 612.936952 1347.0326 612.936952"></polygon>
            <polygon id="Triangle-Copy-25" transform="translate(457.855817, 600.549332) rotate(94.000000) translate(-457.855817, -600.549332) " points="457.855817 592.674332 466.855817 608.424332 448.855817 608.424332"></polygon>
            <polygon id="Triangle-Copy-24" transform="translate(307.864208, 600.412146) rotate(93.000000) translate(-307.864208, -600.412146) " points="307.864208 592.537146 316.864208 608.287146 298.864208 608.287146"></polygon>
            <polygon id="Triangle-Copy-19" transform="translate(157.875000, 600.000000) rotate(90.000000) translate(-157.875000, -600.000000) " points="157.875 592.125 166.875 607.875 148.875 607.875"></polygon>
            <polygon id="Triangle-Copy-11" transform="translate(7.875000, 450.000000) rotate(90.000000) translate(-7.875000, -450.000000) " points="7.875 442.125 16.875 457.875 -1.125 457.875"></polygon>
            <polygon id="Triangle-Copy-31" transform="translate(607.755361, 451.367479) rotate(100.000000) translate(-607.755361, -451.367479) " points="607.755361 443.492479 616.755361 459.242479 598.755361 459.242479"></polygon>
            <polygon id="Triangle-Copy-36" transform="translate(757.730314, 451.502621) rotate(101.000000) translate(-757.730314, -451.502621) " points="757.730314 443.627621 766.730314 459.377621 748.730314 459.377621"></polygon>
            <polygon id="Triangle-Copy-41" transform="translate(907.489570, 452.433509) rotate(108.000000) translate(-907.489570, -452.433509) " points="907.48957 444.558509 916.48957 460.308509 898.48957 460.308509"></polygon>
            <polygon id="Triangle-Copy-46" transform="translate(1057.137174, 453.328119) rotate(115.000000) translate(-1057.137174, -453.328119) " points="1057.13717 445.453119 1066.13717 461.203119 1048.13717 461.203119"></polygon>
            <polygon id="Triangle-Copy-51" transform="translate(1206.289255, 454.739293) rotate(127.000000) translate(-1206.289255, -454.739293) " points="1206.28925 446.864293 1215.28925 462.614293 1197.28925 462.614293"></polygon>
            <polygon id="Triangle-Copy-68" transform="translate(1354.173114, 456.678379) rotate(148.000000) translate(-1354.173114, -456.678379) " points="1354.17311 448.803379 1363.17311 464.553379 1345.17311 464.553379"></polygon>
            <polygon id="Triangle-Copy-26" transform="translate(457.816301, 450.959721) rotate(97.000000) translate(-457.816301, -450.959721) " points="457.816301 443.084721 466.816301 458.834721 448.816301 458.834721"></polygon>
            <polygon id="Triangle-Copy-23" transform="translate(307.855817, 450.549332) rotate(94.000000) translate(-307.855817, -450.549332) " points="307.855817 442.674332 316.855817 458.424332 298.855817 458.424332"></polygon>
            <polygon id="Triangle-Copy-18" transform="translate(157.873801, 450.137438) rotate(91.000000) translate(-157.873801, -450.137438) " points="157.873801 442.262438 166.873801 458.012438 148.873801 458.012438"></polygon>
            <polygon id="Triangle-Copy-12" transform="translate(7.875000, 300.000000) rotate(90.000000) translate(-7.875000, -300.000000) " points="7.875 292.125 16.875 307.875 -1.125 307.875"></polygon>
            <polygon id="Triangle-Copy-32" transform="translate(607.730314, 301.502621) rotate(101.000000) translate(-607.730314, -301.502621) " points="607.730314 293.627621 616.730314 309.377621 598.730314 309.377621"></polygon>
            <polygon id="Triangle-Copy-37" transform="translate(757.530900, 302.302427) rotate(107.000000) translate(-757.530900, -302.302427) " points="757.5309 294.427427 766.5309 310.177427 748.5309 310.177427"></polygon>
            <polygon id="Triangle-Copy-42" transform="translate(907.194170, 303.203051) rotate(114.000000) translate(-907.194170, -303.203051) " points="907.19417 295.328051 916.19417 311.078051 898.19417 311.078051"></polygon>
            <polygon id="Triangle-Copy-47" transform="translate(1056.604531, 304.289032) rotate(123.000000) translate(-1056.604531, -304.289032) " points="1056.60453 296.414032 1065.60453 312.164032 1047.60453 312.164032"></polygon>
            <polygon id="Triangle-Copy-52" transform="translate(1205.269404, 305.852266) rotate(138.000000) translate(-1205.269404, -305.852266) " points="1205.2694 297.977266 1214.2694 313.727266 1196.2694 313.727266"></polygon>
            <polygon id="Triangle-Copy-69" transform="translate(1353.077008, 307.248976) rotate(157.000000) translate(-1353.077008, -307.248976) " points="1353.07701 299.373976 1362.07701 315.123976 1344.07701 315.123976"></polygon>
            <polygon id="Triangle-Copy-27" transform="translate(457.816301, 300.959721) rotate(97.000000) translate(-457.816301, -300.959721) " points="457.816301 293.084721 466.816301 308.834721 448.816301 308.834721"></polygon>
            <polygon id="Triangle-Copy-22" transform="translate(307.845033, 300.686351) rotate(95.000000) translate(-307.845033, -300.686351) " points="307.845033 292.811351 316.845033 308.561351 298.845033 308.561351"></polygon>
            <polygon id="Triangle-Copy-17" transform="translate(157.855817, 300.549332) rotate(94.000000) translate(-157.855817, -300.549332) " points="157.855817 292.674332 166.855817 308.424332 148.855817 308.424332"></polygon>
            <polygon id="Triangle-Copy-13" transform="translate(7.875000, 150.000000) rotate(90.000000) translate(-7.875000, -150.000000) " points="7.875 142.125 16.875 157.875 -1.125 157.875"></polygon>
            <polygon id="Triangle-Copy-33" transform="translate(607.569936, 152.170644) rotate(106.000000) translate(-607.569936, -152.170644) " points="607.569936 144.295644 616.569936 160.045644 598.569936 160.045644"></polygon>
            <polygon id="Triangle-Copy-38" transform="translate(757.445959, 152.563849) rotate(109.000000) translate(-757.445959, -152.563849) " points="757.445959 144.688849 766.445959 160.438849 748.445959 160.438849"></polygon>
            <polygon id="Triangle-Copy-43" transform="translate(906.819950, 153.937500) rotate(120.000000) translate(-906.819950, -153.937500) " points="906.81995 146.0625 915.81995 161.8125 897.81995 161.8125"></polygon>
            <polygon id="Triangle-Copy-48" transform="translate(1056.120024, 154.955898) rotate(129.000000) translate(-1056.120024, -154.955898) " points="1056.12002 147.080898 1065.12002 162.830898 1047.12002 162.830898"></polygon>
            <polygon id="Triangle-Copy-53" transform="translate(1204.403644, 156.528671) rotate(146.000000) translate(-1204.403644, -156.528671) " points="1204.40364 148.653671 1213.40364 164.403671 1195.40364 164.403671"></polygon>
            <polygon id="Triangle-Copy-58" transform="translate(1352.563849, 157.445959) rotate(161.000000) translate(-1352.563849, -157.445959) " points="1352.56385 149.570959 1361.56385 165.320959 1343.56385 165.320959"></polygon>
            <polygon id="Triangle-Copy-28" transform="translate(457.755361, 151.367479) rotate(100.000000) translate(-457.755361, -151.367479) " points="457.755361 143.492479 466.755361 159.242479 448.755361 159.242479"></polygon>
            <polygon id="Triangle-Copy-21" transform="translate(307.845033, 150.686351) rotate(95.000000) translate(-307.845033, -150.686351) " points="307.845033 142.811351 316.845033 158.561351 298.845033 158.561351"></polygon>
            <polygon id="Triangle-Copy-16" transform="translate(157.855817, 150.549332) rotate(94.000000) translate(-157.855817, -150.549332) " points="157.855817 142.674332 166.855817 158.424332 148.855817 158.424332"></polygon>
            <polygon id="Triangle-Copy-14" transform="translate(7.875000, 9.000000) rotate(90.000000) translate(-7.875000, -9.000000) " points="7.875 1.125 16.875 16.875 -1.125 16.875"></polygon>
            <polygon id="Triangle-Copy-34" transform="translate(607.530900, 11.302427) rotate(107.000000) translate(-607.530900, -11.302427) " points="607.5309 3.42742717 616.5309 19.1774272 598.5309 19.1774272"></polygon>
            <polygon id="Triangle-Copy-39" transform="translate(757.194170, 12.203051) rotate(114.000000) translate(-757.194170, -12.203051) " points="757.19417 4.32805106 766.19417 20.0780511 748.19417 20.0780511"></polygon>
            <polygon id="Triangle-Copy-44" transform="translate(906.819950, 12.937500) rotate(120.000000) translate(-906.819950, -12.937500) " points="906.81995 5.0625 915.81995 20.8125 897.81995 20.8125"></polygon>
            <polygon id="Triangle-Copy-49" transform="translate(1055.568466, 14.568466) rotate(135.000000) translate(-1055.568466, -14.568466) " points="1055.56847 6.6934659 1064.56847 22.4434659 1046.56847 22.4434659"></polygon>
            <polygon id="Triangle-Copy-54" transform="translate(1203.937500, 15.819950) rotate(150.000000) translate(-1203.937500, -15.819950) " points="1203.9375 7.94495005 1212.9375 23.6949501 1194.9375 23.6949501"></polygon>
            <polygon id="Triangle-Copy-59" transform="translate(1352.038200, 16.606666) rotate(165.000000) translate(-1352.038200, -16.606666) " points="1352.0382 8.73166588 1361.0382 24.4816659 1343.0382 24.4816659"></polygon>
            <polygon id="Triangle-Copy-29" transform="translate(457.702912, 10.637305) rotate(102.000000) translate(-457.702912, -10.637305) " points="457.702912 2.76230457 466.702912 18.5123046 448.702912 18.5123046"></polygon>
            <polygon id="Triangle-Copy-20" transform="translate(307.831860, 9.823162) rotate(96.000000) translate(-307.831860, -9.823162) " points="307.83186 1.94816165 316.83186 17.6981616 298.83186 17.6981616"></polygon>
            <polygon id="Triangle-Copy-15" transform="translate(157.855817, 9.549332) rotate(94.000000) translate(-157.855817, -9.549332) " points="157.855817 1.67433223 166.855817 17.4243322 148.855817 17.4243322"></polygon>
            <polygon id="Triangle-Copy-10" transform="translate(7.875000, 900.000000) scale(1, -1) rotate(90.000000) translate(-7.875000, -900.000000) " points="7.875 892.125 16.875 907.875 -1.125 907.875"></polygon>
            <polygon id="Triangle-Copy-30" transform="translate(607.845033, 899.313649) scale(1, -1) rotate(95.000000) translate(-607.845033, -899.313649) " points="607.845033 891.438649 616.845033 907.188649 598.845033 907.188649"></polygon>
            <polygon id="Triangle-Copy-35" transform="translate(757.816301, 899.040279) scale(1, -1) rotate(97.000000) translate(-757.816301, -899.040279) " points="757.816301 891.165279 766.816301 906.915279 748.816301 906.915279"></polygon>
            <polygon id="Triangle-Copy-40" transform="translate(907.798361, 898.904012) scale(1, -1) rotate(98.000000) translate(-907.798361, -898.904012) " points="907.798361 891.029012 916.798361 906.779012 898.798361 906.779012"></polygon>
            <polygon id="Triangle-Copy-45" transform="translate(1057.606666, 897.961800) scale(1, -1) rotate(105.000000) translate(-1057.606666, -897.961800) " points="1057.60667 890.0868 1066.60667 905.8368 1048.60667 905.8368"></polygon>
            <polygon id="Triangle-Copy-50" transform="translate(1207.351946, 897.177852) scale(1, -1) rotate(111.000000) translate(-1207.351946, -897.177852) " points="1207.35195 889.302852 1216.35195 905.052852 1198.35195 905.052852"></polygon>
            <polygon id="Triangle-Copy-67" transform="translate(1356.032600, 894.938048) scale(1, -1) rotate(130.000000) translate(-1356.032600, -894.938048) " points="1356.0326 887.063048 1365.0326 902.813048 1347.0326 902.813048"></polygon>
            <polygon id="Triangle-Copy-25" transform="translate(457.855817, 899.450668) scale(1, -1) rotate(94.000000) translate(-457.855817, -899.450668) " points="457.855817 891.575668 466.855817 907.325668 448.855817 907.325668"></polygon>
            <polygon id="Triangle-Copy-24" transform="translate(307.864208, 899.587854) scale(1, -1) rotate(93.000000) translate(-307.864208, -899.587854) " points="307.864208 891.712854 316.864208 907.462854 298.864208 907.462854"></polygon>
            <polygon id="Triangle-Copy-19" transform="translate(157.875000, 900.000000) scale(1, -1) rotate(90.000000) translate(-157.875000, -900.000000) " points="157.875 892.125 166.875 907.875 148.875 907.875"></polygon>
            <polygon id="Triangle-Copy-11" transform="translate(7.875000, 1050.000000) scale(1, -1) rotate(90.000000) translate(-7.875000, -1050.000000) " points="7.875 1042.125 16.875 1057.875 -1.125 1057.875"></polygon>
            <polygon id="Triangle-Copy-31" transform="translate(607.755361, 1048.632521) scale(1, -1) rotate(100.000000) translate(-607.755361, -1048.632521) " points="607.755361 1040.75752 616.755361 1056.50752 598.755361 1056.50752"></polygon>
            <polygon id="Triangle-Copy-36" transform="translate(757.730314, 1048.497379) scale(1, -1) rotate(101.000000) translate(-757.730314, -1048.497379) " points="757.730314 1040.62238 766.730314 1056.37238 748.730314 1056.37238"></polygon>
            <polygon id="Triangle-Copy-41" transform="translate(907.489570, 1047.566491) scale(1, -1) rotate(108.000000) translate(-907.489570, -1047.566491) " points="907.48957 1039.69149 916.48957 1055.44149 898.48957 1055.44149"></polygon>
            <polygon id="Triangle-Copy-46" transform="translate(1057.137174, 1046.671881) scale(1, -1) rotate(115.000000) translate(-1057.137174, -1046.671881) " points="1057.13717 1038.79688 1066.13717 1054.54688 1048.13717 1054.54688"></polygon>
            <polygon id="Triangle-Copy-51" transform="translate(1206.289255, 1045.260707) scale(1, -1) rotate(127.000000) translate(-1206.289255, -1045.260707) " points="1206.28925 1037.38571 1215.28925 1053.13571 1197.28925 1053.13571"></polygon>
            <polygon id="Triangle-Copy-68" transform="translate(1354.173114, 1043.321621) scale(1, -1) rotate(148.000000) translate(-1354.173114, -1043.321621) " points="1354.17311 1035.44662 1363.17311 1051.19662 1345.17311 1051.19662"></polygon>
            <polygon id="Triangle-Copy-26" transform="translate(457.816301, 1049.040279) scale(1, -1) rotate(97.000000) translate(-457.816301, -1049.040279) " points="457.816301 1041.16528 466.816301 1056.91528 448.816301 1056.91528"></polygon>
            <polygon id="Triangle-Copy-23" transform="translate(307.855817, 1049.450668) scale(1, -1) rotate(94.000000) translate(-307.855817, -1049.450668) " points="307.855817 1041.57567 316.855817 1057.32567 298.855817 1057.32567"></polygon>
            <polygon id="Triangle-Copy-18" transform="translate(157.873801, 1049.862562) scale(1, -1) rotate(91.000000) translate(-157.873801, -1049.862562) " points="157.873801 1041.98756 166.873801 1057.73756 148.873801 1057.73756"></polygon>
            <polygon id="Triangle-Copy-12" transform="translate(7.875000, 1200.000000) scale(1, -1) rotate(90.000000) translate(-7.875000, -1200.000000) " points="7.875 1192.125 16.875 1207.875 -1.125 1207.875"></polygon>
            <polygon id="Triangle-Copy-32" transform="translate(607.730314, 1198.497379) scale(1, -1) rotate(101.000000) translate(-607.730314, -1198.497379) " points="607.730314 1190.62238 616.730314 1206.37238 598.730314 1206.37238"></polygon>
            <polygon id="Triangle-Copy-37" transform="translate(757.530900, 1197.697573) scale(1, -1) rotate(107.000000) translate(-757.530900, -1197.697573) " points="757.5309 1189.82257 766.5309 1205.57257 748.5309 1205.57257"></polygon>
            <polygon id="Triangle-Copy-42" transform="translate(907.194170, 1196.796949) scale(1, -1) rotate(114.000000) translate(-907.194170, -1196.796949) " points="907.19417 1188.92195 916.19417 1204.67195 898.19417 1204.67195"></polygon>
            <polygon id="Triangle-Copy-47" transform="translate(1056.604531, 1195.710968) scale(1, -1) rotate(123.000000) translate(-1056.604531, -1195.710968) " points="1056.60453 1187.83597 1065.60453 1203.58597 1047.60453 1203.58597"></polygon>
            <polygon id="Triangle-Copy-52" transform="translate(1205.269404, 1194.147734) scale(1, -1) rotate(138.000000) translate(-1205.269404, -1194.147734) " points="1205.2694 1186.27273 1214.2694 1202.02273 1196.2694 1202.02273"></polygon>
            <polygon id="Triangle-Copy-69" transform="translate(1353.077008, 1192.751024) scale(1, -1) rotate(157.000000) translate(-1353.077008, -1192.751024) " points="1353.07701 1184.87602 1362.07701 1200.62602 1344.07701 1200.62602"></polygon>
            <polygon id="Triangle-Copy-27" transform="translate(457.816301, 1199.040279) scale(1, -1) rotate(97.000000) translate(-457.816301, -1199.040279) " points="457.816301 1191.16528 466.816301 1206.91528 448.816301 1206.91528"></polygon>
            <polygon id="Triangle-Copy-22" transform="translate(307.845033, 1199.313649) scale(1, -1) rotate(95.000000) translate(-307.845033, -1199.313649) " points="307.845033 1191.43865 316.845033 1207.18865 298.845033 1207.18865"></polygon>
            <polygon id="Triangle-Copy-17" transform="translate(157.855817, 1199.450668) scale(1, -1) rotate(94.000000) translate(-157.855817, -1199.450668) " points="157.855817 1191.57567 166.855817 1207.32567 148.855817 1207.32567"></polygon>
            <polygon id="Triangle-Copy-13" transform="translate(7.875000, 1350.000000) scale(1, -1) rotate(90.000000) translate(-7.875000, -1350.000000) " points="7.875 1342.125 16.875 1357.875 -1.125 1357.875"></polygon>
            <polygon id="Triangle-Copy-33" transform="translate(607.569936, 1347.829356) scale(1, -1) rotate(106.000000) translate(-607.569936, -1347.829356) " points="607.569936 1339.95436 616.569936 1355.70436 598.569936 1355.70436"></polygon>
            <polygon id="Triangle-Copy-38" transform="translate(757.445959, 1347.436151) scale(1, -1) rotate(109.000000) translate(-757.445959, -1347.436151) " points="757.445959 1339.56115 766.445959 1355.31115 748.445959 1355.31115"></polygon>
            <polygon id="Triangle-Copy-43" transform="translate(906.819950, 1346.062500) scale(1, -1) rotate(120.000000) translate(-906.819950, -1346.062500) " points="906.81995 1338.1875 915.81995 1353.9375 897.81995 1353.9375"></polygon>
            <polygon id="Triangle-Copy-48" transform="translate(1056.120024, 1345.044102) scale(1, -1) rotate(129.000000) translate(-1056.120024, -1345.044102) " points="1056.12002 1337.1691 1065.12002 1352.9191 1047.12002 1352.9191"></polygon>
            <polygon id="Triangle-Copy-53" transform="translate(1204.403644, 1343.471329) scale(1, -1) rotate(146.000000) translate(-1204.403644, -1343.471329) " points="1204.40364 1335.59633 1213.40364 1351.34633 1195.40364 1351.34633"></polygon>
            <polygon id="Triangle-Copy-58" transform="translate(1352.563849, 1342.554041) scale(1, -1) rotate(161.000000) translate(-1352.563849, -1342.554041) " points="1352.56385 1334.67904 1361.56385 1350.42904 1343.56385 1350.42904"></polygon>
            <polygon id="Triangle-Copy-28" transform="translate(457.755361, 1348.632521) scale(1, -1) rotate(100.000000) translate(-457.755361, -1348.632521) " points="457.755361 1340.75752 466.755361 1356.50752 448.755361 1356.50752"></polygon>
            <polygon id="Triangle-Copy-21" transform="translate(307.845033, 1349.313649) scale(1, -1) rotate(95.000000) translate(-307.845033, -1349.313649) " points="307.845033 1341.43865 316.845033 1357.18865 298.845033 1357.18865"></polygon>
            <polygon id="Triangle-Copy-16" transform="translate(157.855817, 1349.450668) scale(1, -1) rotate(94.000000) translate(-157.855817, -1349.450668) " points="157.855817 1341.57567 166.855817 1357.32567 148.855817 1357.32567"></polygon>
            <polygon id="Triangle-Copy-14" transform="translate(7.875000, 1491.000000) scale(1, -1) rotate(90.000000) translate(-7.875000, -1491.000000) " points="7.875 1483.125 16.875 1498.875 -1.125 1498.875"></polygon>
            <polygon id="Triangle-Copy-34" transform="translate(607.530900, 1488.697573) scale(1, -1) rotate(107.000000) translate(-607.530900, -1488.697573) " points="607.5309 1480.82257 616.5309 1496.57257 598.5309 1496.57257"></polygon>
            <polygon id="Triangle-Copy-39" transform="translate(757.194170, 1487.796949) scale(1, -1) rotate(114.000000) translate(-757.194170, -1487.796949) " points="757.19417 1479.92195 766.19417 1495.67195 748.19417 1495.67195"></polygon>
            <polygon id="Triangle-Copy-44" transform="translate(906.819950, 1487.062500) scale(1, -1) rotate(120.000000) translate(-906.819950, -1487.062500) " points="906.81995 1479.1875 915.81995 1494.9375 897.81995 1494.9375"></polygon>
            <polygon id="Triangle-Copy-49" transform="translate(1055.568466, 1485.431534) scale(1, -1) rotate(135.000000) translate(-1055.568466, -1485.431534) " points="1055.56847 1477.55653 1064.56847 1493.30653 1046.56847 1493.30653"></polygon>
            <polygon id="Triangle-Copy-54" transform="translate(1203.937500, 1484.180050) scale(1, -1) rotate(150.000000) translate(-1203.937500, -1484.180050) " points="1203.9375 1476.30505 1212.9375 1492.05505 1194.9375 1492.05505"></polygon>
            <polygon id="Triangle-Copy-59" transform="translate(1352.038200, 1483.393334) scale(1, -1) rotate(165.000000) translate(-1352.038200, -1483.393334) " points="1352.0382 1475.51833 1361.0382 1491.26833 1343.0382 1491.26833"></polygon>
            <polygon id="Triangle-Copy-29" transform="translate(457.702912, 1489.362695) scale(1, -1) rotate(102.000000) translate(-457.702912, -1489.362695) " points="457.702912 1481.4877 466.702912 1497.2377 448.702912 1497.2377"></polygon>
            <polygon id="Triangle-Copy-20" transform="translate(307.831860, 1490.176838) scale(1, -1) rotate(96.000000) translate(-307.831860, -1490.176838) " points="307.83186 1482.30184 316.83186 1498.05184 298.83186 1498.05184"></polygon>
            <polygon id="Triangle-Copy-15" transform="translate(157.855817, 1490.450668) scale(1, -1) rotate(94.000000) translate(-157.855817, -1490.450668) " points="157.855817 1482.57567 166.855817 1498.32567 148.855817 1498.32567"></polygon>
            <polygon id="Triangle-Copy" transform="translate(158.000000, 750.000000) rotate(90.000000) translate(-158.000000, -750.000000) " points="158 742.125 167 757.875 149 757.875"></polygon>
            <polygon id="Triangle-Copy-2" transform="translate(308.000000, 750.000000) rotate(90.000000) translate(-308.000000, -750.000000) " points="308 742.125 317 757.875 299 757.875"></polygon>
            <polygon id="Triangle-Copy-3" transform="translate(458.000000, 750.000000) rotate(90.000000) translate(-458.000000, -750.000000) " points="458 742.125 467 757.875 449 757.875"></polygon>
            <polygon id="Triangle-Copy-4" transform="translate(608.000000, 750.000000) rotate(90.000000) translate(-608.000000, -750.000000) " points="608 742.125 617 757.875 599 757.875"></polygon>
            <polygon id="Triangle-Copy-5" transform="translate(758.000000, 750.000000) rotate(90.000000) translate(-758.000000, -750.000000) " points="758 742.125 767 757.875 749 757.875"></polygon>
            <polygon id="Triangle-Copy-6" transform="translate(908.000000, 750.000000) rotate(90.000000) translate(-908.000000, -750.000000) " points="908 742.125 917 757.875 899 757.875"></polygon>
            <polygon id="Triangle-Copy-7" transform="translate(1058.000000, 750.000000) rotate(90.000000) translate(-1058.000000, -750.000000) " points="1058 742.125 1067 757.875 1049 757.875"></polygon>
            <polygon id="Triangle-Copy-8" transform="translate(1208.000000, 750.000000) rotate(90.000000) translate(-1208.000000, -750.000000) " points="1208 742.125 1217 757.875 1199 757.875"></polygon>
            <polygon id="Triangle-Copy-9" transform="translate(1358.000000, 750.000000) rotate(90.000000) translate(-1358.000000, -750.000000) " points="1358 742.125 1367 757.875 1349 757.875"></polygon>
            <polygon id="Triangle" transform="translate(2992.000000, 750.000000) scale(-1, 1) rotate(90.000000) translate(-2992.000000, -750.000000) " points="2992 742.125 3001 757.875 2983 757.875"></polygon>
            <polygon id="Triangle-Copy-10" transform="translate(2992.125000, 600.000000) scale(-1, 1) rotate(90.000000) translate(-2992.125000, -600.000000) " points="2992.125 592.125 3001.125 607.875 2983.125 607.875"></polygon>
            <polygon id="Triangle-Copy-30" transform="translate(2392.154967, 600.686351) scale(-1, 1) rotate(95.000000) translate(-2392.154967, -600.686351) " points="2392.15497 592.811351 2401.15497 608.561351 2383.15497 608.561351"></polygon>
            <polygon id="Triangle-Copy-35" transform="translate(2242.183699, 600.959721) scale(-1, 1) rotate(97.000000) translate(-2242.183699, -600.959721) " points="2242.1837 593.084721 2251.1837 608.834721 2233.1837 608.834721"></polygon>
            <polygon id="Triangle-Copy-40" transform="translate(2092.201639, 601.095988) scale(-1, 1) rotate(98.000000) translate(-2092.201639, -601.095988) " points="2092.20164 593.220988 2101.20164 608.970988 2083.20164 608.970988"></polygon>
            <polygon id="Triangle-Copy-45" transform="translate(1942.393334, 602.038200) scale(-1, 1) rotate(105.000000) translate(-1942.393334, -602.038200) " points="1942.39333 594.1632 1951.39333 609.9132 1933.39333 609.9132"></polygon>
            <polygon id="Triangle-Copy-50" transform="translate(1792.648054, 602.822148) scale(-1, 1) rotate(111.000000) translate(-1792.648054, -602.822148) " points="1792.64805 594.947148 1801.64805 610.697148 1783.64805 610.697148"></polygon>
            <polygon id="Triangle-Copy-67" transform="translate(1643.967400, 605.061952) scale(-1, 1) rotate(130.000000) translate(-1643.967400, -605.061952) " points="1643.9674 597.186952 1652.9674 612.936952 1634.9674 612.936952"></polygon>
            <polygon id="Triangle-Copy-25" transform="translate(2542.144183, 600.549332) scale(-1, 1) rotate(94.000000) translate(-2542.144183, -600.549332) " points="2542.14418 592.674332 2551.14418 608.424332 2533.14418 608.424332"></polygon>
            <polygon id="Triangle-Copy-24" transform="translate(2692.135792, 600.412146) scale(-1, 1) rotate(93.000000) translate(-2692.135792, -600.412146) " points="2692.13579 592.537146 2701.13579 608.287146 2683.13579 608.287146"></polygon>
            <polygon id="Triangle-Copy-19" transform="translate(2842.125000, 600.000000) scale(-1, 1) rotate(90.000000) translate(-2842.125000, -600.000000) " points="2842.125 592.125 2851.125 607.875 2833.125 607.875"></polygon>
            <polygon id="Triangle-Copy-11" transform="translate(2992.125000, 450.000000) scale(-1, 1) rotate(90.000000) translate(-2992.125000, -450.000000) " points="2992.125 442.125 3001.125 457.875 2983.125 457.875"></polygon>
            <polygon id="Triangle-Copy-31" transform="translate(2392.244639, 451.367479) scale(-1, 1) rotate(100.000000) translate(-2392.244639, -451.367479) " points="2392.24464 443.492479 2401.24464 459.242479 2383.24464 459.242479"></polygon>
            <polygon id="Triangle-Copy-36" transform="translate(2242.269686, 451.502621) scale(-1, 1) rotate(101.000000) translate(-2242.269686, -451.502621) " points="2242.26969 443.627621 2251.26969 459.377621 2233.26969 459.377621"></polygon>
            <polygon id="Triangle-Copy-41" transform="translate(2092.510430, 452.433509) scale(-1, 1) rotate(108.000000) translate(-2092.510430, -452.433509) " points="2092.51043 444.558509 2101.51043 460.308509 2083.51043 460.308509"></polygon>
            <polygon id="Triangle-Copy-46" transform="translate(1942.862826, 453.328119) scale(-1, 1) rotate(115.000000) translate(-1942.862826, -453.328119) " points="1942.86283 445.453119 1951.86283 461.203119 1933.86283 461.203119"></polygon>
            <polygon id="Triangle-Copy-51" transform="translate(1793.710745, 454.739293) scale(-1, 1) rotate(127.000000) translate(-1793.710745, -454.739293) " points="1793.71075 446.864293 1802.71075 462.614293 1784.71075 462.614293"></polygon>
            <polygon id="Triangle-Copy-68" transform="translate(1645.826886, 456.678379) scale(-1, 1) rotate(148.000000) translate(-1645.826886, -456.678379) " points="1645.82689 448.803379 1654.82689 464.553379 1636.82689 464.553379"></polygon>
            <polygon id="Triangle-Copy-26" transform="translate(2542.183699, 450.959721) scale(-1, 1) rotate(97.000000) translate(-2542.183699, -450.959721) " points="2542.1837 443.084721 2551.1837 458.834721 2533.1837 458.834721"></polygon>
            <polygon id="Triangle-Copy-23" transform="translate(2692.144183, 450.549332) scale(-1, 1) rotate(94.000000) translate(-2692.144183, -450.549332) " points="2692.14418 442.674332 2701.14418 458.424332 2683.14418 458.424332"></polygon>
            <polygon id="Triangle-Copy-18" transform="translate(2842.126199, 450.137438) scale(-1, 1) rotate(91.000000) translate(-2842.126199, -450.137438) " points="2842.1262 442.262438 2851.1262 458.012438 2833.1262 458.012438"></polygon>
            <polygon id="Triangle-Copy-12" transform="translate(2992.125000, 300.000000) scale(-1, 1) rotate(90.000000) translate(-2992.125000, -300.000000) " points="2992.125 292.125 3001.125 307.875 2983.125 307.875"></polygon>
            <polygon id="Triangle-Copy-32" transform="translate(2392.269686, 301.502621) scale(-1, 1) rotate(101.000000) translate(-2392.269686, -301.502621) " points="2392.26969 293.627621 2401.26969 309.377621 2383.26969 309.377621"></polygon>
            <polygon id="Triangle-Copy-37" transform="translate(2242.469100, 302.302427) scale(-1, 1) rotate(107.000000) translate(-2242.469100, -302.302427) " points="2242.4691 294.427427 2251.4691 310.177427 2233.4691 310.177427"></polygon>
            <polygon id="Triangle-Copy-42" transform="translate(2092.805830, 303.203051) scale(-1, 1) rotate(114.000000) translate(-2092.805830, -303.203051) " points="2092.80583 295.328051 2101.80583 311.078051 2083.80583 311.078051"></polygon>
            <polygon id="Triangle-Copy-47" transform="translate(1943.395469, 304.289032) scale(-1, 1) rotate(123.000000) translate(-1943.395469, -304.289032) " points="1943.39547 296.414032 1952.39547 312.164032 1934.39547 312.164032"></polygon>
            <polygon id="Triangle-Copy-52" transform="translate(1794.730596, 305.852266) scale(-1, 1) rotate(138.000000) translate(-1794.730596, -305.852266) " points="1794.7306 297.977266 1803.7306 313.727266 1785.7306 313.727266"></polygon>
            <polygon id="Triangle-Copy-69" transform="translate(1646.922992, 307.248976) scale(-1, 1) rotate(157.000000) translate(-1646.922992, -307.248976) " points="1646.92299 299.373976 1655.92299 315.123976 1637.92299 315.123976"></polygon>
            <polygon id="Triangle-Copy-27" transform="translate(2542.183699, 300.959721) scale(-1, 1) rotate(97.000000) translate(-2542.183699, -300.959721) " points="2542.1837 293.084721 2551.1837 308.834721 2533.1837 308.834721"></polygon>
            <polygon id="Triangle-Copy-22" transform="translate(2692.154967, 300.686351) scale(-1, 1) rotate(95.000000) translate(-2692.154967, -300.686351) " points="2692.15497 292.811351 2701.15497 308.561351 2683.15497 308.561351"></polygon>
            <polygon id="Triangle-Copy-17" transform="translate(2842.144183, 300.549332) scale(-1, 1) rotate(94.000000) translate(-2842.144183, -300.549332) " points="2842.14418 292.674332 2851.14418 308.424332 2833.14418 308.424332"></polygon>
            <polygon id="Triangle-Copy-13" transform="translate(2992.125000, 150.000000) scale(-1, 1) rotate(90.000000) translate(-2992.125000, -150.000000) " points="2992.125 142.125 3001.125 157.875 2983.125 157.875"></polygon>
            <polygon id="Triangle-Copy-33" transform="translate(2392.430064, 152.170644) scale(-1, 1) rotate(106.000000) translate(-2392.430064, -152.170644) " points="2392.43006 144.295644 2401.43006 160.045644 2383.43006 160.045644"></polygon>
            <polygon id="Triangle-Copy-38" transform="translate(2242.554041, 152.563849) scale(-1, 1) rotate(109.000000) translate(-2242.554041, -152.563849) " points="2242.55404 144.688849 2251.55404 160.438849 2233.55404 160.438849"></polygon>
            <polygon id="Triangle-Copy-43" transform="translate(2093.180050, 153.937500) scale(-1, 1) rotate(120.000000) translate(-2093.180050, -153.937500) " points="2093.18005 146.0625 2102.18005 161.8125 2084.18005 161.8125"></polygon>
            <polygon id="Triangle-Copy-48" transform="translate(1943.879976, 154.955898) scale(-1, 1) rotate(129.000000) translate(-1943.879976, -154.955898) " points="1943.87998 147.080898 1952.87998 162.830898 1934.87998 162.830898"></polygon>
            <polygon id="Triangle-Copy-53" transform="translate(1795.596356, 156.528671) scale(-1, 1) rotate(146.000000) translate(-1795.596356, -156.528671) " points="1795.59636 148.653671 1804.59636 164.403671 1786.59636 164.403671"></polygon>
            <polygon id="Triangle-Copy-58" transform="translate(1647.436151, 157.445959) scale(-1, 1) rotate(161.000000) translate(-1647.436151, -157.445959) " points="1647.43615 149.570959 1656.43615 165.320959 1638.43615 165.320959"></polygon>
            <polygon id="Triangle-Copy-28" transform="translate(2542.244639, 151.367479) scale(-1, 1) rotate(100.000000) translate(-2542.244639, -151.367479) " points="2542.24464 143.492479 2551.24464 159.242479 2533.24464 159.242479"></polygon>
            <polygon id="Triangle-Copy-21" transform="translate(2692.154967, 150.686351) scale(-1, 1) rotate(95.000000) translate(-2692.154967, -150.686351) " points="2692.15497 142.811351 2701.15497 158.561351 2683.15497 158.561351"></polygon>
            <polygon id="Triangle-Copy-16" transform="translate(2842.144183, 150.549332) scale(-1, 1) rotate(94.000000) translate(-2842.144183, -150.549332) " points="2842.14418 142.674332 2851.14418 158.424332 2833.14418 158.424332"></polygon>
            <polygon id="Triangle-Copy-14" transform="translate(2992.125000, 9.000000) scale(-1, 1) rotate(90.000000) translate(-2992.125000, -9.000000) " points="2992.125 1.125 3001.125 16.875 2983.125 16.875"></polygon>
            <polygon id="Triangle-Copy-34" transform="translate(2392.469100, 11.302427) scale(-1, 1) rotate(107.000000) translate(-2392.469100, -11.302427) " points="2392.4691 3.42742717 2401.4691 19.1774272 2383.4691 19.1774272"></polygon>
            <polygon id="Triangle-Copy-39" transform="translate(2242.805830, 12.203051) scale(-1, 1) rotate(114.000000) translate(-2242.805830, -12.203051) " points="2242.80583 4.32805106 2251.80583 20.0780511 2233.80583 20.0780511"></polygon>
            <polygon id="Triangle-Copy-44" transform="translate(2093.180050, 12.937500) scale(-1, 1) rotate(120.000000) translate(-2093.180050, -12.937500) " points="2093.18005 5.0625 2102.18005 20.8125 2084.18005 20.8125"></polygon>
            <polygon id="Triangle-Copy-49" transform="translate(1944.431534, 14.568466) scale(-1, 1) rotate(135.000000) translate(-1944.431534, -14.568466) " points="1944.43153 6.6934659 1953.43153 22.4434659 1935.43153 22.4434659"></polygon>
            <polygon id="Triangle-Copy-54" transform="translate(1796.062500, 15.819950) scale(-1, 1) rotate(150.000000) translate(-1796.062500, -15.819950) " points="1796.0625 7.94495005 1805.0625 23.6949501 1787.0625 23.6949501"></polygon>
            <polygon id="Triangle-Copy-59" transform="translate(1647.961800, 16.606666) scale(-1, 1) rotate(165.000000) translate(-1647.961800, -16.606666) " points="1647.9618 8.73166588 1656.9618 24.4816659 1638.9618 24.4816659"></polygon>
            <polygon id="Triangle-Copy-29" transform="translate(2542.297088, 10.637305) scale(-1, 1) rotate(102.000000) translate(-2542.297088, -10.637305) " points="2542.29709 2.76230457 2551.29709 18.5123046 2533.29709 18.5123046"></polygon>
            <polygon id="Triangle-Copy-20" transform="translate(2692.168140, 9.823162) scale(-1, 1) rotate(96.000000) translate(-2692.168140, -9.823162) " points="2692.16814 1.94816165 2701.16814 17.6981616 2683.16814 17.6981616"></polygon>
            <polygon id="Triangle-Copy-15" transform="translate(2842.144183, 9.549332) scale(-1, 1) rotate(94.000000) translate(-2842.144183, -9.549332) " points="2842.14418 1.67433223 2851.14418 17.4243322 2833.14418 17.4243322"></polygon>
            <polygon id="Triangle-Copy-10" transform="translate(2992.125000, 900.000000) scale(-1, -1) rotate(90.000000) translate(-2992.125000, -900.000000) " points="2992.125 892.125 3001.125 907.875 2983.125 907.875"></polygon>
            <polygon id="Triangle-Copy-30" transform="translate(2392.154967, 899.313649) scale(-1, -1) rotate(95.000000) translate(-2392.154967, -899.313649) " points="2392.15497 891.438649 2401.15497 907.188649 2383.15497 907.188649"></polygon>
            <polygon id="Triangle-Copy-35" transform="translate(2242.183699, 899.040279) scale(-1, -1) rotate(97.000000) translate(-2242.183699, -899.040279) " points="2242.1837 891.165279 2251.1837 906.915279 2233.1837 906.915279"></polygon>
            <polygon id="Triangle-Copy-40" transform="translate(2092.201639, 898.904012) scale(-1, -1) rotate(98.000000) translate(-2092.201639, -898.904012) " points="2092.20164 891.029012 2101.20164 906.779012 2083.20164 906.779012"></polygon>
            <polygon id="Triangle-Copy-45" transform="translate(1942.393334, 897.961800) scale(-1, -1) rotate(105.000000) translate(-1942.393334, -897.961800) " points="1942.39333 890.0868 1951.39333 905.8368 1933.39333 905.8368"></polygon>
            <polygon id="Triangle-Copy-50" transform="translate(1792.648054, 897.177852) scale(-1, -1) rotate(111.000000) translate(-1792.648054, -897.177852) " points="1792.64805 889.302852 1801.64805 905.052852 1783.64805 905.052852"></polygon>
            <polygon id="Triangle-Copy-67" transform="translate(1643.967400, 894.938048) scale(-1, -1) rotate(130.000000) translate(-1643.967400, -894.938048) " points="1643.9674 887.063048 1652.9674 902.813048 1634.9674 902.813048"></polygon>
            <polygon id="Triangle-Copy-25" transform="translate(2542.144183, 899.450668) scale(-1, -1) rotate(94.000000) translate(-2542.144183, -899.450668) " points="2542.14418 891.575668 2551.14418 907.325668 2533.14418 907.325668"></polygon>
            <polygon id="Triangle-Copy-24" transform="translate(2692.135792, 899.587854) scale(-1, -1) rotate(93.000000) translate(-2692.135792, -899.587854) " points="2692.13579 891.712854 2701.13579 907.462854 2683.13579 907.462854"></polygon>
            <polygon id="Triangle-Copy-19" transform="translate(2842.125000, 900.000000) scale(-1, -1) rotate(90.000000) translate(-2842.125000, -900.000000) " points="2842.125 892.125 2851.125 907.875 2833.125 907.875"></polygon>
            <polygon id="Triangle-Copy-11" transform="translate(2992.125000, 1050.000000) scale(-1, -1) rotate(90.000000) translate(-2992.125000, -1050.000000) " points="2992.125 1042.125 3001.125 1057.875 2983.125 1057.875"></polygon>
            <polygon id="Triangle-Copy-31" transform="translate(2392.244639, 1048.632521) scale(-1, -1) rotate(100.000000) translate(-2392.244639, -1048.632521) " points="2392.24464 1040.75752 2401.24464 1056.50752 2383.24464 1056.50752"></polygon>
            <polygon id="Triangle-Copy-36" transform="translate(2242.269686, 1048.497379) scale(-1, -1) rotate(101.000000) translate(-2242.269686, -1048.497379) " points="2242.26969 1040.62238 2251.26969 1056.37238 2233.26969 1056.37238"></polygon>
            <polygon id="Triangle-Copy-41" transform="translate(2092.510430, 1047.566491) scale(-1, -1) rotate(108.000000) translate(-2092.510430, -1047.566491) " points="2092.51043 1039.69149 2101.51043 1055.44149 2083.51043 1055.44149"></polygon>
            <polygon id="Triangle-Copy-46" transform="translate(1942.862826, 1046.671881) scale(-1, -1) rotate(115.000000) translate(-1942.862826, -1046.671881) " points="1942.86283 1038.79688 1951.86283 1054.54688 1933.86283 1054.54688"></polygon>
            <polygon id="Triangle-Copy-51" transform="translate(1793.710745, 1045.260707) scale(-1, -1) rotate(127.000000) translate(-1793.710745, -1045.260707) " points="1793.71075 1037.38571 1802.71075 1053.13571 1784.71075 1053.13571"></polygon>
            <polygon id="Triangle-Copy-68" transform="translate(1645.826886, 1043.321621) scale(-1, -1) rotate(148.000000) translate(-1645.826886, -1043.321621) " points="1645.82689 1035.44662 1654.82689 1051.19662 1636.82689 1051.19662"></polygon>
            <polygon id="Triangle-Copy-26" transform="translate(2542.183699, 1049.040279) scale(-1, -1) rotate(97.000000) translate(-2542.183699, -1049.040279) " points="2542.1837 1041.16528 2551.1837 1056.91528 2533.1837 1056.91528"></polygon>
            <polygon id="Triangle-Copy-23" transform="translate(2692.144183, 1049.450668) scale(-1, -1) rotate(94.000000) translate(-2692.144183, -1049.450668) " points="2692.14418 1041.57567 2701.14418 1057.32567 2683.14418 1057.32567"></polygon>
            <polygon id="Triangle-Copy-18" transform="translate(2842.126199, 1049.862562) scale(-1, -1) rotate(91.000000) translate(-2842.126199, -1049.862562) " points="2842.1262 1041.98756 2851.1262 1057.73756 2833.1262 1057.73756"></polygon>
            <polygon id="Triangle-Copy-12" transform="translate(2992.125000, 1200.000000) scale(-1, -1) rotate(90.000000) translate(-2992.125000, -1200.000000) " points="2992.125 1192.125 3001.125 1207.875 2983.125 1207.875"></polygon>
            <polygon id="Triangle-Copy-32" transform="translate(2392.269686, 1198.497379) scale(-1, -1) rotate(101.000000) translate(-2392.269686, -1198.497379) " points="2392.26969 1190.62238 2401.26969 1206.37238 2383.26969 1206.37238"></polygon>
            <polygon id="Triangle-Copy-37" transform="translate(2242.469100, 1197.697573) scale(-1, -1) rotate(107.000000) translate(-2242.469100, -1197.697573) " points="2242.4691 1189.82257 2251.4691 1205.57257 2233.4691 1205.57257"></polygon>
            <polygon id="Triangle-Copy-42" transform="translate(2092.805830, 1196.796949) scale(-1, -1) rotate(114.000000) translate(-2092.805830, -1196.796949) " points="2092.80583 1188.92195 2101.80583 1204.67195 2083.80583 1204.67195"></polygon>
            <polygon id="Triangle-Copy-47" transform="translate(1943.395469, 1195.710968) scale(-1, -1) rotate(123.000000) translate(-1943.395469, -1195.710968) " points="1943.39547 1187.83597 1952.39547 1203.58597 1934.39547 1203.58597"></polygon>
            <polygon id="Triangle-Copy-52" transform="translate(1794.730596, 1194.147734) scale(-1, -1) rotate(138.000000) translate(-1794.730596, -1194.147734) " points="1794.7306 1186.27273 1803.7306 1202.02273 1785.7306 1202.02273"></polygon>
            <polygon id="Triangle-Copy-69" transform="translate(1646.922992, 1192.751024) scale(-1, -1) rotate(157.000000) translate(-1646.922992, -1192.751024) " points="1646.92299 1184.87602 1655.92299 1200.62602 1637.92299 1200.62602"></polygon>
            <polygon id="Triangle-Copy-27" transform="translate(2542.183699, 1199.040279) scale(-1, -1) rotate(97.000000) translate(-2542.183699, -1199.040279) " points="2542.1837 1191.16528 2551.1837 1206.91528 2533.1837 1206.91528"></polygon>
            <polygon id="Triangle-Copy-22" transform="translate(2692.154967, 1199.313649) scale(-1, -1) rotate(95.000000) translate(-2692.154967, -1199.313649) " points="2692.15497 1191.43865 2701.15497 1207.18865 2683.15497 1207.18865"></polygon>
            <polygon id="Triangle-Copy-17" transform="translate(2842.144183, 1199.450668) scale(-1, -1) rotate(94.000000) translate(-2842.144183, -1199.450668) " points="2842.14418 1191.57567 2851.14418 1207.32567 2833.14418 1207.32567"></polygon>
            <polygon id="Triangle-Copy-13" transform="translate(2992.125000, 1350.000000) scale(-1, -1) rotate(90.000000) translate(-2992.125000, -1350.000000) " points="2992.125 1342.125 3001.125 1357.875 2983.125 1357.875"></polygon>
            <polygon id="Triangle-Copy-33" transform="translate(2392.430064, 1347.829356) scale(-1, -1) rotate(106.000000) translate(-2392.430064, -1347.829356) " points="2392.43006 1339.95436 2401.43006 1355.70436 2383.43006 1355.70436"></polygon>
            <polygon id="Triangle-Copy-38" transform="translate(2242.554041, 1347.436151) scale(-1, -1) rotate(109.000000) translate(-2242.554041, -1347.436151) " points="2242.55404 1339.56115 2251.55404 1355.31115 2233.55404 1355.31115"></polygon>
            <polygon id="Triangle-Copy-43" transform="translate(2093.180050, 1346.062500) scale(-1, -1) rotate(120.000000) translate(-2093.180050, -1346.062500) " points="2093.18005 1338.1875 2102.18005 1353.9375 2084.18005 1353.9375"></polygon>
            <polygon id="Triangle-Copy-48" transform="translate(1943.879976, 1345.044102) scale(-1, -1) rotate(129.000000) translate(-1943.879976, -1345.044102) " points="1943.87998 1337.1691 1952.87998 1352.9191 1934.87998 1352.9191"></polygon>
            <polygon id="Triangle-Copy-53" transform="translate(1795.596356, 1343.471329) scale(-1, -1) rotate(146.000000) translate(-1795.596356, -1343.471329) " points="1795.59636 1335.59633 1804.59636 1351.34633 1786.59636 1351.34633"></polygon>
            <polygon id="Triangle-Copy-58" transform="translate(1647.436151, 1342.554041) scale(-1, -1) rotate(161.000000) translate(-1647.436151, -1342.554041) " points="1647.43615 1334.67904 1656.43615 1350.42904 1638.43615 1350.42904"></polygon>
            <polygon id="Triangle-Copy-28" transform="translate(2542.244639, 1348.632521) scale(-1, -1) rotate(100.000000) translate(-2542.244639, -1348.632521) " points="2542.24464 1340.75752 2551.24464 1356.50752 2533.24464 1356.50752"></polygon>
            <polygon id="Triangle-Copy-21" transform="translate(2692.154967, 1349.313649) scale(-1, -1) rotate(95.000000) translate(-2692.154967, -1349.313649) " points="2692.15497 1341.43865 2701.15497 1357.18865 2683.15497 1357.18865"></polygon>
            <polygon id="Triangle-Copy-16" transform="translate(2842.144183, 1349.450668) scale(-1, -1) rotate(94.000000) translate(-2842.144183, -1349.450668) " points="2842.14418 1341.57567 2851.14418 1357.32567 2833.14418 1357.32567"></polygon>
            <polygon id="Triangle-Copy-14" transform="translate(2992.125000, 1491.000000) scale(-1, -1) rotate(90.000000) translate(-2992.125000, -1491.000000) " points="2992.125 1483.125 3001.125 1498.875 2983.125 1498.875"></polygon>
            <polygon id="Triangle-Copy-34" transform="translate(2392.469100, 1488.697573) scale(-1, -1) rotate(107.000000) translate(-2392.469100, -1488.697573) " points="2392.4691 1480.82257 2401.4691 1496.57257 2383.4691 1496.57257"></polygon>
            <polygon id="Triangle-Copy-39" transform="translate(2242.805830, 1487.796949) scale(-1, -1) rotate(114.000000) translate(-2242.805830, -1487.796949) " points="2242.80583 1479.92195 2251.80583 1495.67195 2233.80583 1495.67195"></polygon>
            <polygon id="Triangle-Copy-44" transform="translate(2093.180050, 1487.062500) scale(-1, -1) rotate(120.000000) translate(-2093.180050, -1487.062500) " points="2093.18005 1479.1875 2102.18005 1494.9375 2084.18005 1494.9375"></polygon>
            <polygon id="Triangle-Copy-49" transform="translate(1944.431534, 1485.431534) scale(-1, -1) rotate(135.000000) translate(-1944.431534, -1485.431534) " points="1944.43153 1477.55653 1953.43153 1493.30653 1935.43153 1493.30653"></polygon>
            <polygon id="Triangle-Copy-54" transform="translate(1796.062500, 1484.180050) scale(-1, -1) rotate(150.000000) translate(-1796.062500, -1484.180050) " points="1796.0625 1476.30505 1805.0625 1492.05505 1787.0625 1492.05505"></polygon>
            <polygon id="Triangle-Copy-59" transform="translate(1647.961800, 1483.393334) scale(-1, -1) rotate(165.000000) translate(-1647.961800, -1483.393334) " points="1647.9618 1475.51833 1656.9618 1491.26833 1638.9618 1491.26833"></polygon>
            <polygon id="Triangle-Copy-29" transform="translate(2542.297088, 1489.362695) scale(-1, -1) rotate(102.000000) translate(-2542.297088, -1489.362695) " points="2542.29709 1481.4877 2551.29709 1497.2377 2533.29709 1497.2377"></polygon>
            <polygon id="Triangle-Copy-20" transform="translate(2692.168140, 1490.176838) scale(-1, -1) rotate(96.000000) translate(-2692.168140, -1490.176838) " points="2692.16814 1482.30184 2701.16814 1498.05184 2683.16814 1498.05184"></polygon>
            <polygon id="Triangle-Copy-15" transform="translate(2842.144183, 1490.450668) scale(-1, -1) rotate(94.000000) translate(-2842.144183, -1490.450668) " points="2842.14418 1482.57567 2851.14418 1498.32567 2833.14418 1498.32567"></polygon>
            <polygon id="Triangle-Copy" transform="translate(2842.000000, 750.000000) scale(-1, 1) rotate(90.000000) translate(-2842.000000, -750.000000) " points="2842 742.125 2851 757.875 2833 757.875"></polygon>
            <polygon id="Triangle-Copy-2" transform="translate(2692.000000, 750.000000) scale(-1, 1) rotate(90.000000) translate(-2692.000000, -750.000000) " points="2692 742.125 2701 757.875 2683 757.875"></polygon>
            <polygon id="Triangle-Copy-3" transform="translate(2542.000000, 750.000000) scale(-1, 1) rotate(90.000000) translate(-2542.000000, -750.000000) " points="2542 742.125 2551 757.875 2533 757.875"></polygon>
            <polygon id="Triangle-Copy-4" transform="translate(2392.000000, 750.000000) scale(-1, 1) rotate(90.000000) translate(-2392.000000, -750.000000) " points="2392 742.125 2401 757.875 2383 757.875"></polygon>
            <polygon id="Triangle-Copy-5" transform="translate(2242.000000, 750.000000) scale(-1, 1) rotate(90.000000) translate(-2242.000000, -750.000000) " points="2242 742.125 2251 757.875 2233 757.875"></polygon>
            <polygon id="Triangle-Copy-6" transform="translate(2092.000000, 750.000000) scale(-1, 1) rotate(90.000000) translate(-2092.000000, -750.000000) " points="2092 742.125 2101 757.875 2083 757.875"></polygon>
            <polygon id="Triangle-Copy-7" transform="translate(1942.000000, 750.000000) scale(-1, 1) rotate(90.000000) translate(-1942.000000, -750.000000) " points="1942 742.125 1951 757.875 1933 757.875"></polygon>
            <polygon id="Triangle-Copy-8" transform="translate(1792.000000, 750.000000) scale(-1, 1) rotate(90.000000) translate(-1792.000000, -750.000000) " points="1792 742.125 1801 757.875 1783 757.875"></polygon>
            <polygon id="Triangle-Copy-9" transform="translate(1642.000000, 750.000000) scale(-1, 1) rotate(90.000000) translate(-1642.000000, -750.000000) " points="1642 742.125 1651 757.875 1633 757.875"></polygon>
            <polygon id="Triangle-Copy-60" transform="translate(1500.000000, 16.875000) rotate(180.000000) translate(-1500.000000, -16.875000) " points="1500 9 1509 24.75 1491 24.75"></polygon>
            <polygon id="Triangle-Copy-61" transform="translate(1500.000000, 157.875000) rotate(180.000000) translate(-1500.000000, -157.875000) " points="1500 150 1509 165.75 1491 165.75"></polygon>
            <polygon id="Triangle-Copy-70" transform="translate(1500.000000, 307.875000) rotate(180.000000) translate(-1500.000000, -307.875000) " points="1500 300 1509 315.75 1491 315.75"></polygon>
            <polygon id="Triangle-Copy-71" transform="translate(1500.000000, 457.875000) rotate(180.000000) translate(-1500.000000, -457.875000) " points="1500 450 1509 465.75 1491 465.75"></polygon>
            <polygon id="Triangle-Copy-72" transform="translate(1500.000000, 607.875000) rotate(180.000000) translate(-1500.000000, -607.875000) " points="1500 600 1509 615.75 1491 615.75"></polygon>
            <polygon id="Triangle-Copy-60" transform="translate(1500.000000, 1483.125000) scale(1, -1) rotate(180.000000) translate(-1500.000000, -1483.125000) " points="1500 1475.25 1509 1491 1491 1491"></polygon>
            <polygon id="Triangle-Copy-61" transform="translate(1500.000000, 1342.125000) scale(1, -1) rotate(180.000000) translate(-1500.000000, -1342.125000) " points="1500 1334.25 1509 1350 1491 1350"></polygon>
            <polygon id="Triangle-Copy-70" transform="translate(1500.000000, 1192.125000) scale(1, -1) rotate(180.000000) translate(-1500.000000, -1192.125000) " points="1500 1184.25 1509 1200 1491 1200"></polygon>
            <polygon id="Triangle-Copy-71" transform="translate(1500.000000, 1042.125000) scale(1, -1) rotate(180.000000) translate(-1500.000000, -1042.125000) " points="1500 1034.25 1509 1050 1491 1050"></polygon>
            <polygon id="Triangle-Copy-72" transform="translate(1500.000000, 892.125000) scale(1, -1) rotate(180.000000) translate(-1500.000000, -892.125000) " points="1500 884.25 1509 900 1491 900"></polygon>
        </g>
    </g>
</svg>