<?xml version="1.0" encoding="UTF-8"?>
<svg width="3000px" height="1500px" viewBox="0 0 3000 1500" version="1.1" xmlns="http://www.w3.org/2000/svg" xmlns:xlink="http://www.w3.org/1999/xlink">
    <!-- Generator: Sketch 52.5 (67469) - http://www.bohemiancoding.com/sketch -->
    <title>repo-banner</title>
    <desc>Created with Sketch.</desc>
    <defs>
        <path d="M0.359033478,50.8094438 C0.274802583,49.6587656 0.232644928,48.5053925 0.232644928,47.351634 C0.232644928,21.2000487 21.4273427,-5.68434189e-14 47.5723275,-5.68434189e-14 L418.409657,-5.68434189e-14 C419.562358,-5.68434189e-14 420.714674,0.0421122523 421.864301,0.126252545 C447.939576,2.03468118 467.531066,24.7252917 465.623119,50.8071497 L435.957698,456.336921 C434.655651,474.136067 423.459127,489.691062 406.996392,496.571997 L251.286406,561.654157 C239.587396,566.543996 226.416284,566.535204 214.723809,561.62975 L58.9265417,496.266648 C42.4947395,489.372858 31.3248798,473.833842 30.0236888,456.058273 L0.359033478,50.8094438 Z M155.044914,240.175878 L213.90436,139.645222 C206.279301,137.04641 199.354371,132.934333 193.487371,127.666883 L134.666517,228.131623 C142.281847,230.754762 149.193976,234.888874 155.044914,240.175878 Z M272.370505,441.165404 L331.513884,340.149798 C323.888825,337.550985 316.963895,333.438908 311.096895,328.171459 L251.914918,429.252988 C259.549723,431.827452 266.487459,435.917494 272.370505,441.165404 Z M292.618627,272.271895 L173.381373,272.271895 C174.1576,276.096841 174.565079,280.055725 174.565079,284.109804 C174.565079,288.163883 174.1576,292.122767 173.381373,295.947712 L292.618627,295.947712 C291.8424,292.122767 291.434921,288.163883 291.434921,284.109804 C291.434921,280.055725 291.8424,276.096841 292.618627,272.271895 Z M233,130.956863 C259.144985,130.956863 280.339683,109.756814 280.339683,83.6052288 C280.339683,57.4536434 259.144985,36.2535948 233,36.2535948 C206.855015,36.2535948 185.660317,57.4536434 185.660317,83.6052288 C185.660317,109.756814 206.855015,130.956863 233,130.956863 Z M233,107.281046 C219.927508,107.281046 209.330159,96.6810214 209.330159,83.6052288 C209.330159,70.5294361 219.927508,59.9294118 233,59.9294118 C246.072492,59.9294118 256.669841,70.5294361 256.669841,83.6052288 C256.669841,96.6810214 246.072492,107.281046 233,107.281046 Z M115.390476,331.461438 C141.535461,331.461438 162.730159,310.261389 162.730159,284.109804 C162.730159,257.958219 141.535461,236.75817 115.390476,236.75817 C89.2454915,236.75817 68.0507937,257.958219 68.0507937,284.109804 C68.0507937,310.261389 89.2454915,331.461438 115.390476,331.461438 Z M115.390476,307.785621 C102.317984,307.785621 91.7206349,297.185597 91.7206349,284.109804 C91.7206349,271.034011 102.317984,260.433987 115.390476,260.433987 C128.462969,260.433987 139.060317,271.034011 139.060317,284.109804 C139.060317,297.185597 128.462969,307.785621 115.390476,307.785621 Z M350.609524,331.461438 C376.754509,331.461438 397.949206,310.261389 397.949206,284.109804 C397.949206,257.958219 376.754509,236.75817 350.609524,236.75817 C324.464539,236.75817 303.269841,257.958219 303.269841,284.109804 C303.269841,310.261389 324.464539,331.461438 350.609524,331.461438 Z M350.609524,307.785621 C337.537031,307.785621 326.939683,297.185597 326.939683,284.109804 C326.939683,271.034011 337.537031,260.433987 350.609524,260.433987 C363.682016,260.433987 374.279365,271.034011 374.279365,284.109804 C374.279365,297.185597 363.682016,307.785621 350.609524,307.785621 Z M233,532.705882 C259.144985,532.705882 280.339683,511.505834 280.339683,485.354248 C280.339683,459.202663 259.144985,438.002614 233,438.002614 C206.855015,438.002614 185.660317,459.202663 185.660317,485.354248 C185.660317,511.505834 206.855015,532.705882 233,532.705882 Z M233,509.030065 C219.927508,509.030065 209.330159,498.430041 209.330159,485.354248 C209.330159,472.278456 219.927508,461.678431 233,461.678431 C246.072492,461.678431 256.669841,472.278456 256.669841,485.354248 C256.669841,498.430041 246.072492,509.030065 233,509.030065 Z" id="path-1"></path>
    </defs>
    <g id="repo-banner" stroke="none" stroke-width="1" fill="none" fill-rule="evenodd">
        <g id="triangles" transform="translate(-1.000000, 0.000000)" fill="#9E9E9E" fill-opacity="0.25" fill-rule="nonzero">
            <polygon id="Triangle" transform="translate(8.500000, 747.375000) rotate(90.000000) translate(-8.500000, -747.375000) " points="8.5 739.5 17.5 755.25 -0.5 755.25"></polygon>
            <polygon id="Triangle-Copy-10" transform="translate(8.500000, 598.375000) rotate(90.000000) translate(-8.500000, -598.375000) " points="8.5 590.5 17.5 606.25 -0.5 606.25"></polygon>
            <polygon id="Triangle-Copy-30" transform="translate(608.397815, 598.836318) rotate(98.000000) translate(-608.397815, -598.836318) " points="608.397815 590.961318 617.397815 606.711318 599.397815 606.711318"></polygon>
            <polygon id="Triangle-Copy-35" transform="translate(758.340481, 599.198306) rotate(100.000000) translate(-758.340481, -599.198306) " points="758.340481 591.323306 767.340481 607.073306 749.340481 607.073306"></polygon>
            <polygon id="Triangle-Copy-40" transform="translate(908.270550, 599.558073) rotate(102.000000) translate(-908.270550, -599.558073) " points="908.27055 591.683073 917.27055 607.433073 899.27055 607.433073"></polygon>
            <polygon id="Triangle-Copy-45" transform="translate(1058.142221, 600.092600) rotate(105.000000) translate(-1058.142221, -600.092600) " points="1058.14222 592.2176 1067.14222 607.9676 1049.14222 607.9676"></polygon>
            <polygon id="Triangle-Copy-50" transform="translate(1207.802594, 602.137863) rotate(111.000000) translate(-1207.802594, -602.137863) " points="1207.80259 594.262863 1216.80259 610.012863 1198.80259 610.012863"></polygon>
            <polygon id="Triangle-Copy-25" transform="translate(458.897815, 598.336318) rotate(98.000000) translate(-458.897815, -598.336318) " points="458.897815 590.461318 467.897815 606.211318 449.897815 606.211318"></polygon>
            <polygon id="Triangle-Copy-24" transform="translate(308.493604, 597.741445) rotate(92.000000) translate(-308.493604, -597.741445) " points="308.493604 589.866445 317.493604 605.616445 299.493604 605.616445"></polygon>
            <polygon id="Triangle-Copy-19" transform="translate(158.498401, 597.558250) rotate(91.000000) translate(-158.498401, -597.558250) " points="158.498401 589.68325 167.498401 605.43325 149.498401 605.43325"></polygon>
            <polygon id="Triangle-Copy-11" transform="translate(8.500000, 447.375000) rotate(90.000000) translate(-8.500000, -447.375000) " points="8.5 439.5 17.5 455.25 -0.5 455.25"></polygon>
            <polygon id="Triangle-Copy-31" transform="translate(607.927945, 449.793466) rotate(109.000000) translate(-607.927945, -449.793466) " points="607.927945 441.918466 616.927945 457.668466 598.927945 457.668466"></polygon>
            <polygon id="Triangle-Copy-36" transform="translate(757.866773, 450.966212) rotate(110.000000) translate(-757.866773, -450.966212) " points="757.866773 443.091212 766.866773 458.841212 748.866773 458.841212"></polygon>
            <polygon id="Triangle-Copy-41" transform="translate(907.665301, 451.477677) rotate(113.000000) translate(-907.665301, -451.477677) " points="907.665301 443.602677 916.665301 459.352677 898.665301 459.352677"></polygon>
            <polygon id="Triangle-Copy-46" transform="translate(1057.270950, 453.304451) rotate(118.000000) translate(-1057.270950, -453.304451) " points="1057.27095 445.429451 1066.27095 461.179451 1048.27095 461.179451"></polygon>
            <polygon id="Triangle-Copy-51" transform="translate(1205.924451, 455.263620) rotate(131.000000) translate(-1205.924451, -455.263620) " points="1205.92445 447.38862 1214.92445 463.13862 1196.92445 463.13862"></polygon>
            <polygon id="Triangle-Copy-26" transform="translate(458.807085, 447.878494) rotate(101.000000) translate(-458.807085, -447.878494) " points="458.807085 440.003494 467.807085 455.753494 449.807085 455.753494"></polygon>
            <polygon id="Triangle-Copy-23" transform="translate(308.460044, 448.290135) rotate(95.000000) translate(-308.460044, -448.290135) " points="308.460044 440.415135 317.460044 456.165135 299.460044 456.165135"></polygon>
            <polygon id="Triangle-Copy-18" transform="translate(158.485610, 447.924528) rotate(93.000000) translate(-158.485610, -447.924528) " points="158.48561 440.049528 167.48561 455.799528 149.48561 455.799528"></polygon>
            <polygon id="Triangle-Copy-12" transform="translate(8.500000, 297.375000) rotate(90.000000) translate(-8.500000, -297.375000) " points="8.5 289.5 17.5 305.25 -0.5 305.25"></polygon>
            <polygon id="Triangle-Copy-32" transform="translate(607.866773, 299.966212) rotate(110.000000) translate(-607.866773, -299.966212) " points="607.866773 292.091212 616.866773 307.841212 598.866773 307.841212"></polygon>
            <polygon id="Triangle-Copy-37" transform="translate(757.183507, 302.465501) rotate(119.000000) translate(-757.183507, -302.465501) " points="757.183507 294.590501 766.183507 310.340501 748.183507 310.340501"></polygon>
            <polygon id="Triangle-Copy-42" transform="translate(906.806041, 303.093710) rotate(123.000000) translate(-906.806041, -303.093710) " points="906.806041 295.21871 915.806041 310.96871 897.806041 310.96871"></polygon>
            <polygon id="Triangle-Copy-47" transform="translate(1056.160033, 304.982864) rotate(129.000000) translate(-1056.160033, -304.982864) " points="1056.16003 297.107864 1065.16003 312.857864 1047.16003 312.857864"></polygon>
            <polygon id="Triangle-Copy-52" transform="translate(1204.319058, 305.760673) rotate(143.000000) translate(-1204.319058, -305.760673) " points="1204.31906 297.885673 1213.31906 313.635673 1195.31906 313.635673"></polygon>
            <polygon id="Triangle-Copy-27" transform="translate(458.593248, 298.769192) rotate(106.000000) translate(-458.593248, -298.769192) " points="458.593248 290.894192 467.593248 306.644192 449.593248 306.644192"></polygon>
            <polygon id="Triangle-Copy-22" transform="translate(308.421735, 298.654628) rotate(97.000000) translate(-308.421735, -298.654628) " points="308.421735 290.779628 317.421735 306.529628 299.421735 306.529628"></polygon>
            <polygon id="Triangle-Copy-17" transform="translate(158.460044, 298.290135) rotate(95.000000) translate(-158.460044, -298.290135) " points="158.460044 290.415135 167.460044 306.165135 149.460044 306.165135"></polygon>
            <polygon id="Triangle-Copy-13" transform="translate(8.500000, 147.375000) rotate(90.000000) translate(-8.500000, -147.375000) " points="8.5 139.5 17.5 155.25 -0.5 155.25"></polygon>
            <polygon id="Triangle-Copy-33" transform="translate(607.516232, 150.812492) rotate(115.000000) translate(-607.516232, -150.812492) " points="607.516232 142.937492 616.516232 158.687492 598.516232 158.687492"></polygon>
            <polygon id="Triangle-Copy-38" transform="translate(757.093267, 152.625000) rotate(120.000000) translate(-757.093267, -152.625000) " points="757.093267 144.75 766.093267 160.5 748.093267 160.5"></polygon>
            <polygon id="Triangle-Copy-43" transform="translate(905.924451, 154.263620) rotate(131.000000) translate(-905.924451, -154.263620) " points="905.924451 146.38862 914.924451 162.13862 896.924451 162.13862"></polygon>
            <polygon id="Triangle-Copy-48" transform="translate(1055.160983, 156.054214) rotate(137.000000) translate(-1055.160983, -156.054214) " points="1055.16098 148.179214 1064.16098 163.929214 1046.16098 163.929214"></polygon>
            <polygon id="Triangle-Copy-53" transform="translate(1202.929451, 156.645950) rotate(152.000000) translate(-1202.929451, -156.645950) " points="1202.92945 148.77095 1211.92945 164.52095 1193.92945 164.52095"></polygon>
            <polygon id="Triangle-Copy-58" transform="translate(1350.717600, 158.017221) rotate(165.000000) translate(-1350.717600, -158.017221) " points="1350.7176 150.142221 1359.7176 165.892221 1341.7176 165.892221"></polygon>
            <polygon id="Triangle-Copy-28" transform="translate(458.235430, 149.808369) rotate(112.000000) translate(-458.235430, -149.808369) " points="458.23543 141.933369 467.23543 157.683369 449.23543 157.683369"></polygon>
            <polygon id="Triangle-Copy-21" transform="translate(308.270550, 149.558073) rotate(102.000000) translate(-308.270550, -149.558073) " points="308.27055 141.683073 317.27055 157.433073 299.27055 157.433073"></polygon>
            <polygon id="Triangle-Copy-16" transform="translate(158.421735, 148.654628) rotate(97.000000) translate(-158.421735, -148.654628) " points="158.421735 140.779628 167.421735 156.529628 149.421735 156.529628"></polygon>
            <polygon id="Triangle-Copy-14" transform="translate(8.500000, 9.375000) rotate(90.000000) translate(-8.500000, -9.375000) " points="8.5 1.5 17.5 17.25 -0.5 17.25"></polygon>
            <polygon id="Triangle-Copy-34" transform="translate(607.735430, 13.308369) rotate(112.000000) translate(-607.735430, -13.308369) " points="607.73543 5.43336923 616.73543 21.1833692 598.73543 21.1833692"></polygon>
            <polygon id="Triangle-Copy-39" transform="translate(757.516232, 13.812492) rotate(115.000000) translate(-757.516232, -13.812492) " points="757.516232 5.93749175 766.516232 21.6874917 748.516232 21.6874917"></polygon>
            <polygon id="Triangle-Copy-44" transform="translate(906.806041, 15.093710) rotate(123.000000) translate(-906.806041, -15.093710) " points="906.806041 7.21870987 915.806041 22.9687099 897.806041 22.9687099"></polygon>
            <polygon id="Triangle-Copy-49" transform="translate(1054.319058, 18.760673) rotate(143.000000) translate(-1054.319058, -18.760673) " points="1054.31906 10.8856729 1063.31906 26.6356729 1045.31906 26.6356729"></polygon>
            <polygon id="Triangle-Copy-54" transform="translate(1202.602897, 19.812337) rotate(154.000000) translate(-1202.602897, -19.812337) " points="1202.6029 11.9373375 1211.6029 27.6873375 1193.6029 27.6873375"></polygon>
            <polygon id="Triangle-Copy-59" transform="translate(1350.308710, 19.623050) rotate(165.000000) translate(-1350.308710, -19.623050) " points="1350.30871 11.7480497 1359.30871 27.4980497 1341.30871 27.4980497"></polygon>
            <polygon id="Triangle-Copy-29" transform="translate(458.366773, 13.466212) rotate(110.000000) translate(-458.366773, -13.466212) " points="458.366773 5.5912115 467.366773 21.3412115 449.366773 21.3412115"></polygon>
            <polygon id="Triangle-Copy-20" transform="translate(308.230886, 11.736986) rotate(103.000000) translate(-308.230886, -11.736986) " points="308.230886 3.86198607 317.230886 19.6119861 299.230886 19.6119861"></polygon>
            <polygon id="Triangle-Copy-15" transform="translate(160.930298, 11.429427) rotate(103.000000) translate(-160.930298, -11.429427) " points="160.930298 3.55442685 169.930298 19.3044268 151.930298 19.3044268"></polygon>
            <polygon id="Triangle-Copy-10" points="16.75 897 1 906 1 888"></polygon>
            <polygon id="Triangle-Copy-55" transform="translate(1355.535983, 889.532443) rotate(-47.000000) translate(-1355.535983, -889.532443) " points="1363.41098 889.532443 1347.66098 898.532443 1347.66098 880.532443"></polygon>
            <polygon id="Triangle-Copy-30" transform="translate(608.397815, 896.913682) scale(1, -1) rotate(98.000000) translate(-608.397815, -896.913682) " points="608.397815 889.038682 617.397815 904.788682 599.397815 904.788682"></polygon>
            <polygon id="Triangle-Copy-35" transform="translate(758.340481, 896.551694) scale(1, -1) rotate(100.000000) translate(-758.340481, -896.551694) " points="758.340481 888.676694 767.340481 904.426694 749.340481 904.426694"></polygon>
            <polygon id="Triangle-Copy-40" transform="translate(908.270550, 896.191927) scale(1, -1) rotate(102.000000) translate(-908.270550, -896.191927) " points="908.27055 888.316927 917.27055 904.066927 899.27055 904.066927"></polygon>
            <polygon id="Triangle-Copy-45" transform="translate(1058.142221, 895.657400) scale(1, -1) rotate(105.000000) translate(-1058.142221, -895.657400) " points="1058.14222 887.7824 1067.14222 903.5324 1049.14222 903.5324"></polygon>
            <polygon id="Triangle-Copy-50" transform="translate(1207.802594, 893.612137) scale(1, -1) rotate(111.000000) translate(-1207.802594, -893.612137) " points="1207.80259 885.737137 1216.80259 901.487137 1198.80259 901.487137"></polygon>
            <polygon id="Triangle-Copy-25" transform="translate(458.897815, 897.413682) scale(1, -1) rotate(98.000000) translate(-458.897815, -897.413682) " points="458.897815 889.538682 467.897815 905.288682 449.897815 905.288682"></polygon>
            <polygon id="Triangle-Copy-24" transform="translate(308.493604, 898.008555) scale(1, -1) rotate(92.000000) translate(-308.493604, -898.008555) " points="308.493604 890.133555 317.493604 905.883555 299.493604 905.883555"></polygon>
            <polygon id="Triangle-Copy-19" transform="translate(158.498401, 898.191750) scale(1, -1) rotate(91.000000) translate(-158.498401, -898.191750) " points="158.498401 890.31675 167.498401 906.06675 149.498401 906.06675"></polygon>
            <polygon id="Triangle-Copy-11" transform="translate(8.500000, 1048.375000) scale(1, -1) rotate(90.000000) translate(-8.500000, -1048.375000) " points="8.5 1040.5 17.5 1056.25 -0.5 1056.25"></polygon>
            <polygon id="Triangle-Copy-31" transform="translate(607.927945, 1045.956534) scale(1, -1) rotate(109.000000) translate(-607.927945, -1045.956534) " points="607.927945 1038.08153 616.927945 1053.83153 598.927945 1053.83153"></polygon>
            <polygon id="Triangle-Copy-36" transform="translate(757.866773, 1044.783788) scale(1, -1) rotate(110.000000) translate(-757.866773, -1044.783788) " points="757.866773 1036.90879 766.866773 1052.65879 748.866773 1052.65879"></polygon>
            <polygon id="Triangle-Copy-41" transform="translate(907.665301, 1044.272323) scale(1, -1) rotate(113.000000) translate(-907.665301, -1044.272323) " points="907.665301 1036.39732 916.665301 1052.14732 898.665301 1052.14732"></polygon>
            <polygon id="Triangle-Copy-46" transform="translate(1057.270950, 1042.445549) scale(1, -1) rotate(118.000000) translate(-1057.270950, -1042.445549) " points="1057.27095 1034.57055 1066.27095 1050.32055 1048.27095 1050.32055"></polygon>
            <polygon id="Triangle-Copy-51" transform="translate(1205.924451, 1040.486380) scale(1, -1) rotate(131.000000) translate(-1205.924451, -1040.486380) " points="1205.92445 1032.61138 1214.92445 1048.36138 1196.92445 1048.36138"></polygon>
            <polygon id="Triangle-Copy-26" transform="translate(458.807085, 1047.871506) scale(1, -1) rotate(101.000000) translate(-458.807085, -1047.871506) " points="458.807085 1039.99651 467.807085 1055.74651 449.807085 1055.74651"></polygon>
            <polygon id="Triangle-Copy-23" transform="translate(308.460044, 1047.459865) scale(1, -1) rotate(95.000000) translate(-308.460044, -1047.459865) " points="308.460044 1039.58486 317.460044 1055.33486 299.460044 1055.33486"></polygon>
            <polygon id="Triangle-Copy-18" transform="translate(158.485610, 1047.825472) scale(1, -1) rotate(93.000000) translate(-158.485610, -1047.825472) " points="158.48561 1039.95047 167.48561 1055.70047 149.48561 1055.70047"></polygon>
            <polygon id="Triangle-Copy-12" points="16.75 1198 1 1207 1 1189"></polygon>
            <polygon id="Triangle-Copy-56" transform="translate(1351.658166, 1187.344885) rotate(-70.000000) translate(-1351.658166, -1187.344885) " points="1359.53317 1187.34488 1343.78317 1196.34488 1343.78317 1178.34488"></polygon>
            <polygon id="Triangle-Copy-32" transform="translate(607.866773, 1195.783788) scale(1, -1) rotate(110.000000) translate(-607.866773, -1195.783788) " points="607.866773 1187.90879 616.866773 1203.65879 598.866773 1203.65879"></polygon>
            <polygon id="Triangle-Copy-37" transform="translate(757.183507, 1193.284499) scale(1, -1) rotate(119.000000) translate(-757.183507, -1193.284499) " points="757.183507 1185.4095 766.183507 1201.1595 748.183507 1201.1595"></polygon>
            <polygon id="Triangle-Copy-42" transform="translate(906.806041, 1192.656290) scale(1, -1) rotate(123.000000) translate(-906.806041, -1192.656290) " points="906.806041 1184.78129 915.806041 1200.53129 897.806041 1200.53129"></polygon>
            <polygon id="Triangle-Copy-47" transform="translate(1056.160033, 1190.767136) scale(1, -1) rotate(129.000000) translate(-1056.160033, -1190.767136) " points="1056.16003 1182.89214 1065.16003 1198.64214 1047.16003 1198.64214"></polygon>
            <polygon id="Triangle-Copy-52" transform="translate(1204.319058, 1189.989327) scale(1, -1) rotate(143.000000) translate(-1204.319058, -1189.989327) " points="1204.31906 1182.11433 1213.31906 1197.86433 1195.31906 1197.86433"></polygon>
            <polygon id="Triangle-Copy-27" transform="translate(458.593248, 1196.980808) scale(1, -1) rotate(106.000000) translate(-458.593248, -1196.980808) " points="458.593248 1189.10581 467.593248 1204.85581 449.593248 1204.85581"></polygon>
            <polygon id="Triangle-Copy-22" transform="translate(308.421735, 1197.095372) scale(1, -1) rotate(97.000000) translate(-308.421735, -1197.095372) " points="308.421735 1189.22037 317.421735 1204.97037 299.421735 1204.97037"></polygon>
            <polygon id="Triangle-Copy-17" transform="translate(158.460044, 1197.459865) scale(1, -1) rotate(95.000000) translate(-158.460044, -1197.459865) " points="158.460044 1189.58486 167.460044 1205.33486 149.460044 1205.33486"></polygon>
            <polygon id="Triangle-Copy-13" transform="translate(8.500000, 1348.375000) scale(1, -1) rotate(90.000000) translate(-8.500000, -1348.375000) " points="8.5 1340.5 17.5 1356.25 -0.5 1356.25"></polygon>
            <polygon id="Triangle-Copy-33" transform="translate(607.516232, 1344.937508) scale(1, -1) rotate(115.000000) translate(-607.516232, -1344.937508) " points="607.516232 1337.06251 616.516232 1352.81251 598.516232 1352.81251"></polygon>
            <polygon id="Triangle-Copy-38" transform="translate(757.093267, 1343.125000) scale(1, -1) rotate(120.000000) translate(-757.093267, -1343.125000) " points="757.093267 1335.25 766.093267 1351 748.093267 1351"></polygon>
            <polygon id="Triangle-Copy-43" transform="translate(905.924451, 1341.486380) scale(1, -1) rotate(131.000000) translate(-905.924451, -1341.486380) " points="905.924451 1333.61138 914.924451 1349.36138 896.924451 1349.36138"></polygon>
            <polygon id="Triangle-Copy-48" transform="translate(1055.160983, 1339.695786) scale(1, -1) rotate(137.000000) translate(-1055.160983, -1339.695786) " points="1055.16098 1331.82079 1064.16098 1347.57079 1046.16098 1347.57079"></polygon>
            <polygon id="Triangle-Copy-53" transform="translate(1202.929451, 1339.104050) scale(1, -1) rotate(152.000000) translate(-1202.929451, -1339.104050) " points="1202.92945 1331.22905 1211.92945 1346.97905 1193.92945 1346.97905"></polygon>
            <polygon id="Triangle-Copy-58" transform="translate(1350.717600, 1337.732779) scale(1, -1) rotate(165.000000) translate(-1350.717600, -1337.732779) " points="1350.7176 1329.85778 1359.7176 1345.60778 1341.7176 1345.60778"></polygon>
            <polygon id="Triangle-Copy-28" transform="translate(458.235430, 1345.941631) scale(1, -1) rotate(112.000000) translate(-458.235430, -1345.941631) " points="458.23543 1338.06663 467.23543 1353.81663 449.23543 1353.81663"></polygon>
            <polygon id="Triangle-Copy-21" transform="translate(308.270550, 1346.191927) scale(1, -1) rotate(102.000000) translate(-308.270550, -1346.191927) " points="308.27055 1338.31693 317.27055 1354.06693 299.27055 1354.06693"></polygon>
            <polygon id="Triangle-Copy-16" transform="translate(158.421735, 1347.095372) scale(1, -1) rotate(97.000000) translate(-158.421735, -1347.095372) " points="158.421735 1339.22037 167.421735 1354.97037 149.421735 1354.97037"></polygon>
            <polygon id="Triangle-Copy-14" transform="translate(8.500000, 1486.375000) scale(1, -1) rotate(90.000000) translate(-8.500000, -1486.375000) " points="8.5 1478.5 17.5 1494.25 -0.5 1494.25"></polygon>
            <polygon id="Triangle-Copy-34" transform="translate(607.735430, 1482.441631) scale(1, -1) rotate(112.000000) translate(-607.735430, -1482.441631) " points="607.73543 1474.56663 616.73543 1490.31663 598.73543 1490.31663"></polygon>
            <polygon id="Triangle-Copy-39" transform="translate(757.516232, 1481.937508) scale(1, -1) rotate(115.000000) translate(-757.516232, -1481.937508) " points="757.516232 1474.06251 766.516232 1489.81251 748.516232 1489.81251"></polygon>
            <polygon id="Triangle-Copy-44" transform="translate(906.806041, 1480.656290) scale(1, -1) rotate(123.000000) translate(-906.806041, -1480.656290) " points="906.806041 1472.78129 915.806041 1488.53129 897.806041 1488.53129"></polygon>
            <polygon id="Triangle-Copy-49" transform="translate(1054.319058, 1476.989327) scale(1, -1) rotate(143.000000) translate(-1054.319058, -1476.989327) " points="1054.31906 1469.11433 1063.31906 1484.86433 1045.31906 1484.86433"></polygon>
            <polygon id="Triangle-Copy-54" transform="translate(1202.602897, 1475.937663) scale(1, -1) rotate(154.000000) translate(-1202.602897, -1475.937663) " points="1202.6029 1468.06266 1211.6029 1483.81266 1193.6029 1483.81266"></polygon>
            <polygon id="Triangle-Copy-59" transform="translate(1350.308710, 1476.126950) scale(1, -1) rotate(165.000000) translate(-1350.308710, -1476.126950) " points="1350.30871 1468.25195 1359.30871 1484.00195 1341.30871 1484.00195"></polygon>
            <polygon id="Triangle-Copy-29" transform="translate(458.366773, 1482.283788) scale(1, -1) rotate(110.000000) translate(-458.366773, -1482.283788) " points="458.366773 1474.40879 467.366773 1490.15879 449.366773 1490.15879"></polygon>
            <polygon id="Triangle-Copy-20" transform="translate(308.230886, 1484.013014) scale(1, -1) rotate(103.000000) translate(-308.230886, -1484.013014) " points="308.230886 1476.13801 317.230886 1491.88801 299.230886 1491.88801"></polygon>
            <polygon id="Triangle-Copy-15" transform="translate(160.930298, 1484.320573) scale(1, -1) rotate(103.000000) translate(-160.930298, -1484.320573) " points="160.930298 1476.44557 169.930298 1492.19557 151.930298 1492.19557"></polygon>
            <polygon id="Triangle-Copy" transform="translate(158.500000, 747.375000) rotate(90.000000) translate(-158.500000, -747.375000) " points="158.5 739.5 167.5 755.25 149.5 755.25"></polygon>
            <polygon id="Triangle-Copy-2" transform="translate(308.500000, 747.375000) rotate(90.000000) translate(-308.500000, -747.375000) " points="308.5 739.5 317.5 755.25 299.5 755.25"></polygon>
            <polygon id="Triangle-Copy-3" transform="translate(458.500000, 747.375000) rotate(90.000000) translate(-458.500000, -747.375000) " points="458.5 739.5 467.5 755.25 449.5 755.25"></polygon>
            <polygon id="Triangle-Copy-4" transform="translate(608.500000, 747.375000) rotate(90.000000) translate(-608.500000, -747.375000) " points="608.5 739.5 617.5 755.25 599.5 755.25"></polygon>
            <polygon id="Triangle-Copy-5" transform="translate(758.500000, 747.375000) rotate(90.000000) translate(-758.500000, -747.375000) " points="758.5 739.5 767.5 755.25 749.5 755.25"></polygon>
            <polygon id="Triangle-Copy-6" transform="translate(908.500000, 747.375000) rotate(90.000000) translate(-908.500000, -747.375000) " points="908.5 739.5 917.5 755.25 899.5 755.25"></polygon>
            <polygon id="Triangle-Copy-7" transform="translate(1058.500000, 747.375000) rotate(90.000000) translate(-1058.500000, -747.375000) " points="1058.5 739.5 1067.5 755.25 1049.5 755.25"></polygon>
            <polygon id="Triangle-Copy-8" transform="translate(1208.500000, 747.375000) rotate(90.000000) translate(-1208.500000, -747.375000) " points="1208.5 739.5 1217.5 755.25 1199.5 755.25"></polygon>
            <polygon id="Triangle-Copy-9" transform="translate(1358.500000, 747.375000) rotate(90.000000) translate(-1358.500000, -747.375000) " points="1358.5 739.5 1367.5 755.25 1349.5 755.25"></polygon>
            <polygon id="Triangle" transform="translate(2987.500000, 747.375000) scale(-1, 1) rotate(90.000000) translate(-2987.500000, -747.375000) " points="2987.5 739.5 2996.5 755.25 2978.5 755.25"></polygon>
            <polygon id="Triangle-Copy-10" transform="translate(2987.500000, 598.375000) scale(-1, 1) rotate(90.000000) translate(-2987.500000, -598.375000) " points="2987.5 590.5 2996.5 606.25 2978.5 606.25"></polygon>
            <polygon id="Triangle-Copy-30" transform="translate(2387.602185, 598.836318) scale(-1, 1) rotate(98.000000) translate(-2387.602185, -598.836318) " points="2387.60219 590.961318 2396.60219 606.711318 2378.60219 606.711318"></polygon>
            <polygon id="Triangle-Copy-35" transform="translate(2237.659519, 599.198306) scale(-1, 1) rotate(100.000000) translate(-2237.659519, -599.198306) " points="2237.65952 591.323306 2246.65952 607.073306 2228.65952 607.073306"></polygon>
            <polygon id="Triangle-Copy-40" transform="translate(2087.729450, 599.558073) scale(-1, 1) rotate(102.000000) translate(-2087.729450, -599.558073) " points="2087.72945 591.683073 2096.72945 607.433073 2078.72945 607.433073"></polygon>
            <polygon id="Triangle-Copy-45" transform="translate(1937.857779, 600.092600) scale(-1, 1) rotate(105.000000) translate(-1937.857779, -600.092600) " points="1937.85778 592.2176 1946.85778 607.9676 1928.85778 607.9676"></polygon>
            <polygon id="Triangle-Copy-50" transform="translate(1788.197406, 602.137863) scale(-1, 1) rotate(111.000000) translate(-1788.197406, -602.137863) " points="1788.19741 594.262863 1797.19741 610.012863 1779.19741 610.012863"></polygon>
            <polygon id="Triangle-Copy-25" transform="translate(2537.102185, 598.336318) scale(-1, 1) rotate(98.000000) translate(-2537.102185, -598.336318) " points="2537.10219 590.461318 2546.10219 606.211318 2528.10219 606.211318"></polygon>
            <polygon id="Triangle-Copy-24" transform="translate(2687.506396, 597.741445) scale(-1, 1) rotate(92.000000) translate(-2687.506396, -597.741445) " points="2687.5064 589.866445 2696.5064 605.616445 2678.5064 605.616445"></polygon>
            <polygon id="Triangle-Copy-19" transform="translate(2837.501599, 597.558250) scale(-1, 1) rotate(91.000000) translate(-2837.501599, -597.558250) " points="2837.5016 589.68325 2846.5016 605.43325 2828.5016 605.43325"></polygon>
            <polygon id="Triangle-Copy-11" transform="translate(2987.500000, 447.375000) scale(-1, 1) rotate(90.000000) translate(-2987.500000, -447.375000) " points="2987.5 439.5 2996.5 455.25 2978.5 455.25"></polygon>
            <polygon id="Triangle-Copy-31" transform="translate(2388.072055, 449.793466) scale(-1, 1) rotate(109.000000) translate(-2388.072055, -449.793466) " points="2388.07205 441.918466 2397.07205 457.668466 2379.07205 457.668466"></polygon>
            <polygon id="Triangle-Copy-36" transform="translate(2238.133227, 450.966212) scale(-1, 1) rotate(110.000000) translate(-2238.133227, -450.966212) " points="2238.13323 443.091212 2247.13323 458.841212 2229.13323 458.841212"></polygon>
            <polygon id="Triangle-Copy-41" transform="translate(2088.334699, 451.477677) scale(-1, 1) rotate(113.000000) translate(-2088.334699, -451.477677) " points="2088.3347 443.602677 2097.3347 459.352677 2079.3347 459.352677"></polygon>
            <polygon id="Triangle-Copy-46" transform="translate(1938.729050, 453.304451) scale(-1, 1) rotate(118.000000) translate(-1938.729050, -453.304451) " points="1938.72905 445.429451 1947.72905 461.179451 1929.72905 461.179451"></polygon>
            <polygon id="Triangle-Copy-51" transform="translate(1790.075549, 455.263620) scale(-1, 1) rotate(131.000000) translate(-1790.075549, -455.263620) " points="1790.07555 447.38862 1799.07555 463.13862 1781.07555 463.13862"></polygon>
            <polygon id="Triangle-Copy-26" transform="translate(2537.192915, 447.878494) scale(-1, 1) rotate(101.000000) translate(-2537.192915, -447.878494) " points="2537.19291 440.003494 2546.19291 455.753494 2528.19291 455.753494"></polygon>
            <polygon id="Triangle-Copy-23" transform="translate(2687.539956, 448.290135) scale(-1, 1) rotate(95.000000) translate(-2687.539956, -448.290135) " points="2687.53996 440.415135 2696.53996 456.165135 2678.53996 456.165135"></polygon>
            <polygon id="Triangle-Copy-18" transform="translate(2837.514390, 447.924528) scale(-1, 1) rotate(93.000000) translate(-2837.514390, -447.924528) " points="2837.51439 440.049528 2846.51439 455.799528 2828.51439 455.799528"></polygon>
            <polygon id="Triangle-Copy-12" transform="translate(2987.500000, 297.375000) scale(-1, 1) rotate(90.000000) translate(-2987.500000, -297.375000) " points="2987.5 289.5 2996.5 305.25 2978.5 305.25"></polygon>
            <polygon id="Triangle-Copy-32" transform="translate(2388.133227, 299.966212) scale(-1, 1) rotate(110.000000) translate(-2388.133227, -299.966212) " points="2388.13323 292.091212 2397.13323 307.841212 2379.13323 307.841212"></polygon>
            <polygon id="Triangle-Copy-37" transform="translate(2238.816493, 302.465501) scale(-1, 1) rotate(119.000000) translate(-2238.816493, -302.465501) " points="2238.81649 294.590501 2247.81649 310.340501 2229.81649 310.340501"></polygon>
            <polygon id="Triangle-Copy-42" transform="translate(2089.193959, 303.093710) scale(-1, 1) rotate(123.000000) translate(-2089.193959, -303.093710) " points="2089.19396 295.21871 2098.19396 310.96871 2080.19396 310.96871"></polygon>
            <polygon id="Triangle-Copy-47" transform="translate(1939.839967, 304.982864) scale(-1, 1) rotate(129.000000) translate(-1939.839967, -304.982864) " points="1939.83997 297.107864 1948.83997 312.857864 1930.83997 312.857864"></polygon>
            <polygon id="Triangle-Copy-52" transform="translate(1791.680942, 305.760673) scale(-1, 1) rotate(143.000000) translate(-1791.680942, -305.760673) " points="1791.68094 297.885673 1800.68094 313.635673 1782.68094 313.635673"></polygon>
            <polygon id="Triangle-Copy-27" transform="translate(2537.406752, 298.769192) scale(-1, 1) rotate(106.000000) translate(-2537.406752, -298.769192) " points="2537.40675 290.894192 2546.40675 306.644192 2528.40675 306.644192"></polygon>
            <polygon id="Triangle-Copy-22" transform="translate(2687.578265, 298.654628) scale(-1, 1) rotate(97.000000) translate(-2687.578265, -298.654628) " points="2687.57827 290.779628 2696.57827 306.529628 2678.57827 306.529628"></polygon>
            <polygon id="Triangle-Copy-17" transform="translate(2837.539956, 298.290135) scale(-1, 1) rotate(95.000000) translate(-2837.539956, -298.290135) " points="2837.53996 290.415135 2846.53996 306.165135 2828.53996 306.165135"></polygon>
            <polygon id="Triangle-Copy-13" transform="translate(2987.500000, 147.375000) scale(-1, 1) rotate(90.000000) translate(-2987.500000, -147.375000) " points="2987.5 139.5 2996.5 155.25 2978.5 155.25"></polygon>
            <polygon id="Triangle-Copy-33" transform="translate(2388.483768, 150.812492) scale(-1, 1) rotate(115.000000) translate(-2388.483768, -150.812492) " points="2388.48377 142.937492 2397.48377 158.687492 2379.48377 158.687492"></polygon>
            <polygon id="Triangle-Copy-38" transform="translate(2238.906733, 152.625000) scale(-1, 1) rotate(120.000000) translate(-2238.906733, -152.625000) " points="2238.90673 144.75 2247.90673 160.5 2229.90673 160.5"></polygon>
            <polygon id="Triangle-Copy-43" transform="translate(2090.075549, 154.263620) scale(-1, 1) rotate(131.000000) translate(-2090.075549, -154.263620) " points="2090.07555 146.38862 2099.07555 162.13862 2081.07555 162.13862"></polygon>
            <polygon id="Triangle-Copy-48" transform="translate(1940.839017, 156.054214) scale(-1, 1) rotate(137.000000) translate(-1940.839017, -156.054214) " points="1940.83902 148.179214 1949.83902 163.929214 1931.83902 163.929214"></polygon>
            <polygon id="Triangle-Copy-53" transform="translate(1793.070549, 156.645950) scale(-1, 1) rotate(152.000000) translate(-1793.070549, -156.645950) " points="1793.07055 148.77095 1802.07055 164.52095 1784.07055 164.52095"></polygon>
            <polygon id="Triangle-Copy-58" transform="translate(1645.282400, 158.017221) scale(-1, 1) rotate(165.000000) translate(-1645.282400, -158.017221) " points="1645.2824 150.142221 1654.2824 165.892221 1636.2824 165.892221"></polygon>
            <polygon id="Triangle-Copy-28" transform="translate(2537.764570, 149.808369) scale(-1, 1) rotate(112.000000) translate(-2537.764570, -149.808369) " points="2537.76457 141.933369 2546.76457 157.683369 2528.76457 157.683369"></polygon>
            <polygon id="Triangle-Copy-21" transform="translate(2687.729450, 149.558073) scale(-1, 1) rotate(102.000000) translate(-2687.729450, -149.558073) " points="2687.72945 141.683073 2696.72945 157.433073 2678.72945 157.433073"></polygon>
            <polygon id="Triangle-Copy-16" transform="translate(2837.578265, 148.654628) scale(-1, 1) rotate(97.000000) translate(-2837.578265, -148.654628) " points="2837.57827 140.779628 2846.57827 156.529628 2828.57827 156.529628"></polygon>
            <polygon id="Triangle-Copy-14" transform="translate(2987.500000, 9.375000) scale(-1, 1) rotate(90.000000) translate(-2987.500000, -9.375000) " points="2987.5 1.5 2996.5 17.25 2978.5 17.25"></polygon>
            <polygon id="Triangle-Copy-34" transform="translate(2388.264570, 13.308369) scale(-1, 1) rotate(112.000000) translate(-2388.264570, -13.308369) " points="2388.26457 5.43336923 2397.26457 21.1833692 2379.26457 21.1833692"></polygon>
            <polygon id="Triangle-Copy-39" transform="translate(2238.483768, 13.812492) scale(-1, 1) rotate(115.000000) translate(-2238.483768, -13.812492) " points="2238.48377 5.93749175 2247.48377 21.6874917 2229.48377 21.6874917"></polygon>
            <polygon id="Triangle-Copy-44" transform="translate(2089.193959, 15.093710) scale(-1, 1) rotate(123.000000) translate(-2089.193959, -15.093710) " points="2089.19396 7.21870987 2098.19396 22.9687099 2080.19396 22.9687099"></polygon>
            <polygon id="Triangle-Copy-49" transform="translate(1941.680942, 18.760673) scale(-1, 1) rotate(143.000000) translate(-1941.680942, -18.760673) " points="1941.68094 10.8856729 1950.68094 26.6356729 1932.68094 26.6356729"></polygon>
            <polygon id="Triangle-Copy-54" transform="translate(1793.397103, 19.812337) scale(-1, 1) rotate(154.000000) translate(-1793.397103, -19.812337) " points="1793.3971 11.9373375 1802.3971 27.6873375 1784.3971 27.6873375"></polygon>
            <polygon id="Triangle-Copy-59" transform="translate(1645.691290, 19.623050) scale(-1, 1) rotate(165.000000) translate(-1645.691290, -19.623050) " points="1645.69129 11.7480497 1654.69129 27.4980497 1636.69129 27.4980497"></polygon>
            <polygon id="Triangle-Copy-29" transform="translate(2537.633227, 13.466212) scale(-1, 1) rotate(110.000000) translate(-2537.633227, -13.466212) " points="2537.63323 5.5912115 2546.63323 21.3412115 2528.63323 21.3412115"></polygon>
            <polygon id="Triangle-Copy-20" transform="translate(2687.769114, 11.736986) scale(-1, 1) rotate(103.000000) translate(-2687.769114, -11.736986) " points="2687.76911 3.86198607 2696.76911 19.6119861 2678.76911 19.6119861"></polygon>
            <polygon id="Triangle-Copy-15" transform="translate(2835.069702, 11.429427) scale(-1, 1) rotate(103.000000) translate(-2835.069702, -11.429427) " points="2835.0697 3.55442685 2844.0697 19.3044268 2826.0697 19.3044268"></polygon>
            <polygon id="Triangle-Copy-10" transform="translate(2987.875000, 897.000000) scale(-1, 1) translate(-2987.875000, -897.000000) " points="2995.75 897 2980 906 2980 888"></polygon>
            <polygon id="Triangle-Copy-55" transform="translate(1641.214017, 889.532443) scale(-1, 1) rotate(-47.000000) translate(-1641.214017, -889.532443) " points="1649.08902 889.532443 1633.33902 898.532443 1633.33902 880.532443"></polygon>
            <polygon id="Triangle-Copy-30" transform="translate(2387.602185, 896.913682) scale(-1, -1) rotate(98.000000) translate(-2387.602185, -896.913682) " points="2387.60219 889.038682 2396.60219 904.788682 2378.60219 904.788682"></polygon>
            <polygon id="Triangle-Copy-35" transform="translate(2237.659519, 896.551694) scale(-1, -1) rotate(100.000000) translate(-2237.659519, -896.551694) " points="2237.65952 888.676694 2246.65952 904.426694 2228.65952 904.426694"></polygon>
            <polygon id="Triangle-Copy-40" transform="translate(2087.729450, 896.191927) scale(-1, -1) rotate(102.000000) translate(-2087.729450, -896.191927) " points="2087.72945 888.316927 2096.72945 904.066927 2078.72945 904.066927"></polygon>
            <polygon id="Triangle-Copy-45" transform="translate(1937.857779, 895.657400) scale(-1, -1) rotate(105.000000) translate(-1937.857779, -895.657400) " points="1937.85778 887.7824 1946.85778 903.5324 1928.85778 903.5324"></polygon>
            <polygon id="Triangle-Copy-50" transform="translate(1788.197406, 893.612137) scale(-1, -1) rotate(111.000000) translate(-1788.197406, -893.612137) " points="1788.19741 885.737137 1797.19741 901.487137 1779.19741 901.487137"></polygon>
            <polygon id="Triangle-Copy-25" transform="translate(2537.102185, 897.413682) scale(-1, -1) rotate(98.000000) translate(-2537.102185, -897.413682) " points="2537.10219 889.538682 2546.10219 905.288682 2528.10219 905.288682"></polygon>
            <polygon id="Triangle-Copy-24" transform="translate(2687.506396, 898.008555) scale(-1, -1) rotate(92.000000) translate(-2687.506396, -898.008555) " points="2687.5064 890.133555 2696.5064 905.883555 2678.5064 905.883555"></polygon>
            <polygon id="Triangle-Copy-19" transform="translate(2837.501599, 898.191750) scale(-1, -1) rotate(91.000000) translate(-2837.501599, -898.191750) " points="2837.5016 890.31675 2846.5016 906.06675 2828.5016 906.06675"></polygon>
            <polygon id="Triangle-Copy-11" transform="translate(2987.500000, 1048.375000) scale(-1, -1) rotate(90.000000) translate(-2987.500000, -1048.375000) " points="2987.5 1040.5 2996.5 1056.25 2978.5 1056.25"></polygon>
            <polygon id="Triangle-Copy-31" transform="translate(2388.072055, 1045.956534) scale(-1, -1) rotate(109.000000) translate(-2388.072055, -1045.956534) " points="2388.07205 1038.08153 2397.07205 1053.83153 2379.07205 1053.83153"></polygon>
            <polygon id="Triangle-Copy-36" transform="translate(2238.133227, 1044.783788) scale(-1, -1) rotate(110.000000) translate(-2238.133227, -1044.783788) " points="2238.13323 1036.90879 2247.13323 1052.65879 2229.13323 1052.65879"></polygon>
            <polygon id="Triangle-Copy-41" transform="translate(2088.334699, 1044.272323) scale(-1, -1) rotate(113.000000) translate(-2088.334699, -1044.272323) " points="2088.3347 1036.39732 2097.3347 1052.14732 2079.3347 1052.14732"></polygon>
            <polygon id="Triangle-Copy-46" transform="translate(1938.729050, 1042.445549) scale(-1, -1) rotate(118.000000) translate(-1938.729050, -1042.445549) " points="1938.72905 1034.57055 1947.72905 1050.32055 1929.72905 1050.32055"></polygon>
            <polygon id="Triangle-Copy-51" transform="translate(1790.075549, 1040.486380) scale(-1, -1) rotate(131.000000) translate(-1790.075549, -1040.486380) " points="1790.07555 1032.61138 1799.07555 1048.36138 1781.07555 1048.36138"></polygon>
            <polygon id="Triangle-Copy-26" transform="translate(2537.192915, 1047.871506) scale(-1, -1) rotate(101.000000) translate(-2537.192915, -1047.871506) " points="2537.19291 1039.99651 2546.19291 1055.74651 2528.19291 1055.74651"></polygon>
            <polygon id="Triangle-Copy-23" transform="translate(2687.539956, 1047.459865) scale(-1, -1) rotate(95.000000) translate(-2687.539956, -1047.459865) " points="2687.53996 1039.58486 2696.53996 1055.33486 2678.53996 1055.33486"></polygon>
            <polygon id="Triangle-Copy-18" transform="translate(2837.514390, 1047.825472) scale(-1, -1) rotate(93.000000) translate(-2837.514390, -1047.825472) " points="2837.51439 1039.95047 2846.51439 1055.70047 2828.51439 1055.70047"></polygon>
            <polygon id="Triangle-Copy-12" transform="translate(2987.875000, 1198.000000) scale(-1, 1) translate(-2987.875000, -1198.000000) " points="2995.75 1198 2980 1207 2980 1189"></polygon>
            <polygon id="Triangle-Copy-56" transform="translate(1645.091834, 1187.344885) scale(-1, 1) rotate(-70.000000) translate(-1645.091834, -1187.344885) " points="1652.96683 1187.34488 1637.21683 1196.34488 1637.21683 1178.34488"></polygon>
            <polygon id="Triangle-Copy-32" transform="translate(2388.133227, 1195.783788) scale(-1, -1) rotate(110.000000) translate(-2388.133227, -1195.783788) " points="2388.13323 1187.90879 2397.13323 1203.65879 2379.13323 1203.65879"></polygon>
            <polygon id="Triangle-Copy-37" transform="translate(2238.816493, 1193.284499) scale(-1, -1) rotate(119.000000) translate(-2238.816493, -1193.284499) " points="2238.81649 1185.4095 2247.81649 1201.1595 2229.81649 1201.1595"></polygon>
            <polygon id="Triangle-Copy-42" transform="translate(2089.193959, 1192.656290) scale(-1, -1) rotate(123.000000) translate(-2089.193959, -1192.656290) " points="2089.19396 1184.78129 2098.19396 1200.53129 2080.19396 1200.53129"></polygon>
            <polygon id="Triangle-Copy-47" transform="translate(1939.839967, 1190.767136) scale(-1, -1) rotate(129.000000) translate(-1939.839967, -1190.767136) " points="1939.83997 1182.89214 1948.83997 1198.64214 1930.83997 1198.64214"></polygon>
            <polygon id="Triangle-Copy-52" transform="translate(1791.680942, 1189.989327) scale(-1, -1) rotate(143.000000) translate(-1791.680942, -1189.989327) " points="1791.68094 1182.11433 1800.68094 1197.86433 1782.68094 1197.86433"></polygon>
            <polygon id="Triangle-Copy-27" transform="translate(2537.406752, 1196.980808) scale(-1, -1) rotate(106.000000) translate(-2537.406752, -1196.980808) " points="2537.40675 1189.10581 2546.40675 1204.85581 2528.40675 1204.85581"></polygon>
            <polygon id="Triangle-Copy-22" transform="translate(2687.578265, 1197.095372) scale(-1, -1) rotate(97.000000) translate(-2687.578265, -1197.095372) " points="2687.57827 1189.22037 2696.57827 1204.97037 2678.57827 1204.97037"></polygon>
            <polygon id="Triangle-Copy-17" transform="translate(2837.539956, 1197.459865) scale(-1, -1) rotate(95.000000) translate(-2837.539956, -1197.459865) " points="2837.53996 1189.58486 2846.53996 1205.33486 2828.53996 1205.33486"></polygon>
            <polygon id="Triangle-Copy-13" transform="translate(2987.500000, 1348.375000) scale(-1, -1) rotate(90.000000) translate(-2987.500000, -1348.375000) " points="2987.5 1340.5 2996.5 1356.25 2978.5 1356.25"></polygon>
            <polygon id="Triangle-Copy-33" transform="translate(2388.483768, 1344.937508) scale(-1, -1) rotate(115.000000) translate(-2388.483768, -1344.937508) " points="2388.48377 1337.06251 2397.48377 1352.81251 2379.48377 1352.81251"></polygon>
            <polygon id="Triangle-Copy-38" transform="translate(2238.906733, 1343.125000) scale(-1, -1) rotate(120.000000) translate(-2238.906733, -1343.125000) " points="2238.90673 1335.25 2247.90673 1351 2229.90673 1351"></polygon>
            <polygon id="Triangle-Copy-43" transform="translate(2090.075549, 1341.486380) scale(-1, -1) rotate(131.000000) translate(-2090.075549, -1341.486380) " points="2090.07555 1333.61138 2099.07555 1349.36138 2081.07555 1349.36138"></polygon>
            <polygon id="Triangle-Copy-48" transform="translate(1940.839017, 1339.695786) scale(-1, -1) rotate(137.000000) translate(-1940.839017, -1339.695786) " points="1940.83902 1331.82079 1949.83902 1347.57079 1931.83902 1347.57079"></polygon>
            <polygon id="Triangle-Copy-53" transform="translate(1793.070549, 1339.104050) scale(-1, -1) rotate(152.000000) translate(-1793.070549, -1339.104050) " points="1793.07055 1331.22905 1802.07055 1346.97905 1784.07055 1346.97905"></polygon>
            <polygon id="Triangle-Copy-58" transform="translate(1645.282400, 1337.732779) scale(-1, -1) rotate(165.000000) translate(-1645.282400, -1337.732779) " points="1645.2824 1329.85778 1654.2824 1345.60778 1636.2824 1345.60778"></polygon>
            <polygon id="Triangle-Copy-28" transform="translate(2537.764570, 1345.941631) scale(-1, -1) rotate(112.000000) translate(-2537.764570, -1345.941631) " points="2537.76457 1338.06663 2546.76457 1353.81663 2528.76457 1353.81663"></polygon>
            <polygon id="Triangle-Copy-21" transform="translate(2687.729450, 1346.191927) scale(-1, -1) rotate(102.000000) translate(-2687.729450, -1346.191927) " points="2687.72945 1338.31693 2696.72945 1354.06693 2678.72945 1354.06693"></polygon>
            <polygon id="Triangle-Copy-16" transform="translate(2837.578265, 1347.095372) scale(-1, -1) rotate(97.000000) translate(-2837.578265, -1347.095372) " points="2837.57827 1339.22037 2846.57827 1354.97037 2828.57827 1354.97037"></polygon>
            <polygon id="Triangle-Copy-14" transform="translate(2987.500000, 1486.375000) scale(-1, -1) rotate(90.000000) translate(-2987.500000, -1486.375000) " points="2987.5 1478.5 2996.5 1494.25 2978.5 1494.25"></polygon>
            <polygon id="Triangle-Copy-34" transform="translate(2388.264570, 1482.441631) scale(-1, -1) rotate(112.000000) translate(-2388.264570, -1482.441631) " points="2388.26457 1474.56663 2397.26457 1490.31663 2379.26457 1490.31663"></polygon>
            <polygon id="Triangle-Copy-39" transform="translate(2238.483768, 1481.937508) scale(-1, -1) rotate(115.000000) translate(-2238.483768, -1481.937508) " points="2238.48377 1474.06251 2247.48377 1489.81251 2229.48377 1489.81251"></polygon>
            <polygon id="Triangle-Copy-44" transform="translate(2089.193959, 1480.656290) scale(-1, -1) rotate(123.000000) translate(-2089.193959, -1480.656290) " points="2089.19396 1472.78129 2098.19396 1488.53129 2080.19396 1488.53129"></polygon>
            <polygon id="Triangle-Copy-49" transform="translate(1941.680942, 1476.989327) scale(-1, -1) rotate(143.000000) translate(-1941.680942, -1476.989327) " points="1941.68094 1469.11433 1950.68094 1484.86433 1932.68094 1484.86433"></polygon>
            <polygon id="Triangle-Copy-54" transform="translate(1793.397103, 1475.937663) scale(-1, -1) rotate(154.000000) translate(-1793.397103, -1475.937663) " points="1793.3971 1468.06266 1802.3971 1483.81266 1784.3971 1483.81266"></polygon>
            <polygon id="Triangle-Copy-59" transform="translate(1645.691290, 1476.126950) scale(-1, -1) rotate(165.000000) translate(-1645.691290, -1476.126950) " points="1645.69129 1468.25195 1654.69129 1484.00195 1636.69129 1484.00195"></polygon>
            <polygon id="Triangle-Copy-29" transform="translate(2537.633227, 1482.283788) scale(-1, -1) rotate(110.000000) translate(-2537.633227, -1482.283788) " points="2537.63323 1474.40879 2546.63323 1490.15879 2528.63323 1490.15879"></polygon>
            <polygon id="Triangle-Copy-20" transform="translate(2687.769114, 1484.013014) scale(-1, -1) rotate(103.000000) translate(-2687.769114, -1484.013014) " points="2687.76911 1476.13801 2696.76911 1491.88801 2678.76911 1491.88801"></polygon>
            <polygon id="Triangle-Copy-15" transform="translate(2835.069702, 1484.320573) scale(-1, -1) rotate(103.000000) translate(-2835.069702, -1484.320573) " points="2835.0697 1476.44557 2844.0697 1492.19557 2826.0697 1492.19557"></polygon>
            <polygon id="Triangle-Copy" transform="translate(2837.500000, 747.375000) scale(-1, 1) rotate(90.000000) translate(-2837.500000, -747.375000) " points="2837.5 739.5 2846.5 755.25 2828.5 755.25"></polygon>
            <polygon id="Triangle-Copy-2" transform="translate(2687.500000, 747.375000) scale(-1, 1) rotate(90.000000) translate(-2687.500000, -747.375000) " points="2687.5 739.5 2696.5 755.25 2678.5 755.25"></polygon>
            <polygon id="Triangle-Copy-3" transform="translate(2537.500000, 747.375000) scale(-1, 1) rotate(90.000000) translate(-2537.500000, -747.375000) " points="2537.5 739.5 2546.5 755.25 2528.5 755.25"></polygon>
            <polygon id="Triangle-Copy-4" transform="translate(2387.500000, 747.375000) scale(-1, 1) rotate(90.000000) translate(-2387.500000, -747.375000) " points="2387.5 739.5 2396.5 755.25 2378.5 755.25"></polygon>
            <polygon id="Triangle-Copy-5" transform="translate(2237.500000, 747.375000) scale(-1, 1) rotate(90.000000) translate(-2237.500000, -747.375000) " points="2237.5 739.5 2246.5 755.25 2228.5 755.25"></polygon>
            <polygon id="Triangle-Copy-6" transform="translate(2087.500000, 747.375000) scale(-1, 1) rotate(90.000000) translate(-2087.500000, -747.375000) " points="2087.5 739.5 2096.5 755.25 2078.5 755.25"></polygon>
            <polygon id="Triangle-Copy-7" transform="translate(1937.500000, 747.375000) scale(-1, 1) rotate(90.000000) translate(-1937.500000, -747.375000) " points="1937.5 739.5 1946.5 755.25 1928.5 755.25"></polygon>
            <polygon id="Triangle-Copy-8" transform="translate(1787.500000, 747.375000) scale(-1, 1) rotate(90.000000) translate(-1787.500000, -747.375000) " points="1787.5 739.5 1796.5 755.25 1778.5 755.25"></polygon>
            <polygon id="Triangle-Copy-9" transform="translate(1637.500000, 747.375000) scale(-1, 1) rotate(90.000000) translate(-1637.500000, -747.375000) " points="1637.5 739.5 1646.5 755.25 1628.5 755.25"></polygon>
            <polygon id="Triangle-Copy-60" transform="translate(1498.000000, 19.875000) rotate(180.000000) translate(-1498.000000, -19.875000) " points="1498 12 1507 27.75 1489 27.75"></polygon>
            <polygon id="Triangle-Copy-61" transform="translate(1498.000000, 157.875000) rotate(180.000000) translate(-1498.000000, -157.875000) " points="1498 150 1507 165.75 1489 165.75"></polygon>
            <polygon id="Triangle-Copy-60" transform="translate(1498.000000, 1475.875000) scale(1, -1) rotate(180.000000) translate(-1498.000000, -1475.875000) " points="1498 1468 1507 1483.75 1489 1483.75"></polygon>
            <polygon id="Triangle-Copy-61" transform="translate(1498.000000, 1337.875000) scale(1, -1) rotate(180.000000) translate(-1498.000000, -1337.875000) " points="1498 1330 1507 1345.75 1489 1345.75"></polygon>
            <polygon id="Triangle-Copy-62" transform="translate(1498.000000, 1186.875000) scale(1, -1) rotate(180.000000) translate(-1498.000000, -1186.875000) " points="1498 1179 1507 1194.75 1489 1194.75"></polygon>
            <polygon id="Triangle-Copy-63" transform="translate(1498.000000, 886.875000) scale(1, -1) rotate(180.000000) translate(-1498.000000, -886.875000) " points="1498 879 1507 894.75 1489 894.75"></polygon>
        </g>
        <g id="Group-2" transform="translate(0.000000, 195.000000)">
            <g id="Group" transform="translate(860.000000, 0.000000)">
                <text id="CONNECTIVE" font-family="Futura-Bold, Futura" font-size="64" font-weight="bold" fill="#424242">
                    <tspan x="418.848" y="760">CONNECTIVE</tspan>
                </text>
                <g id="Shape" transform="translate(407.000000, 0.000000)">
                    <mask id="mask-2" fill="white">
                        <use xlink:href="#path-1"></use>
                    </mask>
                    <use id="Mask" fill="#4A90E2" fill-rule="nonzero" xlink:href="#path-1"></use>
                    <path d="M408.600421,272.271895 L517.038095,272.271895 L517.038095,295.947712 L408.600421,295.947712 C409.376648,292.122767 409.784127,288.163883 409.784127,284.109804 C409.784127,280.055725 409.376648,276.096841 408.600421,272.271895 Z M386.120055,331.461438 L517.038095,331.461438 L517.038095,355.137255 L336.453993,355.137255 L343.623882,342.891241 C345.914947,343.160751 348.246054,343.299346 350.609524,343.299346 C363.933571,343.299346 376.22909,338.894585 386.120055,331.461438 Z M315.661149,390.65098 L517.038095,390.65098 L517.038095,414.326797 L301.799253,414.326797 L315.661149,390.65098 Z M281.006409,449.840523 L517.038095,449.840523 L517.038095,473.51634 L290.990897,473.51634 C289.258543,464.979971 285.689544,457.110712 280.714438,450.339209 L281.006409,449.840523 Z M287.250768,509.030065 L517.038095,509.030065 L517.038095,532.705882 L268.510531,532.705882 C276.6327,526.602001 283.133426,518.456014 287.250758,509.030067 L287.250768,509.030065 Z M184.622914,213.082353 L517.038095,213.082353 L517.038095,236.75817 L386.120055,236.75817 C376.22909,229.325023 363.933571,224.920261 350.609524,224.920261 C337.285477,224.920261 324.989957,229.325023 315.098993,236.75817 L170.761018,236.75817 L184.622914,213.082353 Z M219.277654,153.89281 L517.038095,153.89281 L517.038095,177.568627 L205.415758,177.568627 L219.277654,153.89281 Z M291.13612,94.703268 L517.038095,94.703268 L517.038095,118.379085 L280.890706,118.379085 C285.916321,111.466229 289.482405,103.423305 291.13612,94.703268 Z M267.504155,35.5137255 L517.038095,35.5137255 L517.038095,59.1895425 L286.921499,59.1895425 C282.617123,49.6936776 275.879317,41.5363135 267.504155,35.5137255 Z" fill="#72B3FF" fill-rule="nonzero" mask="url(#mask-2)"></path>
                </g>
                <path d="M435,795 L466.893057,795 L466.893057,826.721739 L496.290136,826.721739 L496.290136,795 L528.183193,795 L528.183193,891 L496.290136,891 L496.290136,859 L467.170388,859 L467.170388,891 L435,891 M570.337494,827 L542.188404,827 L542.188404,795 L630.518306,795 L630.518306,827 L602.230551,827 L602.230551,891 L570.337494,891 M644.523518,795 L677.941895,795 L698.464384,828.808696 L718.986872,795 L752.40525,795 L752.40525,891 L720.512193,891 L720.512193,843.417391 L698.187053,877.921739 L675.861913,843.417391 L675.861913,891 L644.523518,891 M768.213113,795 L800.10617,795 L800.10617,859.278261 L845.311111,859.278261 L845.311111,891 L768.213113,891" id="Shape" fill="#424242" fill-rule="nonzero"></path>
            </g>
            <text id="Explicitly-Reactive" font-family="Futura-Medium, Futura" font-size="64" font-weight="400" fill="#BDBDBD">
                <tspan x="1012.6875" y="1085">Explicitly Reactive User Interfaces</tspan>
            </text>
        </g>
    </g>
</svg>