<?xml version="1.0" encoding="UTF-8"?>
<svg width="3000px" height="1500px" viewBox="0 0 3000 1500" version="1.1" xmlns="http://www.w3.org/2000/svg" xmlns:xlink="http://www.w3.org/1999/xlink">
    <!-- Generator: Sketch 52.5 (67469) - http://www.bohemiancoding.com/sketch -->
    <title>repo-banner</title>
    <desc>Created with Sketch.</desc>
    <defs>
        <path d="M0.359033478,50.8094438 C0.274802583,49.6587656 0.232644928,48.5053925 0.232644928,47.351634 C0.232644928,21.2000487 21.4273427,-5.68434189e-14 47.5723275,-5.68434189e-14 L418.409657,-5.68434189e-14 C419.562358,-5.68434189e-14 420.714674,0.0421122523 421.864301,0.126252545 C447.939576,2.03468118 467.531066,24.7252917 465.623119,50.8071497 L435.957698,456.336921 C434.655651,474.136067 423.459127,489.691062 406.996392,496.571997 L251.286406,561.654157 C239.587396,566.543996 226.416284,566.535204 214.723809,561.62975 L58.9265417,496.266648 C42.4947395,489.372858 31.3248798,473.833842 30.0236888,456.058273 L0.359033478,50.8094438 Z M155.044914,240.175878 L213.90436,139.645222 C206.279301,137.04641 199.354371,132.934333 193.487371,127.666883 L134.666517,228.131623 C142.281847,230.754762 149.193976,234.888874 155.044914,240.175878 Z M272.370505,441.165404 L331.513884,340.149798 C323.888825,337.550985 316.963895,333.438908 311.096895,328.171459 L251.914918,429.252988 C259.549723,431.827452 266.487459,435.917494 272.370505,441.165404 Z M292.618627,272.271895 L173.381373,272.271895 C174.1576,276.096841 174.565079,280.055725 174.565079,284.109804 C174.565079,288.163883 174.1576,292.122767 173.381373,295.947712 L292.618627,295.947712 C291.8424,292.122767 291.434921,288.163883 291.434921,284.109804 C291.434921,280.055725 291.8424,276.096841 292.618627,272.271895 Z M233,130.956863 C259.144985,130.956863 280.339683,109.756814 280.339683,83.6052288 C280.339683,57.4536434 259.144985,36.2535948 233,36.2535948 C206.855015,36.2535948 185.660317,57.4536434 185.660317,83.6052288 C185.660317,109.756814 206.855015,130.956863 233,130.956863 Z M233,107.281046 C219.927508,107.281046 209.330159,96.6810214 209.330159,83.6052288 C209.330159,70.5294361 219.927508,59.9294118 233,59.9294118 C246.072492,59.9294118 256.669841,70.5294361 256.669841,83.6052288 C256.669841,96.6810214 246.072492,107.281046 233,107.281046 Z M115.390476,331.461438 C141.535461,331.461438 162.730159,310.261389 162.730159,284.109804 C162.730159,257.958219 141.535461,236.75817 115.390476,236.75817 C89.2454915,236.75817 68.0507937,257.958219 68.0507937,284.109804 C68.0507937,310.261389 89.2454915,331.461438 115.390476,331.461438 Z M115.390476,307.785621 C102.317984,307.785621 91.7206349,297.185597 91.7206349,284.109804 C91.7206349,271.034011 102.317984,260.433987 115.390476,260.433987 C128.462969,260.433987 139.060317,271.034011 139.060317,284.109804 C139.060317,297.185597 128.462969,307.785621 115.390476,307.785621 Z M350.609524,331.461438 C376.754509,331.461438 397.949206,310.261389 397.949206,284.109804 C397.949206,257.958219 376.754509,236.75817 350.609524,236.75817 C324.464539,236.75817 303.269841,257.958219 303.269841,284.109804 C303.269841,310.261389 324.464539,331.461438 350.609524,331.461438 Z M350.609524,307.785621 C337.537031,307.785621 326.939683,297.185597 326.939683,284.109804 C326.939683,271.034011 337.537031,260.433987 350.609524,260.433987 C363.682016,260.433987 374.279365,271.034011 374.279365,284.109804 C374.279365,297.185597 363.682016,307.785621 350.609524,307.785621 Z M233,532.705882 C259.144985,532.705882 280.339683,511.505834 280.339683,485.354248 C280.339683,459.202663 259.144985,438.002614 233,438.002614 C206.855015,438.002614 185.660317,459.202663 185.660317,485.354248 C185.660317,511.505834 206.855015,532.705882 233,532.705882 Z M233,509.030065 C219.927508,509.030065 209.330159,498.430041 209.330159,485.354248 C209.330159,472.278456 219.927508,461.678431 233,461.678431 C246.072492,461.678431 256.669841,472.278456 256.669841,485.354248 C256.669841,498.430041 246.072492,509.030065 233,509.030065 Z" id="path-1"></path>
    </defs>
    <g id="repo-banner" stroke="none" stroke-width="1" fill="none" fill-rule="evenodd">
        <g id="triangles" fill="#F5F5F5" fill-rule="nonzero">
            <polygon id="Triangle" transform="translate(10.500000, 750.000000) rotate(90.000000) translate(-10.500000, -750.000000) " points="10.5 739.5 22.5 760.5 -1.5 760.5"></polygon>
            <polygon id="Triangle-Copy-10" transform="translate(10.500000, 601.000000) rotate(90.000000) translate(-10.500000, -601.000000) " points="10.5 590.5 22.5 611.5 -1.5 611.5"></polygon>
            <polygon id="Triangle-Copy-30" transform="translate(610.397815, 601.461318) rotate(98.000000) translate(-610.397815, -601.461318) " points="610.397815 590.961318 622.397815 611.961318 598.397815 611.961318"></polygon>
            <polygon id="Triangle-Copy-35" transform="translate(760.340481, 601.823306) rotate(100.000000) translate(-760.340481, -601.823306) " points="760.340481 591.323306 772.340481 612.323306 748.340481 612.323306"></polygon>
            <polygon id="Triangle-Copy-40" transform="translate(910.270550, 602.183073) rotate(102.000000) translate(-910.270550, -602.183073) " points="910.27055 591.683073 922.27055 612.683073 898.27055 612.683073"></polygon>
            <polygon id="Triangle-Copy-45" transform="translate(1060.142221, 602.717600) rotate(105.000000) translate(-1060.142221, -602.717600) " points="1060.14222 592.2176 1072.14222 613.2176 1048.14222 613.2176"></polygon>
            <polygon id="Triangle-Copy-50" transform="translate(1209.802594, 604.762863) rotate(111.000000) translate(-1209.802594, -604.762863) " points="1209.80259 594.262863 1221.80259 615.262863 1197.80259 615.262863"></polygon>
            <polygon id="Triangle-Copy-25" transform="translate(460.897815, 600.961318) rotate(98.000000) translate(-460.897815, -600.961318) " points="460.897815 590.461318 472.897815 611.461318 448.897815 611.461318"></polygon>
            <polygon id="Triangle-Copy-24" transform="translate(310.493604, 600.366445) rotate(92.000000) translate(-310.493604, -600.366445) " points="310.493604 589.866445 322.493604 610.866445 298.493604 610.866445"></polygon>
            <polygon id="Triangle-Copy-19" transform="translate(160.498401, 600.183250) rotate(91.000000) translate(-160.498401, -600.183250) " points="160.498401 589.68325 172.498401 610.68325 148.498401 610.68325"></polygon>
            <polygon id="Triangle-Copy-11" transform="translate(10.500000, 450.000000) rotate(90.000000) translate(-10.500000, -450.000000) " points="10.5 439.5 22.5 460.5 -1.5 460.5"></polygon>
            <polygon id="Triangle-Copy-31" transform="translate(609.927945, 452.418466) rotate(109.000000) translate(-609.927945, -452.418466) " points="609.927945 441.918466 621.927945 462.918466 597.927945 462.918466"></polygon>
            <polygon id="Triangle-Copy-36" transform="translate(759.866773, 453.591212) rotate(110.000000) translate(-759.866773, -453.591212) " points="759.866773 443.091212 771.866773 464.091212 747.866773 464.091212"></polygon>
            <polygon id="Triangle-Copy-41" transform="translate(909.665301, 454.102677) rotate(113.000000) translate(-909.665301, -454.102677) " points="909.665301 443.602677 921.665301 464.602677 897.665301 464.602677"></polygon>
            <polygon id="Triangle-Copy-46" transform="translate(1059.270950, 455.929451) rotate(118.000000) translate(-1059.270950, -455.929451) " points="1059.27095 445.429451 1071.27095 466.429451 1047.27095 466.429451"></polygon>
            <polygon id="Triangle-Copy-51" transform="translate(1207.924451, 457.888620) rotate(131.000000) translate(-1207.924451, -457.888620) " points="1207.92445 447.38862 1219.92445 468.38862 1195.92445 468.38862"></polygon>
            <polygon id="Triangle-Copy-26" transform="translate(460.807085, 450.503494) rotate(101.000000) translate(-460.807085, -450.503494) " points="460.807085 440.003494 472.807085 461.003494 448.807085 461.003494"></polygon>
            <polygon id="Triangle-Copy-23" transform="translate(310.460044, 450.915135) rotate(95.000000) translate(-310.460044, -450.915135) " points="310.460044 440.415135 322.460044 461.415135 298.460044 461.415135"></polygon>
            <polygon id="Triangle-Copy-18" transform="translate(160.485610, 450.549528) rotate(93.000000) translate(-160.485610, -450.549528) " points="160.48561 440.049528 172.48561 461.049528 148.48561 461.049528"></polygon>
            <polygon id="Triangle-Copy-12" transform="translate(10.500000, 300.000000) rotate(90.000000) translate(-10.500000, -300.000000) " points="10.5 289.5 22.5 310.5 -1.5 310.5"></polygon>
            <polygon id="Triangle-Copy-32" transform="translate(609.866773, 302.591212) rotate(110.000000) translate(-609.866773, -302.591212) " points="609.866773 292.091212 621.866773 313.091212 597.866773 313.091212"></polygon>
            <polygon id="Triangle-Copy-37" transform="translate(759.183507, 305.090501) rotate(119.000000) translate(-759.183507, -305.090501) " points="759.183507 294.590501 771.183507 315.590501 747.183507 315.590501"></polygon>
            <polygon id="Triangle-Copy-42" transform="translate(908.806041, 305.718710) rotate(123.000000) translate(-908.806041, -305.718710) " points="908.806041 295.21871 920.806041 316.21871 896.806041 316.21871"></polygon>
            <polygon id="Triangle-Copy-47" transform="translate(1058.160033, 307.607864) rotate(129.000000) translate(-1058.160033, -307.607864) " points="1058.16003 297.107864 1070.16003 318.107864 1046.16003 318.107864"></polygon>
            <polygon id="Triangle-Copy-52" transform="translate(1206.319058, 308.385673) rotate(143.000000) translate(-1206.319058, -308.385673) " points="1206.31906 297.885673 1218.31906 318.885673 1194.31906 318.885673"></polygon>
            <polygon id="Triangle-Copy-27" transform="translate(460.593248, 301.394192) rotate(106.000000) translate(-460.593248, -301.394192) " points="460.593248 290.894192 472.593248 311.894192 448.593248 311.894192"></polygon>
            <polygon id="Triangle-Copy-22" transform="translate(310.421735, 301.279628) rotate(97.000000) translate(-310.421735, -301.279628) " points="310.421735 290.779628 322.421735 311.779628 298.421735 311.779628"></polygon>
            <polygon id="Triangle-Copy-17" transform="translate(160.460044, 300.915135) rotate(95.000000) translate(-160.460044, -300.915135) " points="160.460044 290.415135 172.460044 311.415135 148.460044 311.415135"></polygon>
            <polygon id="Triangle-Copy-13" transform="translate(10.500000, 150.000000) rotate(90.000000) translate(-10.500000, -150.000000) " points="10.5 139.5 22.5 160.5 -1.5 160.5"></polygon>
            <polygon id="Triangle-Copy-33" transform="translate(609.516232, 153.437492) rotate(115.000000) translate(-609.516232, -153.437492) " points="609.516232 142.937492 621.516232 163.937492 597.516232 163.937492"></polygon>
            <polygon id="Triangle-Copy-38" transform="translate(759.093267, 155.250000) rotate(120.000000) translate(-759.093267, -155.250000) " points="759.093267 144.75 771.093267 165.75 747.093267 165.75"></polygon>
            <polygon id="Triangle-Copy-43" transform="translate(907.924451, 156.888620) rotate(131.000000) translate(-907.924451, -156.888620) " points="907.924451 146.38862 919.924451 167.38862 895.924451 167.38862"></polygon>
            <polygon id="Triangle-Copy-48" transform="translate(1057.160983, 158.679214) rotate(137.000000) translate(-1057.160983, -158.679214) " points="1057.16098 148.179214 1069.16098 169.179214 1045.16098 169.179214"></polygon>
            <polygon id="Triangle-Copy-53" transform="translate(1204.929451, 159.270950) rotate(152.000000) translate(-1204.929451, -159.270950) " points="1204.92945 148.77095 1216.92945 169.77095 1192.92945 169.77095"></polygon>
            <polygon id="Triangle-Copy-58" transform="translate(1352.717600, 160.642221) rotate(165.000000) translate(-1352.717600, -160.642221) " points="1352.7176 150.142221 1364.7176 171.142221 1340.7176 171.142221"></polygon>
            <polygon id="Triangle-Copy-28" transform="translate(460.235430, 152.433369) rotate(112.000000) translate(-460.235430, -152.433369) " points="460.23543 141.933369 472.23543 162.933369 448.23543 162.933369"></polygon>
            <polygon id="Triangle-Copy-21" transform="translate(310.270550, 152.183073) rotate(102.000000) translate(-310.270550, -152.183073) " points="310.27055 141.683073 322.27055 162.683073 298.27055 162.683073"></polygon>
            <polygon id="Triangle-Copy-16" transform="translate(160.421735, 151.279628) rotate(97.000000) translate(-160.421735, -151.279628) " points="160.421735 140.779628 172.421735 161.779628 148.421735 161.779628"></polygon>
            <polygon id="Triangle-Copy-14" transform="translate(10.500000, 12.000000) rotate(90.000000) translate(-10.500000, -12.000000) " points="10.5 1.5 22.5 22.5 -1.5 22.5"></polygon>
            <polygon id="Triangle-Copy-34" transform="translate(609.735430, 15.933369) rotate(112.000000) translate(-609.735430, -15.933369) " points="609.73543 5.43336923 621.73543 26.4333692 597.73543 26.4333692"></polygon>
            <polygon id="Triangle-Copy-39" transform="translate(759.516232, 16.437492) rotate(115.000000) translate(-759.516232, -16.437492) " points="759.516232 5.93749175 771.516232 26.9374917 747.516232 26.9374917"></polygon>
            <polygon id="Triangle-Copy-44" transform="translate(908.806041, 17.718710) rotate(123.000000) translate(-908.806041, -17.718710) " points="908.806041 7.21870987 920.806041 28.2187099 896.806041 28.2187099"></polygon>
            <polygon id="Triangle-Copy-49" transform="translate(1056.319058, 21.385673) rotate(143.000000) translate(-1056.319058, -21.385673) " points="1056.31906 10.8856729 1068.31906 31.8856729 1044.31906 31.8856729"></polygon>
            <polygon id="Triangle-Copy-54" transform="translate(1204.602897, 22.437337) rotate(154.000000) translate(-1204.602897, -22.437337) " points="1204.6029 11.9373375 1216.6029 32.9373375 1192.6029 32.9373375"></polygon>
            <polygon id="Triangle-Copy-59" transform="translate(1352.308710, 22.248050) rotate(165.000000) translate(-1352.308710, -22.248050) " points="1352.30871 11.7480497 1364.30871 32.7480497 1340.30871 32.7480497"></polygon>
            <polygon id="Triangle-Copy-29" transform="translate(460.366773, 16.091212) rotate(110.000000) translate(-460.366773, -16.091212) " points="460.366773 5.5912115 472.366773 26.5912115 448.366773 26.5912115"></polygon>
            <polygon id="Triangle-Copy-20" transform="translate(310.230886, 14.361986) rotate(103.000000) translate(-310.230886, -14.361986) " points="310.230886 3.86198607 322.230886 24.8619861 298.230886 24.8619861"></polygon>
            <polygon id="Triangle-Copy-15" transform="translate(162.930298, 14.054427) rotate(103.000000) translate(-162.930298, -14.054427) " points="162.930298 3.55442685 174.930298 24.5544268 150.930298 24.5544268"></polygon>
            <polygon id="Triangle-Copy-10" points="21 900 0 912 0 888"></polygon>
            <polygon id="Triangle-Copy-55" transform="translate(1357.160983, 892.532443) rotate(-47.000000) translate(-1357.160983, -892.532443) " points="1367.66098 892.532443 1346.66098 904.532443 1346.66098 880.532443"></polygon>
            <polygon id="Triangle-Copy-30" transform="translate(610.397815, 899.538682) scale(1, -1) rotate(98.000000) translate(-610.397815, -899.538682) " points="610.397815 889.038682 622.397815 910.038682 598.397815 910.038682"></polygon>
            <polygon id="Triangle-Copy-35" transform="translate(760.340481, 899.176694) scale(1, -1) rotate(100.000000) translate(-760.340481, -899.176694) " points="760.340481 888.676694 772.340481 909.676694 748.340481 909.676694"></polygon>
            <polygon id="Triangle-Copy-40" transform="translate(910.270550, 898.816927) scale(1, -1) rotate(102.000000) translate(-910.270550, -898.816927) " points="910.27055 888.316927 922.27055 909.316927 898.27055 909.316927"></polygon>
            <polygon id="Triangle-Copy-45" transform="translate(1060.142221, 898.282400) scale(1, -1) rotate(105.000000) translate(-1060.142221, -898.282400) " points="1060.14222 887.7824 1072.14222 908.7824 1048.14222 908.7824"></polygon>
            <polygon id="Triangle-Copy-50" transform="translate(1209.802594, 896.237137) scale(1, -1) rotate(111.000000) translate(-1209.802594, -896.237137) " points="1209.80259 885.737137 1221.80259 906.737137 1197.80259 906.737137"></polygon>
            <polygon id="Triangle-Copy-25" transform="translate(460.897815, 900.038682) scale(1, -1) rotate(98.000000) translate(-460.897815, -900.038682) " points="460.897815 889.538682 472.897815 910.538682 448.897815 910.538682"></polygon>
            <polygon id="Triangle-Copy-24" transform="translate(310.493604, 900.633555) scale(1, -1) rotate(92.000000) translate(-310.493604, -900.633555) " points="310.493604 890.133555 322.493604 911.133555 298.493604 911.133555"></polygon>
            <polygon id="Triangle-Copy-19" transform="translate(160.498401, 900.816750) scale(1, -1) rotate(91.000000) translate(-160.498401, -900.816750) " points="160.498401 890.31675 172.498401 911.31675 148.498401 911.31675"></polygon>
            <polygon id="Triangle-Copy-11" transform="translate(10.500000, 1051.000000) scale(1, -1) rotate(90.000000) translate(-10.500000, -1051.000000) " points="10.5 1040.5 22.5 1061.5 -1.5 1061.5"></polygon>
            <polygon id="Triangle-Copy-31" transform="translate(609.927945, 1048.581534) scale(1, -1) rotate(109.000000) translate(-609.927945, -1048.581534) " points="609.927945 1038.08153 621.927945 1059.08153 597.927945 1059.08153"></polygon>
            <polygon id="Triangle-Copy-36" transform="translate(759.866773, 1047.408788) scale(1, -1) rotate(110.000000) translate(-759.866773, -1047.408788) " points="759.866773 1036.90879 771.866773 1057.90879 747.866773 1057.90879"></polygon>
            <polygon id="Triangle-Copy-41" transform="translate(909.665301, 1046.897323) scale(1, -1) rotate(113.000000) translate(-909.665301, -1046.897323) " points="909.665301 1036.39732 921.665301 1057.39732 897.665301 1057.39732"></polygon>
            <polygon id="Triangle-Copy-46" transform="translate(1059.270950, 1045.070549) scale(1, -1) rotate(118.000000) translate(-1059.270950, -1045.070549) " points="1059.27095 1034.57055 1071.27095 1055.57055 1047.27095 1055.57055"></polygon>
            <polygon id="Triangle-Copy-51" transform="translate(1207.924451, 1043.111380) scale(1, -1) rotate(131.000000) translate(-1207.924451, -1043.111380) " points="1207.92445 1032.61138 1219.92445 1053.61138 1195.92445 1053.61138"></polygon>
            <polygon id="Triangle-Copy-26" transform="translate(460.807085, 1050.496506) scale(1, -1) rotate(101.000000) translate(-460.807085, -1050.496506) " points="460.807085 1039.99651 472.807085 1060.99651 448.807085 1060.99651"></polygon>
            <polygon id="Triangle-Copy-23" transform="translate(310.460044, 1050.084865) scale(1, -1) rotate(95.000000) translate(-310.460044, -1050.084865) " points="310.460044 1039.58486 322.460044 1060.58486 298.460044 1060.58486"></polygon>
            <polygon id="Triangle-Copy-18" transform="translate(160.485610, 1050.450472) scale(1, -1) rotate(93.000000) translate(-160.485610, -1050.450472) " points="160.48561 1039.95047 172.48561 1060.95047 148.48561 1060.95047"></polygon>
            <polygon id="Triangle-Copy-12" points="21 1201 0 1213 0 1189"></polygon>
            <polygon id="Triangle-Copy-56" transform="translate(1353.283166, 1190.344885) rotate(-70.000000) translate(-1353.283166, -1190.344885) " points="1363.78317 1190.34488 1342.78317 1202.34488 1342.78317 1178.34488"></polygon>
            <polygon id="Triangle-Copy-32" transform="translate(609.866773, 1198.408788) scale(1, -1) rotate(110.000000) translate(-609.866773, -1198.408788) " points="609.866773 1187.90879 621.866773 1208.90879 597.866773 1208.90879"></polygon>
            <polygon id="Triangle-Copy-37" transform="translate(759.183507, 1195.909499) scale(1, -1) rotate(119.000000) translate(-759.183507, -1195.909499) " points="759.183507 1185.4095 771.183507 1206.4095 747.183507 1206.4095"></polygon>
            <polygon id="Triangle-Copy-42" transform="translate(908.806041, 1195.281290) scale(1, -1) rotate(123.000000) translate(-908.806041, -1195.281290) " points="908.806041 1184.78129 920.806041 1205.78129 896.806041 1205.78129"></polygon>
            <polygon id="Triangle-Copy-47" transform="translate(1058.160033, 1193.392136) scale(1, -1) rotate(129.000000) translate(-1058.160033, -1193.392136) " points="1058.16003 1182.89214 1070.16003 1203.89214 1046.16003 1203.89214"></polygon>
            <polygon id="Triangle-Copy-52" transform="translate(1206.319058, 1192.614327) scale(1, -1) rotate(143.000000) translate(-1206.319058, -1192.614327) " points="1206.31906 1182.11433 1218.31906 1203.11433 1194.31906 1203.11433"></polygon>
            <polygon id="Triangle-Copy-27" transform="translate(460.593248, 1199.605808) scale(1, -1) rotate(106.000000) translate(-460.593248, -1199.605808) " points="460.593248 1189.10581 472.593248 1210.10581 448.593248 1210.10581"></polygon>
            <polygon id="Triangle-Copy-22" transform="translate(310.421735, 1199.720372) scale(1, -1) rotate(97.000000) translate(-310.421735, -1199.720372) " points="310.421735 1189.22037 322.421735 1210.22037 298.421735 1210.22037"></polygon>
            <polygon id="Triangle-Copy-17" transform="translate(160.460044, 1200.084865) scale(1, -1) rotate(95.000000) translate(-160.460044, -1200.084865) " points="160.460044 1189.58486 172.460044 1210.58486 148.460044 1210.58486"></polygon>
            <polygon id="Triangle-Copy-13" transform="translate(10.500000, 1351.000000) scale(1, -1) rotate(90.000000) translate(-10.500000, -1351.000000) " points="10.5 1340.5 22.5 1361.5 -1.5 1361.5"></polygon>
            <polygon id="Triangle-Copy-33" transform="translate(609.516232, 1347.562508) scale(1, -1) rotate(115.000000) translate(-609.516232, -1347.562508) " points="609.516232 1337.06251 621.516232 1358.06251 597.516232 1358.06251"></polygon>
            <polygon id="Triangle-Copy-38" transform="translate(759.093267, 1345.750000) scale(1, -1) rotate(120.000000) translate(-759.093267, -1345.750000) " points="759.093267 1335.25 771.093267 1356.25 747.093267 1356.25"></polygon>
            <polygon id="Triangle-Copy-43" transform="translate(907.924451, 1344.111380) scale(1, -1) rotate(131.000000) translate(-907.924451, -1344.111380) " points="907.924451 1333.61138 919.924451 1354.61138 895.924451 1354.61138"></polygon>
            <polygon id="Triangle-Copy-48" transform="translate(1057.160983, 1342.320786) scale(1, -1) rotate(137.000000) translate(-1057.160983, -1342.320786) " points="1057.16098 1331.82079 1069.16098 1352.82079 1045.16098 1352.82079"></polygon>
            <polygon id="Triangle-Copy-53" transform="translate(1204.929451, 1341.729050) scale(1, -1) rotate(152.000000) translate(-1204.929451, -1341.729050) " points="1204.92945 1331.22905 1216.92945 1352.22905 1192.92945 1352.22905"></polygon>
            <polygon id="Triangle-Copy-58" transform="translate(1352.717600, 1340.357779) scale(1, -1) rotate(165.000000) translate(-1352.717600, -1340.357779) " points="1352.7176 1329.85778 1364.7176 1350.85778 1340.7176 1350.85778"></polygon>
            <polygon id="Triangle-Copy-28" transform="translate(460.235430, 1348.566631) scale(1, -1) rotate(112.000000) translate(-460.235430, -1348.566631) " points="460.23543 1338.06663 472.23543 1359.06663 448.23543 1359.06663"></polygon>
            <polygon id="Triangle-Copy-21" transform="translate(310.270550, 1348.816927) scale(1, -1) rotate(102.000000) translate(-310.270550, -1348.816927) " points="310.27055 1338.31693 322.27055 1359.31693 298.27055 1359.31693"></polygon>
            <polygon id="Triangle-Copy-16" transform="translate(160.421735, 1349.720372) scale(1, -1) rotate(97.000000) translate(-160.421735, -1349.720372) " points="160.421735 1339.22037 172.421735 1360.22037 148.421735 1360.22037"></polygon>
            <polygon id="Triangle-Copy-14" transform="translate(10.500000, 1489.000000) scale(1, -1) rotate(90.000000) translate(-10.500000, -1489.000000) " points="10.5 1478.5 22.5 1499.5 -1.5 1499.5"></polygon>
            <polygon id="Triangle-Copy-34" transform="translate(609.735430, 1485.066631) scale(1, -1) rotate(112.000000) translate(-609.735430, -1485.066631) " points="609.73543 1474.56663 621.73543 1495.56663 597.73543 1495.56663"></polygon>
            <polygon id="Triangle-Copy-39" transform="translate(759.516232, 1484.562508) scale(1, -1) rotate(115.000000) translate(-759.516232, -1484.562508) " points="759.516232 1474.06251 771.516232 1495.06251 747.516232 1495.06251"></polygon>
            <polygon id="Triangle-Copy-44" transform="translate(908.806041, 1483.281290) scale(1, -1) rotate(123.000000) translate(-908.806041, -1483.281290) " points="908.806041 1472.78129 920.806041 1493.78129 896.806041 1493.78129"></polygon>
            <polygon id="Triangle-Copy-49" transform="translate(1056.319058, 1479.614327) scale(1, -1) rotate(143.000000) translate(-1056.319058, -1479.614327) " points="1056.31906 1469.11433 1068.31906 1490.11433 1044.31906 1490.11433"></polygon>
            <polygon id="Triangle-Copy-54" transform="translate(1204.602897, 1478.562663) scale(1, -1) rotate(154.000000) translate(-1204.602897, -1478.562663) " points="1204.6029 1468.06266 1216.6029 1489.06266 1192.6029 1489.06266"></polygon>
            <polygon id="Triangle-Copy-59" transform="translate(1352.308710, 1478.751950) scale(1, -1) rotate(165.000000) translate(-1352.308710, -1478.751950) " points="1352.30871 1468.25195 1364.30871 1489.25195 1340.30871 1489.25195"></polygon>
            <polygon id="Triangle-Copy-29" transform="translate(460.366773, 1484.908788) scale(1, -1) rotate(110.000000) translate(-460.366773, -1484.908788) " points="460.366773 1474.40879 472.366773 1495.40879 448.366773 1495.40879"></polygon>
            <polygon id="Triangle-Copy-20" transform="translate(310.230886, 1486.638014) scale(1, -1) rotate(103.000000) translate(-310.230886, -1486.638014) " points="310.230886 1476.13801 322.230886 1497.13801 298.230886 1497.13801"></polygon>
            <polygon id="Triangle-Copy-15" transform="translate(162.930298, 1486.945573) scale(1, -1) rotate(103.000000) translate(-162.930298, -1486.945573) " points="162.930298 1476.44557 174.930298 1497.44557 150.930298 1497.44557"></polygon>
            <polygon id="Triangle-Copy" transform="translate(160.500000, 750.000000) rotate(90.000000) translate(-160.500000, -750.000000) " points="160.5 739.5 172.5 760.5 148.5 760.5"></polygon>
            <polygon id="Triangle-Copy-2" transform="translate(310.500000, 750.000000) rotate(90.000000) translate(-310.500000, -750.000000) " points="310.5 739.5 322.5 760.5 298.5 760.5"></polygon>
            <polygon id="Triangle-Copy-3" transform="translate(460.500000, 750.000000) rotate(90.000000) translate(-460.500000, -750.000000) " points="460.5 739.5 472.5 760.5 448.5 760.5"></polygon>
            <polygon id="Triangle-Copy-4" transform="translate(610.500000, 750.000000) rotate(90.000000) translate(-610.500000, -750.000000) " points="610.5 739.5 622.5 760.5 598.5 760.5"></polygon>
            <polygon id="Triangle-Copy-5" transform="translate(760.500000, 750.000000) rotate(90.000000) translate(-760.500000, -750.000000) " points="760.5 739.5 772.5 760.5 748.5 760.5"></polygon>
            <polygon id="Triangle-Copy-6" transform="translate(910.500000, 750.000000) rotate(90.000000) translate(-910.500000, -750.000000) " points="910.5 739.5 922.5 760.5 898.5 760.5"></polygon>
            <polygon id="Triangle-Copy-7" transform="translate(1060.500000, 750.000000) rotate(90.000000) translate(-1060.500000, -750.000000) " points="1060.5 739.5 1072.5 760.5 1048.5 760.5"></polygon>
            <polygon id="Triangle-Copy-8" transform="translate(1210.500000, 750.000000) rotate(90.000000) translate(-1210.500000, -750.000000) " points="1210.5 739.5 1222.5 760.5 1198.5 760.5"></polygon>
            <polygon id="Triangle-Copy-9" transform="translate(1360.500000, 750.000000) rotate(90.000000) translate(-1360.500000, -750.000000) " points="1360.5 739.5 1372.5 760.5 1348.5 760.5"></polygon>
            <polygon id="Triangle" transform="translate(2989.500000, 750.000000) scale(-1, 1) rotate(90.000000) translate(-2989.500000, -750.000000) " points="2989.5 739.5 3001.5 760.5 2977.5 760.5"></polygon>
            <polygon id="Triangle-Copy-10" transform="translate(2989.500000, 601.000000) scale(-1, 1) rotate(90.000000) translate(-2989.500000, -601.000000) " points="2989.5 590.5 3001.5 611.5 2977.5 611.5"></polygon>
            <polygon id="Triangle-Copy-30" transform="translate(2389.602185, 601.461318) scale(-1, 1) rotate(98.000000) translate(-2389.602185, -601.461318) " points="2389.60219 590.961318 2401.60219 611.961318 2377.60219 611.961318"></polygon>
            <polygon id="Triangle-Copy-35" transform="translate(2239.659519, 601.823306) scale(-1, 1) rotate(100.000000) translate(-2239.659519, -601.823306) " points="2239.65952 591.323306 2251.65952 612.323306 2227.65952 612.323306"></polygon>
            <polygon id="Triangle-Copy-40" transform="translate(2089.729450, 602.183073) scale(-1, 1) rotate(102.000000) translate(-2089.729450, -602.183073) " points="2089.72945 591.683073 2101.72945 612.683073 2077.72945 612.683073"></polygon>
            <polygon id="Triangle-Copy-45" transform="translate(1939.857779, 602.717600) scale(-1, 1) rotate(105.000000) translate(-1939.857779, -602.717600) " points="1939.85778 592.2176 1951.85778 613.2176 1927.85778 613.2176"></polygon>
            <polygon id="Triangle-Copy-50" transform="translate(1790.197406, 604.762863) scale(-1, 1) rotate(111.000000) translate(-1790.197406, -604.762863) " points="1790.19741 594.262863 1802.19741 615.262863 1778.19741 615.262863"></polygon>
            <polygon id="Triangle-Copy-25" transform="translate(2539.102185, 600.961318) scale(-1, 1) rotate(98.000000) translate(-2539.102185, -600.961318) " points="2539.10219 590.461318 2551.10219 611.461318 2527.10219 611.461318"></polygon>
            <polygon id="Triangle-Copy-24" transform="translate(2689.506396, 600.366445) scale(-1, 1) rotate(92.000000) translate(-2689.506396, -600.366445) " points="2689.5064 589.866445 2701.5064 610.866445 2677.5064 610.866445"></polygon>
            <polygon id="Triangle-Copy-19" transform="translate(2839.501599, 600.183250) scale(-1, 1) rotate(91.000000) translate(-2839.501599, -600.183250) " points="2839.5016 589.68325 2851.5016 610.68325 2827.5016 610.68325"></polygon>
            <polygon id="Triangle-Copy-11" transform="translate(2989.500000, 450.000000) scale(-1, 1) rotate(90.000000) translate(-2989.500000, -450.000000) " points="2989.5 439.5 3001.5 460.5 2977.5 460.5"></polygon>
            <polygon id="Triangle-Copy-31" transform="translate(2390.072055, 452.418466) scale(-1, 1) rotate(109.000000) translate(-2390.072055, -452.418466) " points="2390.07205 441.918466 2402.07205 462.918466 2378.07205 462.918466"></polygon>
            <polygon id="Triangle-Copy-36" transform="translate(2240.133227, 453.591212) scale(-1, 1) rotate(110.000000) translate(-2240.133227, -453.591212) " points="2240.13323 443.091212 2252.13323 464.091212 2228.13323 464.091212"></polygon>
            <polygon id="Triangle-Copy-41" transform="translate(2090.334699, 454.102677) scale(-1, 1) rotate(113.000000) translate(-2090.334699, -454.102677) " points="2090.3347 443.602677 2102.3347 464.602677 2078.3347 464.602677"></polygon>
            <polygon id="Triangle-Copy-46" transform="translate(1940.729050, 455.929451) scale(-1, 1) rotate(118.000000) translate(-1940.729050, -455.929451) " points="1940.72905 445.429451 1952.72905 466.429451 1928.72905 466.429451"></polygon>
            <polygon id="Triangle-Copy-51" transform="translate(1792.075549, 457.888620) scale(-1, 1) rotate(131.000000) translate(-1792.075549, -457.888620) " points="1792.07555 447.38862 1804.07555 468.38862 1780.07555 468.38862"></polygon>
            <polygon id="Triangle-Copy-26" transform="translate(2539.192915, 450.503494) scale(-1, 1) rotate(101.000000) translate(-2539.192915, -450.503494) " points="2539.19291 440.003494 2551.19291 461.003494 2527.19291 461.003494"></polygon>
            <polygon id="Triangle-Copy-23" transform="translate(2689.539956, 450.915135) scale(-1, 1) rotate(95.000000) translate(-2689.539956, -450.915135) " points="2689.53996 440.415135 2701.53996 461.415135 2677.53996 461.415135"></polygon>
            <polygon id="Triangle-Copy-18" transform="translate(2839.514390, 450.549528) scale(-1, 1) rotate(93.000000) translate(-2839.514390, -450.549528) " points="2839.51439 440.049528 2851.51439 461.049528 2827.51439 461.049528"></polygon>
            <polygon id="Triangle-Copy-12" transform="translate(2989.500000, 300.000000) scale(-1, 1) rotate(90.000000) translate(-2989.500000, -300.000000) " points="2989.5 289.5 3001.5 310.5 2977.5 310.5"></polygon>
            <polygon id="Triangle-Copy-32" transform="translate(2390.133227, 302.591212) scale(-1, 1) rotate(110.000000) translate(-2390.133227, -302.591212) " points="2390.13323 292.091212 2402.13323 313.091212 2378.13323 313.091212"></polygon>
            <polygon id="Triangle-Copy-37" transform="translate(2240.816493, 305.090501) scale(-1, 1) rotate(119.000000) translate(-2240.816493, -305.090501) " points="2240.81649 294.590501 2252.81649 315.590501 2228.81649 315.590501"></polygon>
            <polygon id="Triangle-Copy-42" transform="translate(2091.193959, 305.718710) scale(-1, 1) rotate(123.000000) translate(-2091.193959, -305.718710) " points="2091.19396 295.21871 2103.19396 316.21871 2079.19396 316.21871"></polygon>
            <polygon id="Triangle-Copy-47" transform="translate(1941.839967, 307.607864) scale(-1, 1) rotate(129.000000) translate(-1941.839967, -307.607864) " points="1941.83997 297.107864 1953.83997 318.107864 1929.83997 318.107864"></polygon>
            <polygon id="Triangle-Copy-52" transform="translate(1793.680942, 308.385673) scale(-1, 1) rotate(143.000000) translate(-1793.680942, -308.385673) " points="1793.68094 297.885673 1805.68094 318.885673 1781.68094 318.885673"></polygon>
            <polygon id="Triangle-Copy-27" transform="translate(2539.406752, 301.394192) scale(-1, 1) rotate(106.000000) translate(-2539.406752, -301.394192) " points="2539.40675 290.894192 2551.40675 311.894192 2527.40675 311.894192"></polygon>
            <polygon id="Triangle-Copy-22" transform="translate(2689.578265, 301.279628) scale(-1, 1) rotate(97.000000) translate(-2689.578265, -301.279628) " points="2689.57827 290.779628 2701.57827 311.779628 2677.57827 311.779628"></polygon>
            <polygon id="Triangle-Copy-17" transform="translate(2839.539956, 300.915135) scale(-1, 1) rotate(95.000000) translate(-2839.539956, -300.915135) " points="2839.53996 290.415135 2851.53996 311.415135 2827.53996 311.415135"></polygon>
            <polygon id="Triangle-Copy-13" transform="translate(2989.500000, 150.000000) scale(-1, 1) rotate(90.000000) translate(-2989.500000, -150.000000) " points="2989.5 139.5 3001.5 160.5 2977.5 160.5"></polygon>
            <polygon id="Triangle-Copy-33" transform="translate(2390.483768, 153.437492) scale(-1, 1) rotate(115.000000) translate(-2390.483768, -153.437492) " points="2390.48377 142.937492 2402.48377 163.937492 2378.48377 163.937492"></polygon>
            <polygon id="Triangle-Copy-38" transform="translate(2240.906733, 155.250000) scale(-1, 1) rotate(120.000000) translate(-2240.906733, -155.250000) " points="2240.90673 144.75 2252.90673 165.75 2228.90673 165.75"></polygon>
            <polygon id="Triangle-Copy-43" transform="translate(2092.075549, 156.888620) scale(-1, 1) rotate(131.000000) translate(-2092.075549, -156.888620) " points="2092.07555 146.38862 2104.07555 167.38862 2080.07555 167.38862"></polygon>
            <polygon id="Triangle-Copy-48" transform="translate(1942.839017, 158.679214) scale(-1, 1) rotate(137.000000) translate(-1942.839017, -158.679214) " points="1942.83902 148.179214 1954.83902 169.179214 1930.83902 169.179214"></polygon>
            <polygon id="Triangle-Copy-53" transform="translate(1795.070549, 159.270950) scale(-1, 1) rotate(152.000000) translate(-1795.070549, -159.270950) " points="1795.07055 148.77095 1807.07055 169.77095 1783.07055 169.77095"></polygon>
            <polygon id="Triangle-Copy-58" transform="translate(1647.282400, 160.642221) scale(-1, 1) rotate(165.000000) translate(-1647.282400, -160.642221) " points="1647.2824 150.142221 1659.2824 171.142221 1635.2824 171.142221"></polygon>
            <polygon id="Triangle-Copy-28" transform="translate(2539.764570, 152.433369) scale(-1, 1) rotate(112.000000) translate(-2539.764570, -152.433369) " points="2539.76457 141.933369 2551.76457 162.933369 2527.76457 162.933369"></polygon>
            <polygon id="Triangle-Copy-21" transform="translate(2689.729450, 152.183073) scale(-1, 1) rotate(102.000000) translate(-2689.729450, -152.183073) " points="2689.72945 141.683073 2701.72945 162.683073 2677.72945 162.683073"></polygon>
            <polygon id="Triangle-Copy-16" transform="translate(2839.578265, 151.279628) scale(-1, 1) rotate(97.000000) translate(-2839.578265, -151.279628) " points="2839.57827 140.779628 2851.57827 161.779628 2827.57827 161.779628"></polygon>
            <polygon id="Triangle-Copy-14" transform="translate(2989.500000, 12.000000) scale(-1, 1) rotate(90.000000) translate(-2989.500000, -12.000000) " points="2989.5 1.5 3001.5 22.5 2977.5 22.5"></polygon>
            <polygon id="Triangle-Copy-34" transform="translate(2390.264570, 15.933369) scale(-1, 1) rotate(112.000000) translate(-2390.264570, -15.933369) " points="2390.26457 5.43336923 2402.26457 26.4333692 2378.26457 26.4333692"></polygon>
            <polygon id="Triangle-Copy-39" transform="translate(2240.483768, 16.437492) scale(-1, 1) rotate(115.000000) translate(-2240.483768, -16.437492) " points="2240.48377 5.93749175 2252.48377 26.9374917 2228.48377 26.9374917"></polygon>
            <polygon id="Triangle-Copy-44" transform="translate(2091.193959, 17.718710) scale(-1, 1) rotate(123.000000) translate(-2091.193959, -17.718710) " points="2091.19396 7.21870987 2103.19396 28.2187099 2079.19396 28.2187099"></polygon>
            <polygon id="Triangle-Copy-49" transform="translate(1943.680942, 21.385673) scale(-1, 1) rotate(143.000000) translate(-1943.680942, -21.385673) " points="1943.68094 10.8856729 1955.68094 31.8856729 1931.68094 31.8856729"></polygon>
            <polygon id="Triangle-Copy-54" transform="translate(1795.397103, 22.437337) scale(-1, 1) rotate(154.000000) translate(-1795.397103, -22.437337) " points="1795.3971 11.9373375 1807.3971 32.9373375 1783.3971 32.9373375"></polygon>
            <polygon id="Triangle-Copy-59" transform="translate(1647.691290, 22.248050) scale(-1, 1) rotate(165.000000) translate(-1647.691290, -22.248050) " points="1647.69129 11.7480497 1659.69129 32.7480497 1635.69129 32.7480497"></polygon>
            <polygon id="Triangle-Copy-29" transform="translate(2539.633227, 16.091212) scale(-1, 1) rotate(110.000000) translate(-2539.633227, -16.091212) " points="2539.63323 5.5912115 2551.63323 26.5912115 2527.63323 26.5912115"></polygon>
            <polygon id="Triangle-Copy-20" transform="translate(2689.769114, 14.361986) scale(-1, 1) rotate(103.000000) translate(-2689.769114, -14.361986) " points="2689.76911 3.86198607 2701.76911 24.8619861 2677.76911 24.8619861"></polygon>
            <polygon id="Triangle-Copy-15" transform="translate(2837.069702, 14.054427) scale(-1, 1) rotate(103.000000) translate(-2837.069702, -14.054427) " points="2837.0697 3.55442685 2849.0697 24.5544268 2825.0697 24.5544268"></polygon>
            <polygon id="Triangle-Copy-10" transform="translate(2989.500000, 900.000000) scale(-1, 1) translate(-2989.500000, -900.000000) " points="3000 900 2979 912 2979 888"></polygon>
            <polygon id="Triangle-Copy-55" transform="translate(1642.839017, 892.532443) scale(-1, 1) rotate(-47.000000) translate(-1642.839017, -892.532443) " points="1653.33902 892.532443 1632.33902 904.532443 1632.33902 880.532443"></polygon>
            <polygon id="Triangle-Copy-30" transform="translate(2389.602185, 899.538682) scale(-1, -1) rotate(98.000000) translate(-2389.602185, -899.538682) " points="2389.60219 889.038682 2401.60219 910.038682 2377.60219 910.038682"></polygon>
            <polygon id="Triangle-Copy-35" transform="translate(2239.659519, 899.176694) scale(-1, -1) rotate(100.000000) translate(-2239.659519, -899.176694) " points="2239.65952 888.676694 2251.65952 909.676694 2227.65952 909.676694"></polygon>
            <polygon id="Triangle-Copy-40" transform="translate(2089.729450, 898.816927) scale(-1, -1) rotate(102.000000) translate(-2089.729450, -898.816927) " points="2089.72945 888.316927 2101.72945 909.316927 2077.72945 909.316927"></polygon>
            <polygon id="Triangle-Copy-45" transform="translate(1939.857779, 898.282400) scale(-1, -1) rotate(105.000000) translate(-1939.857779, -898.282400) " points="1939.85778 887.7824 1951.85778 908.7824 1927.85778 908.7824"></polygon>
            <polygon id="Triangle-Copy-50" transform="translate(1790.197406, 896.237137) scale(-1, -1) rotate(111.000000) translate(-1790.197406, -896.237137) " points="1790.19741 885.737137 1802.19741 906.737137 1778.19741 906.737137"></polygon>
            <polygon id="Triangle-Copy-25" transform="translate(2539.102185, 900.038682) scale(-1, -1) rotate(98.000000) translate(-2539.102185, -900.038682) " points="2539.10219 889.538682 2551.10219 910.538682 2527.10219 910.538682"></polygon>
            <polygon id="Triangle-Copy-24" transform="translate(2689.506396, 900.633555) scale(-1, -1) rotate(92.000000) translate(-2689.506396, -900.633555) " points="2689.5064 890.133555 2701.5064 911.133555 2677.5064 911.133555"></polygon>
            <polygon id="Triangle-Copy-19" transform="translate(2839.501599, 900.816750) scale(-1, -1) rotate(91.000000) translate(-2839.501599, -900.816750) " points="2839.5016 890.31675 2851.5016 911.31675 2827.5016 911.31675"></polygon>
            <polygon id="Triangle-Copy-11" transform="translate(2989.500000, 1051.000000) scale(-1, -1) rotate(90.000000) translate(-2989.500000, -1051.000000) " points="2989.5 1040.5 3001.5 1061.5 2977.5 1061.5"></polygon>
            <polygon id="Triangle-Copy-31" transform="translate(2390.072055, 1048.581534) scale(-1, -1) rotate(109.000000) translate(-2390.072055, -1048.581534) " points="2390.07205 1038.08153 2402.07205 1059.08153 2378.07205 1059.08153"></polygon>
            <polygon id="Triangle-Copy-36" transform="translate(2240.133227, 1047.408788) scale(-1, -1) rotate(110.000000) translate(-2240.133227, -1047.408788) " points="2240.13323 1036.90879 2252.13323 1057.90879 2228.13323 1057.90879"></polygon>
            <polygon id="Triangle-Copy-41" transform="translate(2090.334699, 1046.897323) scale(-1, -1) rotate(113.000000) translate(-2090.334699, -1046.897323) " points="2090.3347 1036.39732 2102.3347 1057.39732 2078.3347 1057.39732"></polygon>
            <polygon id="Triangle-Copy-46" transform="translate(1940.729050, 1045.070549) scale(-1, -1) rotate(118.000000) translate(-1940.729050, -1045.070549) " points="1940.72905 1034.57055 1952.72905 1055.57055 1928.72905 1055.57055"></polygon>
            <polygon id="Triangle-Copy-51" transform="translate(1792.075549, 1043.111380) scale(-1, -1) rotate(131.000000) translate(-1792.075549, -1043.111380) " points="1792.07555 1032.61138 1804.07555 1053.61138 1780.07555 1053.61138"></polygon>
            <polygon id="Triangle-Copy-26" transform="translate(2539.192915, 1050.496506) scale(-1, -1) rotate(101.000000) translate(-2539.192915, -1050.496506) " points="2539.19291 1039.99651 2551.19291 1060.99651 2527.19291 1060.99651"></polygon>
            <polygon id="Triangle-Copy-23" transform="translate(2689.539956, 1050.084865) scale(-1, -1) rotate(95.000000) translate(-2689.539956, -1050.084865) " points="2689.53996 1039.58486 2701.53996 1060.58486 2677.53996 1060.58486"></polygon>
            <polygon id="Triangle-Copy-18" transform="translate(2839.514390, 1050.450472) scale(-1, -1) rotate(93.000000) translate(-2839.514390, -1050.450472) " points="2839.51439 1039.95047 2851.51439 1060.95047 2827.51439 1060.95047"></polygon>
            <polygon id="Triangle-Copy-12" transform="translate(2989.500000, 1201.000000) scale(-1, 1) translate(-2989.500000, -1201.000000) " points="3000 1201 2979 1213 2979 1189"></polygon>
            <polygon id="Triangle-Copy-56" transform="translate(1646.716834, 1190.344885) scale(-1, 1) rotate(-70.000000) translate(-1646.716834, -1190.344885) " points="1657.21683 1190.34488 1636.21683 1202.34488 1636.21683 1178.34488"></polygon>
            <polygon id="Triangle-Copy-32" transform="translate(2390.133227, 1198.408788) scale(-1, -1) rotate(110.000000) translate(-2390.133227, -1198.408788) " points="2390.13323 1187.90879 2402.13323 1208.90879 2378.13323 1208.90879"></polygon>
            <polygon id="Triangle-Copy-37" transform="translate(2240.816493, 1195.909499) scale(-1, -1) rotate(119.000000) translate(-2240.816493, -1195.909499) " points="2240.81649 1185.4095 2252.81649 1206.4095 2228.81649 1206.4095"></polygon>
            <polygon id="Triangle-Copy-42" transform="translate(2091.193959, 1195.281290) scale(-1, -1) rotate(123.000000) translate(-2091.193959, -1195.281290) " points="2091.19396 1184.78129 2103.19396 1205.78129 2079.19396 1205.78129"></polygon>
            <polygon id="Triangle-Copy-47" transform="translate(1941.839967, 1193.392136) scale(-1, -1) rotate(129.000000) translate(-1941.839967, -1193.392136) " points="1941.83997 1182.89214 1953.83997 1203.89214 1929.83997 1203.89214"></polygon>
            <polygon id="Triangle-Copy-52" transform="translate(1793.680942, 1192.614327) scale(-1, -1) rotate(143.000000) translate(-1793.680942, -1192.614327) " points="1793.68094 1182.11433 1805.68094 1203.11433 1781.68094 1203.11433"></polygon>
            <polygon id="Triangle-Copy-27" transform="translate(2539.406752, 1199.605808) scale(-1, -1) rotate(106.000000) translate(-2539.406752, -1199.605808) " points="2539.40675 1189.10581 2551.40675 1210.10581 2527.40675 1210.10581"></polygon>
            <polygon id="Triangle-Copy-22" transform="translate(2689.578265, 1199.720372) scale(-1, -1) rotate(97.000000) translate(-2689.578265, -1199.720372) " points="2689.57827 1189.22037 2701.57827 1210.22037 2677.57827 1210.22037"></polygon>
            <polygon id="Triangle-Copy-17" transform="translate(2839.539956, 1200.084865) scale(-1, -1) rotate(95.000000) translate(-2839.539956, -1200.084865) " points="2839.53996 1189.58486 2851.53996 1210.58486 2827.53996 1210.58486"></polygon>
            <polygon id="Triangle-Copy-13" transform="translate(2989.500000, 1351.000000) scale(-1, -1) rotate(90.000000) translate(-2989.500000, -1351.000000) " points="2989.5 1340.5 3001.5 1361.5 2977.5 1361.5"></polygon>
            <polygon id="Triangle-Copy-33" transform="translate(2390.483768, 1347.562508) scale(-1, -1) rotate(115.000000) translate(-2390.483768, -1347.562508) " points="2390.48377 1337.06251 2402.48377 1358.06251 2378.48377 1358.06251"></polygon>
            <polygon id="Triangle-Copy-38" transform="translate(2240.906733, 1345.750000) scale(-1, -1) rotate(120.000000) translate(-2240.906733, -1345.750000) " points="2240.90673 1335.25 2252.90673 1356.25 2228.90673 1356.25"></polygon>
            <polygon id="Triangle-Copy-43" transform="translate(2092.075549, 1344.111380) scale(-1, -1) rotate(131.000000) translate(-2092.075549, -1344.111380) " points="2092.07555 1333.61138 2104.07555 1354.61138 2080.07555 1354.61138"></polygon>
            <polygon id="Triangle-Copy-48" transform="translate(1942.839017, 1342.320786) scale(-1, -1) rotate(137.000000) translate(-1942.839017, -1342.320786) " points="1942.83902 1331.82079 1954.83902 1352.82079 1930.83902 1352.82079"></polygon>
            <polygon id="Triangle-Copy-53" transform="translate(1795.070549, 1341.729050) scale(-1, -1) rotate(152.000000) translate(-1795.070549, -1341.729050) " points="1795.07055 1331.22905 1807.07055 1352.22905 1783.07055 1352.22905"></polygon>
            <polygon id="Triangle-Copy-58" transform="translate(1647.282400, 1340.357779) scale(-1, -1) rotate(165.000000) translate(-1647.282400, -1340.357779) " points="1647.2824 1329.85778 1659.2824 1350.85778 1635.2824 1350.85778"></polygon>
            <polygon id="Triangle-Copy-28" transform="translate(2539.764570, 1348.566631) scale(-1, -1) rotate(112.000000) translate(-2539.764570, -1348.566631) " points="2539.76457 1338.06663 2551.76457 1359.06663 2527.76457 1359.06663"></polygon>
            <polygon id="Triangle-Copy-21" transform="translate(2689.729450, 1348.816927) scale(-1, -1) rotate(102.000000) translate(-2689.729450, -1348.816927) " points="2689.72945 1338.31693 2701.72945 1359.31693 2677.72945 1359.31693"></polygon>
            <polygon id="Triangle-Copy-16" transform="translate(2839.578265, 1349.720372) scale(-1, -1) rotate(97.000000) translate(-2839.578265, -1349.720372) " points="2839.57827 1339.22037 2851.57827 1360.22037 2827.57827 1360.22037"></polygon>
            <polygon id="Triangle-Copy-14" transform="translate(2989.500000, 1489.000000) scale(-1, -1) rotate(90.000000) translate(-2989.500000, -1489.000000) " points="2989.5 1478.5 3001.5 1499.5 2977.5 1499.5"></polygon>
            <polygon id="Triangle-Copy-34" transform="translate(2390.264570, 1485.066631) scale(-1, -1) rotate(112.000000) translate(-2390.264570, -1485.066631) " points="2390.26457 1474.56663 2402.26457 1495.56663 2378.26457 1495.56663"></polygon>
            <polygon id="Triangle-Copy-39" transform="translate(2240.483768, 1484.562508) scale(-1, -1) rotate(115.000000) translate(-2240.483768, -1484.562508) " points="2240.48377 1474.06251 2252.48377 1495.06251 2228.48377 1495.06251"></polygon>
            <polygon id="Triangle-Copy-44" transform="translate(2091.193959, 1483.281290) scale(-1, -1) rotate(123.000000) translate(-2091.193959, -1483.281290) " points="2091.19396 1472.78129 2103.19396 1493.78129 2079.19396 1493.78129"></polygon>
            <polygon id="Triangle-Copy-49" transform="translate(1943.680942, 1479.614327) scale(-1, -1) rotate(143.000000) translate(-1943.680942, -1479.614327) " points="1943.68094 1469.11433 1955.68094 1490.11433 1931.68094 1490.11433"></polygon>
            <polygon id="Triangle-Copy-54" transform="translate(1795.397103, 1478.562663) scale(-1, -1) rotate(154.000000) translate(-1795.397103, -1478.562663) " points="1795.3971 1468.06266 1807.3971 1489.06266 1783.3971 1489.06266"></polygon>
            <polygon id="Triangle-Copy-59" transform="translate(1647.691290, 1478.751950) scale(-1, -1) rotate(165.000000) translate(-1647.691290, -1478.751950) " points="1647.69129 1468.25195 1659.69129 1489.25195 1635.69129 1489.25195"></polygon>
            <polygon id="Triangle-Copy-29" transform="translate(2539.633227, 1484.908788) scale(-1, -1) rotate(110.000000) translate(-2539.633227, -1484.908788) " points="2539.63323 1474.40879 2551.63323 1495.40879 2527.63323 1495.40879"></polygon>
            <polygon id="Triangle-Copy-20" transform="translate(2689.769114, 1486.638014) scale(-1, -1) rotate(103.000000) translate(-2689.769114, -1486.638014) " points="2689.76911 1476.13801 2701.76911 1497.13801 2677.76911 1497.13801"></polygon>
            <polygon id="Triangle-Copy-15" transform="translate(2837.069702, 1486.945573) scale(-1, -1) rotate(103.000000) translate(-2837.069702, -1486.945573) " points="2837.0697 1476.44557 2849.0697 1497.44557 2825.0697 1497.44557"></polygon>
            <polygon id="Triangle-Copy" transform="translate(2839.500000, 750.000000) scale(-1, 1) rotate(90.000000) translate(-2839.500000, -750.000000) " points="2839.5 739.5 2851.5 760.5 2827.5 760.5"></polygon>
            <polygon id="Triangle-Copy-2" transform="translate(2689.500000, 750.000000) scale(-1, 1) rotate(90.000000) translate(-2689.500000, -750.000000) " points="2689.5 739.5 2701.5 760.5 2677.5 760.5"></polygon>
            <polygon id="Triangle-Copy-3" transform="translate(2539.500000, 750.000000) scale(-1, 1) rotate(90.000000) translate(-2539.500000, -750.000000) " points="2539.5 739.5 2551.5 760.5 2527.5 760.5"></polygon>
            <polygon id="Triangle-Copy-4" transform="translate(2389.500000, 750.000000) scale(-1, 1) rotate(90.000000) translate(-2389.500000, -750.000000) " points="2389.5 739.5 2401.5 760.5 2377.5 760.5"></polygon>
            <polygon id="Triangle-Copy-5" transform="translate(2239.500000, 750.000000) scale(-1, 1) rotate(90.000000) translate(-2239.500000, -750.000000) " points="2239.5 739.5 2251.5 760.5 2227.5 760.5"></polygon>
            <polygon id="Triangle-Copy-6" transform="translate(2089.500000, 750.000000) scale(-1, 1) rotate(90.000000) translate(-2089.500000, -750.000000) " points="2089.5 739.5 2101.5 760.5 2077.5 760.5"></polygon>
            <polygon id="Triangle-Copy-7" transform="translate(1939.500000, 750.000000) scale(-1, 1) rotate(90.000000) translate(-1939.500000, -750.000000) " points="1939.5 739.5 1951.5 760.5 1927.5 760.5"></polygon>
            <polygon id="Triangle-Copy-8" transform="translate(1789.500000, 750.000000) scale(-1, 1) rotate(90.000000) translate(-1789.500000, -750.000000) " points="1789.5 739.5 1801.5 760.5 1777.5 760.5"></polygon>
            <polygon id="Triangle-Copy-9" transform="translate(1639.500000, 750.000000) scale(-1, 1) rotate(90.000000) translate(-1639.500000, -750.000000) " points="1639.5 739.5 1651.5 760.5 1627.5 760.5"></polygon>
            <polygon id="Triangle-Copy-60" transform="translate(1500.000000, 22.500000) rotate(180.000000) translate(-1500.000000, -22.500000) " points="1500 12 1512 33 1488 33"></polygon>
            <polygon id="Triangle-Copy-61" transform="translate(1500.000000, 160.500000) rotate(180.000000) translate(-1500.000000, -160.500000) " points="1500 150 1512 171 1488 171"></polygon>
            <polygon id="Triangle-Copy-60" transform="translate(1500.000000, 1478.500000) scale(1, -1) rotate(180.000000) translate(-1500.000000, -1478.500000) " points="1500 1468 1512 1489 1488 1489"></polygon>
            <polygon id="Triangle-Copy-61" transform="translate(1500.000000, 1340.500000) scale(1, -1) rotate(180.000000) translate(-1500.000000, -1340.500000) " points="1500 1330 1512 1351 1488 1351"></polygon>
            <polygon id="Triangle-Copy-62" transform="translate(1500.000000, 1189.500000) scale(1, -1) rotate(180.000000) translate(-1500.000000, -1189.500000) " points="1500 1179 1512 1200 1488 1200"></polygon>
            <polygon id="Triangle-Copy-63" transform="translate(1500.000000, 889.500000) scale(1, -1) rotate(180.000000) translate(-1500.000000, -889.500000) " points="1500 879 1512 900 1488 900"></polygon>
        </g>
        <g id="Group-2" transform="translate(0.000000, 195.000000)">
            <g id="Group" transform="translate(860.000000, 0.000000)">
                <text id="CONNECTIVE" font-family="Futura-Bold, Futura" font-size="64" font-weight="bold" fill="#424242">
                    <tspan x="418.848" y="760">CONNECTIVE</tspan>
                </text>
                <g id="Shape" transform="translate(407.000000, 0.000000)">
                    <mask id="mask-2" fill="white">
                        <use xlink:href="#path-1"></use>
                    </mask>
                    <use id="Mask" fill="#4A90E2" fill-rule="nonzero" xlink:href="#path-1"></use>
                    <path d="M408.600421,272.271895 L517.038095,272.271895 L517.038095,295.947712 L408.600421,295.947712 C409.376648,292.122767 409.784127,288.163883 409.784127,284.109804 C409.784127,280.055725 409.376648,276.096841 408.600421,272.271895 Z M386.120055,331.461438 L517.038095,331.461438 L517.038095,355.137255 L336.453993,355.137255 L343.623882,342.891241 C345.914947,343.160751 348.246054,343.299346 350.609524,343.299346 C363.933571,343.299346 376.22909,338.894585 386.120055,331.461438 Z M315.661149,390.65098 L517.038095,390.65098 L517.038095,414.326797 L301.799253,414.326797 L315.661149,390.65098 Z M281.006409,449.840523 L517.038095,449.840523 L517.038095,473.51634 L290.990897,473.51634 C289.258543,464.979971 285.689544,457.110712 280.714438,450.339209 L281.006409,449.840523 Z M287.250768,509.030065 L517.038095,509.030065 L517.038095,532.705882 L268.510531,532.705882 C276.6327,526.602001 283.133426,518.456014 287.250758,509.030067 L287.250768,509.030065 Z M184.622914,213.082353 L517.038095,213.082353 L517.038095,236.75817 L386.120055,236.75817 C376.22909,229.325023 363.933571,224.920261 350.609524,224.920261 C337.285477,224.920261 324.989957,229.325023 315.098993,236.75817 L170.761018,236.75817 L184.622914,213.082353 Z M219.277654,153.89281 L517.038095,153.89281 L517.038095,177.568627 L205.415758,177.568627 L219.277654,153.89281 Z M291.13612,94.703268 L517.038095,94.703268 L517.038095,118.379085 L280.890706,118.379085 C285.916321,111.466229 289.482405,103.423305 291.13612,94.703268 Z M267.504155,35.5137255 L517.038095,35.5137255 L517.038095,59.1895425 L286.921499,59.1895425 C282.617123,49.6936776 275.879317,41.5363135 267.504155,35.5137255 Z" fill="#72B3FF" fill-rule="nonzero" mask="url(#mask-2)"></path>
                </g>
                <path d="M435,795 L466.893057,795 L466.893057,826.721739 L496.290136,826.721739 L496.290136,795 L528.183193,795 L528.183193,891 L496.290136,891 L496.290136,859 L467.170388,859 L467.170388,891 L435,891 M570.337494,827 L542.188404,827 L542.188404,795 L630.518306,795 L630.518306,827 L602.230551,827 L602.230551,891 L570.337494,891 M644.523518,795 L677.941895,795 L698.464384,828.808696 L718.986872,795 L752.40525,795 L752.40525,891 L720.512193,891 L720.512193,843.417391 L698.187053,877.921739 L675.861913,843.417391 L675.861913,891 L644.523518,891 M768.213113,795 L800.10617,795 L800.10617,859.278261 L845.311111,859.278261 L845.311111,891 L768.213113,891" id="Shape" fill="#424242" fill-rule="nonzero"></path>
            </g>
            <text id="Explicitly-Reactive" font-family="Futura-Medium, Futura" font-size="64" font-weight="400" fill="#BDBDBD">
                <tspan x="1012.6875" y="1085">Explicitly Reactive User Interfaces</tspan>
            </text>
        </g>
    </g>
</svg>